%MOMM*%
%FSLAX33Y33*%
%ADD10C,0.203200*%
%ADD11C,0.120000*%
%ADD125C,0.200000*%
%ADD126C,0.152400*%
%ADD133C,1.400000*%
%ADD134R,1.400000X1.400000*%
%ADD156R,1.200000X1.200000*%
%ADD163R,1.300000X1.300000*%
%ADD171C,2.300000*%
%ADD172R,2.300000X2.300000*%
%ADD179C,0.530000*%
%ADD180C,0.900000*%
%ADD181R,1.100000X1.100000*%
%ADD182C,1.100000*%
%ADD183C,3.800000*%
%ADD184C,2.200000*%
%ADD185R,2.200000X2.200000*%
%ADD187R,0.800000X0.900000*%
%ADD189R,0.900000X0.800000*%
%ADD217R,1.950000X0.635000*%
%ADD225C,1.000000*%
%ADD226C,1.200000*%
%ADD227C,1.300000*%
G90*G71*G01*D02*G54D10*X0Y0D02*X123500Y0D01*X123500Y103500D01*
X0Y103500D01*X0Y0D01*X62200Y91215D02*X61400Y91215D01*
X62200Y84865D02*X61700Y84865D01*X78300Y86135D02*X77800Y86135D01*
X78600Y79785D02*X77800Y79785D01*X71000Y93500D02*X70995Y93402D01*
X70981Y93305D01*X70957Y93210D01*X70924Y93117D01*X70882Y93029D01*
X70831Y92944D01*X70773Y92866D01*X70707Y92793D01*X70634Y92727D01*
X70556Y92669D01*X70471Y92618D01*X70383Y92576D01*X70290Y92543D01*
X70195Y92519D01*X70098Y92505D01*X70000Y92500D01*X69902Y92505D01*
X69805Y92519D01*X69710Y92543D01*X69617Y92576D01*X69529Y92618D01*
X69444Y92669D01*X69366Y92727D01*X69293Y92793D01*X69227Y92866D01*
X69169Y92944D01*X69118Y93029D01*X69076Y93117D01*X69043Y93210D01*
X69019Y93305D01*X69005Y93402D01*X69000Y93500D01*X62900Y91700D02*
X62900Y93500D01*X69000Y93500D01*X71000Y93500D02*X77100Y93500D01*
X77100Y91700D01*X77100Y79300D02*X77100Y77500D01*X62900Y77500D01*
X62900Y79300D01*X69500Y85500D02*X70500Y85500D01*X70000Y86000D02*
X70000Y85000D01*X4250Y5500D02*X4274Y5256D01*X4345Y5022D01*
X4461Y4806D01*X4616Y4616D01*X4806Y4461D01*X5022Y4345D01*
X5256Y4274D01*X5500Y4250D01*X5744Y4274D01*X5978Y4345D01*
X6194Y4461D01*X6384Y4616D01*X6539Y4806D01*X6655Y5022D01*
X6726Y5256D01*X6750Y5500D01*X6726Y5744D01*X6655Y5978D01*
X6539Y6194D01*X6384Y6384D01*X6194Y6539D01*X5978Y6655D01*
X5744Y6726D01*X5500Y6750D01*X5256Y6726D01*X5022Y6655D01*
X4806Y6539D01*X4616Y6384D01*X4461Y6194D01*X4345Y5978D01*
X4274Y5744D01*X4250Y5500D01*X4750Y5500D02*X4764Y5354D01*
X4807Y5213D01*X4876Y5083D01*X4970Y4970D01*X5083Y4876D01*
X5213Y4807D01*X5354Y4764D01*X5500Y4750D01*X5646Y4764D01*
X5787Y4807D01*X5917Y4876D01*X6030Y4970D01*X6124Y5083D01*
X6193Y5213D01*X6236Y5354D01*X6250Y5500D01*X6236Y5646D01*
X6193Y5787D01*X6124Y5917D01*X6030Y6030D01*X5917Y6124D01*
X5787Y6193D01*X5646Y6236D01*X5500Y6250D01*X5354Y6236D01*
X5213Y6193D01*X5083Y6124D01*X4970Y6030D01*X4876Y5917D01*
X4807Y5787D01*X4764Y5646D01*X4750Y5500D01*X116750Y5500D02*
X116774Y5256D01*X116845Y5022D01*X116961Y4806D01*X117116Y4616D01*
X117306Y4461D01*X117522Y4345D01*X117756Y4274D01*X118000Y4250D01*
X118244Y4274D01*X118478Y4345D01*X118694Y4461D01*X118884Y4616D01*
X119039Y4806D01*X119155Y5022D01*X119226Y5256D01*X119250Y5500D01*
X119226Y5744D01*X119155Y5978D01*X119039Y6194D01*X118884Y6384D01*
X118694Y6539D01*X118478Y6655D01*X118244Y6726D01*X118000Y6750D01*
X117756Y6726D01*X117522Y6655D01*X117306Y6539D01*X117116Y6384D01*
X116961Y6194D01*X116845Y5978D01*X116774Y5744D01*X116750Y5500D01*
X117250Y5500D02*X117264Y5354D01*X117307Y5213D01*X117376Y5083D01*
X117470Y4970D01*X117583Y4876D01*X117713Y4807D01*X117854Y4764D01*
X118000Y4750D01*X118146Y4764D01*X118287Y4807D01*X118417Y4876D01*
X118530Y4970D01*X118624Y5083D01*X118693Y5213D01*X118736Y5354D01*
X118750Y5500D01*X118736Y5646D01*X118693Y5787D01*X118624Y5917D01*
X118530Y6030D01*X118417Y6124D01*X118287Y6193D01*X118146Y6236D01*
X118000Y6250D01*X117854Y6236D01*X117713Y6193D01*X117583Y6124D01*
X117470Y6030D01*X117376Y5917D01*X117307Y5787D01*X117264Y5646D01*
X117250Y5500D01*X4250Y98000D02*X4274Y97756D01*X4345Y97522D01*
X4461Y97306D01*X4616Y97116D01*X4806Y96961D01*X5022Y96845D01*
X5256Y96774D01*X5500Y96750D01*X5744Y96774D01*X5978Y96845D01*
X6194Y96961D01*X6384Y97116D01*X6539Y97306D01*X6655Y97522D01*
X6726Y97756D01*X6750Y98000D01*X6726Y98244D01*X6655Y98478D01*
X6539Y98694D01*X6384Y98884D01*X6194Y99039D01*X5978Y99155D01*
X5744Y99226D01*X5500Y99250D01*X5256Y99226D01*X5022Y99155D01*
X4806Y99039D01*X4616Y98884D01*X4461Y98694D01*X4345Y98478D01*
X4274Y98244D01*X4250Y98000D01*X4750Y98000D02*X4764Y97854D01*
X4807Y97713D01*X4876Y97583D01*X4970Y97470D01*X5083Y97376D01*
X5213Y97307D01*X5354Y97264D01*X5500Y97250D01*X5646Y97264D01*
X5787Y97307D01*X5917Y97376D01*X6030Y97470D01*X6124Y97583D01*
X6193Y97713D01*X6236Y97854D01*X6250Y98000D01*X6236Y98146D01*
X6193Y98287D01*X6124Y98417D01*X6030Y98530D01*X5917Y98624D01*
X5787Y98693D01*X5646Y98736D01*X5500Y98750D01*X5354Y98736D01*
X5213Y98693D01*X5083Y98624D01*X4970Y98530D01*X4876Y98417D01*
X4807Y98287D01*X4764Y98146D01*X4750Y98000D01*X116750Y98000D02*
X116774Y97756D01*X116845Y97522D01*X116961Y97306D01*X117116Y97116D01*
X117306Y96961D01*X117522Y96845D01*X117756Y96774D01*X118000Y96750D01*
X118244Y96774D01*X118478Y96845D01*X118694Y96961D01*X118884Y97116D01*
X119039Y97306D01*X119155Y97522D01*X119226Y97756D01*X119250Y98000D01*
X119226Y98244D01*X119155Y98478D01*X119039Y98694D01*X118884Y98884D01*
X118694Y99039D01*X118478Y99155D01*X118244Y99226D01*X118000Y99250D01*
X117756Y99226D01*X117522Y99155D01*X117306Y99039D01*X117116Y98884D01*
X116961Y98694D01*X116845Y98478D01*X116774Y98244D01*X116750Y98000D01*
X117250Y98000D02*X117264Y97854D01*X117307Y97713D01*X117376Y97583D01*
X117470Y97470D01*X117583Y97376D01*X117713Y97307D01*X117854Y97264D01*
X118000Y97250D01*X118146Y97264D01*X118287Y97307D01*X118417Y97376D01*
X118530Y97470D01*X118624Y97583D01*X118693Y97713D01*X118736Y97854D01*
X118750Y98000D01*X118736Y98146D01*X118693Y98287D01*X118624Y98417D01*
X118530Y98530D01*X118417Y98624D01*X118287Y98693D01*X118146Y98736D01*
X118000Y98750D01*X117854Y98736D01*X117713Y98693D01*X117583Y98624D01*
X117470Y98530D01*X117376Y98417D01*X117307Y98287D01*X117264Y98146D01*
X117250Y98000D01*D02*G54D11*X45456Y69068D02*X45529Y69039D01*
X45602Y68981D01*X45650Y68927D01*X45650Y68814D01*X45602Y68760D01*
X45529Y68706D01*X45456Y68677D01*X45347Y68652D01*X45153Y68652D01*
X45044Y68677D01*X44959Y68706D01*X44886Y68760D01*X44850Y68814D01*
X44850Y68927D01*X44886Y68981D01*X44959Y69039D01*X45044Y69068D01*
X45153Y69068D01*X45153Y68927D01*X44850Y69292D02*X45650Y69292D01*
X44850Y69708D01*X45650Y69708D01*X45650Y69932D02*X45650Y70140D01*
X45602Y70227D01*X45529Y70286D01*X45456Y70315D01*X45347Y70348D01*
X45153Y70348D01*X45044Y70315D01*X44959Y70286D01*X44886Y70227D01*
X44850Y70140D01*X44850Y69932D01*X45650Y69932D01*X43492Y68814D02*
X43529Y68848D01*X43638Y68897D01*X42850Y68897D01*X43456Y69321D02*
X43492Y69321D01*X43565Y69350D01*X43602Y69379D01*X43650Y69438D01*
X43650Y69558D01*X43602Y69616D01*X43565Y69646D01*X43492Y69675D01*
X43420Y69675D01*X43347Y69646D01*X43226Y69587D01*X42850Y69292D01*
X42850Y69708D01*X43650Y69932D02*X42850Y70136D01*X43650Y70348D01*
X48151Y72982D02*X48151Y73023D01*X48118Y73105D01*X48086Y73145D01*
X48020Y73200D01*X47884Y73200D01*X47819Y73145D01*X47786Y73105D01*
X47753Y73023D01*X47753Y72941D01*X47786Y72859D01*X47852Y72723D01*
X48184Y72300D01*X47716Y72300D01*X44584Y76975D02*X44584Y76445D01*
X44616Y76339D01*X44648Y76307D01*X44708Y76275D01*X44775Y76275D01*
X44836Y76307D01*X44867Y76339D01*X44899Y76445D01*X44899Y76508D01*
X44285Y76837D02*X44260Y76869D01*X44221Y76964D01*X44221Y76275D01*
X43782Y76964D02*X43852Y76933D01*X43897Y76837D01*X43919Y76667D01*
X43919Y76572D01*X43897Y76402D01*X43852Y76307D01*X43782Y76275D01*
X43738Y76275D01*X43671Y76307D01*X43626Y76402D01*X43601Y76572D01*
X43601Y76667D01*X43626Y76837D01*X43671Y76933D01*X43738Y76964D01*
X43782Y76964D01*X40701Y73023D02*X40664Y73064D01*X40608Y73186D01*
X40608Y72300D01*X63904Y76850D02*X63904Y76352D01*X63882Y76245D01*
X63837Y76182D01*X63767Y76150D01*X63723Y76150D01*X63656Y76182D01*
X63611Y76245D01*X63586Y76352D01*X63586Y76850D01*X63290Y76712D02*
X63265Y76744D01*X63226Y76839D01*X63226Y76150D01*X60930Y79914D02*
X60994Y79892D01*X61058Y79847D01*X61100Y79806D01*X61100Y79720D01*
X61058Y79679D01*X60994Y79637D01*X60930Y79615D01*X60835Y79596D01*
X60665Y79596D01*X60570Y79615D01*X60495Y79637D01*X60432Y79679D01*
X60400Y79720D01*X60400Y79806D01*X60432Y79847D01*X60495Y79892D01*
X60570Y79914D01*X61089Y80296D02*X60400Y80296D01*X61089Y80296D02*
X60633Y80086D01*X60633Y80404D01*X80586Y81930D02*X80608Y81994D01*
X80653Y82058D01*X80694Y82100D01*X80780Y82100D01*X80821Y82058D01*
X80863Y81994D01*X80885Y81930D01*X80904Y81835D01*X80904Y81665D01*
X80885Y81570D01*X80863Y81495D01*X80821Y81432D01*X80780Y81400D01*
X80694Y81400D01*X80653Y81432D01*X80608Y81495D01*X80586Y81570D01*
X80392Y81930D02*X80392Y81962D01*X80370Y82026D01*X80347Y82058D01*
X80303Y82100D01*X80210Y82100D01*X80166Y82058D01*X80144Y82026D01*
X80121Y81962D01*X80121Y81898D01*X80144Y81835D01*X80188Y81729D01*
X80414Y81400D01*X80096Y81400D01*X60086Y85805D02*X60108Y85869D01*
X60153Y85933D01*X60194Y85975D01*X60280Y85975D01*X60321Y85933D01*
X60363Y85869D01*X60385Y85805D01*X60404Y85710D01*X60404Y85540D01*
X60385Y85445D01*X60363Y85370D01*X60321Y85307D01*X60280Y85275D01*
X60194Y85275D01*X60153Y85307D01*X60108Y85370D01*X60086Y85445D01*
X59870Y85964D02*X59621Y85964D01*X59758Y85699D01*X59688Y85699D01*
X59644Y85667D01*X59621Y85636D01*X59596Y85540D01*X59596Y85466D01*
X59621Y85370D01*X59666Y85307D01*X59733Y85275D01*X59803Y85275D01*
X59870Y85307D01*X59892Y85339D01*X59914Y85402D01*D02*G54D125*
X47250Y75700D02*X41250Y75700D01*X41250Y70950D01*X47250Y70950D01*
X47250Y75700D01*X87500Y71000D02*X87496Y70853D01*X87486Y70706D01*
X87468Y70560D01*X87442Y70415D01*X87410Y70271D01*X87371Y70129D01*
X87325Y69989D01*X87272Y69852D01*X87212Y69717D01*X87146Y69586D01*
X87073Y69458D01*X86994Y69333D01*X86910Y69213D01*X86819Y69097D01*
X86723Y68985D01*X86621Y68879D01*X86515Y68777D01*X86403Y68681D01*
X86287Y68590D01*X86167Y68506D01*X86042Y68427D01*X85914Y68354D01*
X85783Y68288D01*X85648Y68228D01*X85511Y68175D01*X85371Y68129D01*
X85229Y68090D01*X85085Y68058D01*X84940Y68032D01*X84794Y68014D01*
X84647Y68004D01*X84500Y68000D01*X55500Y68000D02*X55353Y68004D01*
X55206Y68014D01*X55060Y68032D01*X54915Y68058D01*X54771Y68090D01*
X54629Y68129D01*X54489Y68175D01*X54352Y68228D01*X54217Y68288D01*
X54086Y68354D01*X53958Y68427D01*X53833Y68506D01*X53713Y68590D01*
X53597Y68681D01*X53485Y68777D01*X53379Y68879D01*X53277Y68985D01*
X53181Y69097D01*X53090Y69213D01*X53006Y69333D01*X52927Y69458D01*
X52854Y69586D01*X52788Y69717D01*X52728Y69852D01*X52675Y69989D01*
X52629Y70129D01*X52590Y70271D01*X52558Y70415D01*X52532Y70560D01*
X52514Y70706D01*X52504Y70853D01*X52500Y71000D01*X52500Y100000D02*
X52504Y100147D01*X52514Y100294D01*X52532Y100440D01*X52558Y100585D01*
X52590Y100729D01*X52629Y100871D01*X52675Y101011D01*X52728Y101148D01*
X52788Y101283D01*X52854Y101414D01*X52927Y101542D01*X53006Y101667D01*
X53090Y101787D01*X53181Y101903D01*X53277Y102015D01*X53379Y102121D01*
X53485Y102223D01*X53597Y102319D01*X53713Y102410D01*X53833Y102494D01*
X53958Y102573D01*X54086Y102646D01*X54217Y102712D01*X54352Y102772D01*
X54489Y102825D01*X54629Y102871D01*X54771Y102910D01*X54915Y102942D01*
X55060Y102968D01*X55206Y102986D01*X55353Y102996D01*X55500Y103000D01*
X84500Y103000D02*X84647Y102996D01*X84794Y102986D01*X84940Y102968D01*
X85085Y102942D01*X85229Y102910D01*X85371Y102871D01*X85511Y102825D01*
X85648Y102772D01*X85783Y102712D01*X85914Y102646D01*X86042Y102573D01*
X86167Y102494D01*X86287Y102410D01*X86403Y102319D01*X86515Y102223D01*
X86621Y102121D01*X86723Y102015D01*X86819Y101903D01*X86910Y101787D01*
X86994Y101667D01*X87073Y101542D01*X87146Y101414D01*X87212Y101283D01*
X87272Y101148D01*X87325Y101011D01*X87371Y100871D01*X87410Y100729D01*
X87442Y100585D01*X87468Y100440D01*X87486Y100294D01*X87496Y100147D01*
X87500Y100000D01*X87500Y100000D02*X87500Y71000D01*X55500Y103000D02*
X84500Y103000D01*X84500Y68000D02*X55500Y68000D01*X52500Y71000D02*
X52500Y100000D01*X54444Y85500D02*X54743Y82465D01*X55628Y79547D01*
X57065Y76857D01*X59000Y74500D01*X61357Y72565D01*X64047Y71128D01*
X66965Y70243D01*X70000Y69944D01*X73035Y70243D01*X75953Y71128D01*
X78643Y72565D01*X81000Y74500D01*X82935Y76857D01*X84372Y79547D01*
X85257Y82465D01*X85556Y85500D01*X85257Y88535D01*X84372Y91453D01*
X82935Y94143D01*X81000Y96500D01*X78643Y98435D01*X75953Y99872D01*
X73035Y100757D01*X70000Y101056D01*X66965Y100757D01*X64047Y99872D01*
X61357Y98435D01*X59000Y96500D01*X57065Y94143D01*X55628Y91453D01*
X54743Y88535D01*X54444Y85500D01*X41700Y125700D02*X-8300Y125700D01*
X-8300Y115700D01*X41700Y115700D01*X41700Y120700D02*X141700Y120700D01*
X81700Y125700D02*X81700Y115700D01*X41700Y125700D02*X141700Y125700D01*
X141700Y115700D02*X41700Y115700D01*X41700Y125700D02*X41700Y115700D01*
X141700Y125700D02*X141700Y115700D01*X111700Y125700D02*X111700Y115700D01*
X117141Y118836D02*X117141Y118745D01*X117232Y118745D01*X117232Y118836D01*
X117141Y118836D01*X117141Y118927D02*X117232Y118927D01*X117323Y118836D01*
X117323Y118745D01*X117232Y118655D01*X117141Y118655D01*X117050Y118745D01*
X117050Y118836D01*X117141Y119018D01*X117232Y119109D01*X117505Y119170D01*
X117882Y119170D01*X118155Y119109D01*X118246Y119018D01*X118350Y118836D01*
X118350Y118655D01*X118246Y118503D01*X117973Y118321D01*X117505Y118139D01*
X117323Y118048D01*X117141Y117867D01*X117050Y117624D01*X117050Y117352D01*
X118155Y119018D02*X118246Y118836D01*X118246Y118655D01*X118155Y118503D01*
X117882Y119170D02*X118064Y119109D01*X118155Y118836D01*X118155Y118655D01*
X118064Y118503D01*X117882Y118321D01*X117505Y118139D01*X117050Y117533D02*
X117141Y117624D01*X117323Y117624D01*X117778Y117533D01*X118155Y117533D01*
X118350Y117624D01*X117323Y117624D02*X117778Y117442D01*X118155Y117442D01*
X118246Y117533D01*X117323Y117624D02*X117778Y117352D01*X118155Y117352D01*
X118246Y117442D01*X118350Y117624D01*X118350Y117776D01*X119596Y119170D02*
X119323Y119109D01*X119141Y118836D01*X119050Y118412D01*X119050Y118139D01*
X119141Y117715D01*X119323Y117442D01*X119596Y117352D01*X119791Y117352D01*
X120064Y117442D01*X120246Y117715D01*X120350Y118139D01*X120350Y118412D01*
X120246Y118836D01*X120064Y119109D01*X119791Y119170D01*X119596Y119170D01*
X119323Y119018D02*X119232Y118836D01*X119141Y118503D01*X119141Y118048D01*
X119232Y117715D01*X119323Y117533D01*X120064Y117533D02*X120155Y117715D01*
X120246Y118048D01*X120246Y118503D01*X120155Y118836D01*X120064Y119018D01*
X119596Y119170D02*X119414Y119109D01*X119323Y118927D01*X119232Y118503D01*
X119232Y118048D01*X119323Y117624D01*X119414Y117442D01*X119596Y117352D01*
X119791Y117352D02*X119973Y117442D01*X120064Y117624D01*X120155Y118048D01*
X120155Y118503D01*X120064Y118927D01*X119973Y119109D01*X119791Y119170D01*
X121635Y119018D02*X121635Y117352D01*X121687Y119018D02*X121687Y117442D01*
X121726Y119170D02*X121726Y117352D01*X121726Y119170D02*X121596Y118927D01*
X121518Y118836D01*X121479Y117352D02*X121895Y117352D01*X121635Y117442D02*
X121557Y117352D01*X121635Y117533D02*X121596Y117352D01*X121726Y117533D02*
X121765Y117352D01*X121726Y117442D02*X121804Y117352D01*X124064Y118927D02*
X124064Y118836D01*X124155Y118836D01*X124155Y118927D01*X124064Y118927D01*
X124155Y119018D02*X124064Y119018D01*X123973Y118927D01*X123973Y118836D01*
X124064Y118745D01*X124155Y118745D01*X124246Y118836D01*X124246Y118927D01*
X124155Y119109D01*X123973Y119170D01*X123700Y119170D01*X123414Y119109D01*
X123232Y118927D01*X123141Y118745D01*X123050Y118412D01*X123050Y117867D01*
X123141Y117624D01*X123323Y117442D01*X123596Y117352D01*X123791Y117352D01*
X124064Y117442D01*X124246Y117624D01*X124350Y117867D01*X124350Y117958D01*
X124246Y118230D01*X124064Y118412D01*X123791Y118503D01*X123596Y118503D01*
X123414Y118412D01*X123323Y118321D01*X123232Y118139D01*X123323Y118927D02*
X123232Y118745D01*X123141Y118412D01*X123141Y117867D01*X123232Y117624D01*
X123323Y117533D01*X124155Y117624D02*X124246Y117776D01*X124246Y118048D01*
X124155Y118230D01*X123700Y119170D02*X123505Y119109D01*X123414Y119018D01*
X123323Y118836D01*X123232Y118503D01*X123232Y117867D01*X123323Y117624D01*
X123414Y117442D01*X123596Y117352D01*X123791Y117352D02*X123973Y117442D01*
X124064Y117533D01*X124155Y117776D01*X124155Y118048D01*X124064Y118321D01*
X123973Y118412D01*X123791Y118503D01*X125050Y118230D02*X126350Y118230D01*
X126350Y118139D01*X125050Y118230D02*X125050Y118139D01*X126350Y118139D01*
X127635Y119018D02*X127635Y117352D01*X127687Y119018D02*X127687Y117442D01*
X127726Y119170D02*X127726Y117352D01*X127726Y119170D02*X127596Y118927D01*
X127518Y118836D01*X127479Y117352D02*X127895Y117352D01*X127635Y117442D02*
X127557Y117352D01*X127635Y117533D02*X127596Y117352D01*X127726Y117533D02*
X127765Y117352D01*X127726Y117442D02*X127804Y117352D01*X129141Y118836D02*
X129141Y118745D01*X129232Y118745D01*X129232Y118836D01*X129141Y118836D01*
X129141Y118927D02*X129232Y118927D01*X129323Y118836D01*X129323Y118745D01*
X129232Y118655D01*X129141Y118655D01*X129050Y118745D01*X129050Y118836D01*
X129141Y119018D01*X129232Y119109D01*X129505Y119170D01*X129882Y119170D01*
X130155Y119109D01*X130246Y119018D01*X130350Y118836D01*X130350Y118655D01*
X130246Y118503D01*X129973Y118321D01*X129505Y118139D01*X129323Y118048D01*
X129141Y117867D01*X129050Y117624D01*X129050Y117352D01*X130155Y119018D02*
X130246Y118836D01*X130246Y118655D01*X130155Y118503D01*X129882Y119170D02*
X130064Y119109D01*X130155Y118836D01*X130155Y118655D01*X130064Y118503D01*
X129882Y118321D01*X129505Y118139D01*X129050Y117533D02*X129141Y117624D01*
X129323Y117624D01*X129778Y117533D01*X130155Y117533D01*X130350Y117624D01*
X129323Y117624D02*X129778Y117442D01*X130155Y117442D01*X130246Y117533D01*
X129323Y117624D02*X129778Y117352D01*X130155Y117352D01*X130246Y117442D01*
X130350Y117624D01*X130350Y117776D01*X131050Y118230D02*X132350Y118230D01*
X132350Y118139D01*X131050Y118230D02*X131050Y118139D01*X132350Y118139D01*
X133141Y118836D02*X133141Y118745D01*X133232Y118745D01*X133232Y118836D01*
X133141Y118836D01*X133141Y118927D02*X133232Y118927D01*X133323Y118836D01*
X133323Y118745D01*X133232Y118655D01*X133141Y118655D01*X133050Y118745D01*
X133050Y118836D01*X133141Y119018D01*X133232Y119109D01*X133505Y119170D01*
X133882Y119170D01*X134155Y119109D01*X134246Y119018D01*X134350Y118836D01*
X134350Y118655D01*X134246Y118503D01*X133973Y118321D01*X133505Y118139D01*
X133323Y118048D01*X133141Y117867D01*X133050Y117624D01*X133050Y117352D01*
X134155Y119018D02*X134246Y118836D01*X134246Y118655D01*X134155Y118503D01*
X133882Y119170D02*X134064Y119109D01*X134155Y118836D01*X134155Y118655D01*
X134064Y118503D01*X133882Y118321D01*X133505Y118139D01*X133050Y117533D02*
X133141Y117624D01*X133323Y117624D01*X133778Y117533D01*X134155Y117533D01*
X134350Y117624D01*X133323Y117624D02*X133778Y117442D01*X134155Y117442D01*
X134246Y117533D01*X133323Y117624D02*X133778Y117352D01*X134155Y117352D01*
X134246Y117442D01*X134350Y117624D01*X134350Y117776D01*X135141Y118836D02*
X135141Y118745D01*X135232Y118745D01*X135232Y118836D01*X135141Y118836D01*
X135141Y118927D02*X135232Y118927D01*X135323Y118836D01*X135323Y118745D01*
X135232Y118655D01*X135141Y118655D01*X135050Y118745D01*X135050Y118836D01*
X135141Y119018D01*X135232Y119109D01*X135505Y119170D01*X135882Y119170D01*
X136155Y119109D01*X136246Y118927D01*X136246Y118655D01*X136155Y118503D01*
X135882Y118412D01*X136064Y119109D02*X136155Y118927D01*X136155Y118655D01*
X136064Y118503D01*X135791Y119170D02*X135973Y119109D01*X136064Y118927D01*
X136064Y118655D01*X135973Y118503D01*X135791Y118412D01*X135596Y118412D02*
X135882Y118412D01*X136064Y118321D01*X136246Y118139D01*X136350Y117958D01*
X136350Y117715D01*X136246Y117533D01*X136155Y117442D01*X135882Y117352D01*
X135505Y117352D01*X135232Y117442D01*X135141Y117533D01*X135050Y117715D01*
X135050Y117776D01*X135141Y117867D01*X135232Y117867D01*X135323Y117776D01*
X135323Y117715D01*X135232Y117624D01*X135141Y117624D01*X136155Y118139D02*
X136246Y117958D01*X136246Y117715D01*X136155Y117533D01*X135791Y118412D02*
X135973Y118321D01*X136064Y118230D01*X136155Y117958D01*X136155Y117715D01*
X136064Y117442D01*X135882Y117352D01*X135141Y117776D02*X135141Y117715D01*
X135232Y117715D01*X135232Y117776D01*X135141Y117776D01*X123271Y124170D02*
X123271Y122352D01*X123349Y124109D02*X123349Y122442D01*X123427Y124170D02*
X123427Y122352D01*X123050Y124170D02*X123804Y124170D01*X124038Y124109D01*
X124194Y123927D01*X124272Y123745D01*X124350Y123503D01*X124350Y123048D01*
X124272Y122776D01*X124194Y122624D01*X124038Y122442D01*X123804Y122352D01*
X123050Y122352D01*X124116Y123927D02*X124194Y123745D01*X124272Y123503D01*
X124272Y123048D01*X124194Y122776D01*X124116Y122624D01*X123804Y124170D02*
X123960Y124109D01*X124116Y123836D01*X124194Y123503D01*X124194Y123048D01*
X124116Y122715D01*X123960Y122442D01*X123804Y122352D01*X123115Y124170D02*
X123271Y124109D01*X123193Y124170D02*X123271Y124018D01*X123505Y124170D02*
X123427Y124018D01*X123583Y124170D02*X123427Y124109D01*X123271Y122442D02*
X123115Y122352D01*X123271Y122533D02*X123193Y122352D01*X123427Y122533D02*
X123505Y122352D01*X123427Y122442D02*X123583Y122352D01*X125700Y124170D02*
X125193Y122442D01*X125622Y123927D02*X126051Y122352D01*X125700Y123927D02*
X126129Y122352D01*X125700Y124170D02*X126194Y122352D01*X125336Y122867D02*
X125986Y122867D01*X125050Y122352D02*X125479Y122352D01*X125843Y122352D02*
X126350Y122352D01*X125193Y122442D02*X125115Y122352D01*X125193Y122442D02*
X125336Y122352D01*X126051Y122442D02*X125908Y122352D01*X126051Y122533D02*
X125986Y122352D01*X126129Y122533D02*X126272Y122352D01*X127050Y124170D02*
X127050Y123655D01*X127609Y124170D02*X127609Y122352D01*X127700Y124109D02*
X127700Y122442D01*X127778Y124170D02*X127778Y122352D01*X128350Y124170D02*
X128350Y123655D01*X127050Y124170D02*X128350Y124170D01*X127375Y122352D02*
X128012Y122352D01*X127128Y124170D02*X127050Y123655D01*X127206Y124170D02*
X127050Y123927D01*X127284Y124170D02*X127050Y124018D01*X127453Y124170D02*
X127050Y124109D01*X127934Y124170D02*X128350Y124109D01*X128103Y124170D02*
X128350Y124018D01*X128181Y124170D02*X128350Y123927D01*X128259Y124170D02*
X128350Y123655D01*X127609Y122442D02*X127453Y122352D01*X127609Y122533D02*
X127531Y122352D01*X127778Y122533D02*X127856Y122352D01*X127778Y122442D02*
X127934Y122352D01*X129284Y124170D02*X129284Y122352D01*X129362Y124109D02*
X129362Y122442D01*X129453Y124170D02*X129453Y122352D01*X129050Y124170D02*
X130350Y124170D01*X130350Y123655D01*X129453Y123321D02*X129934Y123321D01*
X129934Y123655D02*X129934Y122958D01*X129050Y122352D02*X130350Y122352D01*
X130350Y122867D01*X129128Y124170D02*X129284Y124109D01*X129206Y124170D02*
X129284Y124018D01*X129531Y124170D02*X129453Y124018D01*X129609Y124170D02*
X129453Y124109D01*X129934Y124170D02*X130350Y124109D01*X130103Y124170D02*
X130350Y124018D01*X130181Y124170D02*X130350Y123927D01*X130259Y124170D02*
X130350Y123655D01*X129934Y123655D02*X129856Y123321D01*X129934Y122958D01*
X129934Y123503D02*X129778Y123321D01*X129934Y123139D01*X129934Y123412D02*
X129609Y123321D01*X129934Y123230D01*X129284Y122442D02*X129128Y122352D01*
X129284Y122533D02*X129206Y122352D01*X129453Y122533D02*X129531Y122352D01*
X129453Y122442D02*X129609Y122352D01*X129934Y122352D02*X130350Y122442D01*
X130103Y122352D02*X130350Y122533D01*X130181Y122352D02*X130350Y122624D01*
X130259Y122352D02*X130350Y122867D01*X87310Y124170D02*X87310Y122352D01*
X87388Y124109D02*X87388Y122442D01*X87479Y124170D02*X87479Y122352D01*
X87050Y124170D02*X87739Y124170D01*X87050Y122352D02*X88350Y122352D01*
X88350Y122867D01*X87128Y124170D02*X87310Y124109D01*X87219Y124170D02*
X87310Y124018D01*X87570Y124170D02*X87479Y124018D01*X87648Y124170D02*
X87479Y124109D01*X87310Y122442D02*X87128Y122352D01*X87310Y122533D02*
X87219Y122352D01*X87479Y122533D02*X87570Y122352D01*X87479Y122442D02*
X87648Y122352D01*X87908Y122352D02*X88350Y122442D01*X88077Y122352D02*
X88350Y122533D01*X88168Y122352D02*X88350Y122624D01*X88259Y122352D02*
X88350Y122867D01*X89700Y124170D02*X89193Y122442D01*X89622Y123927D02*
X90051Y122352D01*X89700Y123927D02*X90129Y122352D01*X89700Y124170D02*
X90194Y122352D01*X89336Y122867D02*X89986Y122867D01*X89050Y122352D02*
X89479Y122352D01*X89843Y122352D02*X90350Y122352D01*X89193Y122442D02*
X89115Y122352D01*X89193Y122442D02*X89336Y122352D01*X90051Y122442D02*
X89908Y122352D01*X90051Y122533D02*X89986Y122352D01*X90129Y122533D02*
X90272Y122352D01*X91180Y124170D02*X91622Y123230D01*X91622Y122352D01*
X91245Y124170D02*X91687Y123230D01*X91687Y122442D01*X91297Y124170D02*
X91765Y123230D01*X91765Y122352D01*X92142Y124109D02*X91765Y123230D01*
X91050Y124170D02*X91505Y124170D01*X91947Y124170D02*X92350Y124170D01*
X91440Y122352D02*X91947Y122352D01*X91115Y124170D02*X91245Y124109D01*
X91440Y124170D02*X91297Y124109D01*X92025Y124170D02*X92142Y124109D01*
X92272Y124170D02*X92142Y124109D01*X91622Y122442D02*X91505Y122352D01*
X91622Y122533D02*X91557Y122352D01*X91765Y122533D02*X91817Y122352D01*
X91765Y122442D02*X91882Y122352D01*X93284Y124170D02*X93284Y122352D01*
X93362Y124109D02*X93362Y122442D01*X93453Y124170D02*X93453Y122352D01*
X93050Y124170D02*X94350Y124170D01*X94350Y123655D01*X93453Y123321D02*
X93934Y123321D01*X93934Y123655D02*X93934Y122958D01*X93050Y122352D02*
X94350Y122352D01*X94350Y122867D01*X93128Y124170D02*X93284Y124109D01*
X93206Y124170D02*X93284Y124018D01*X93531Y124170D02*X93453Y124018D01*
X93609Y124170D02*X93453Y124109D01*X93934Y124170D02*X94350Y124109D01*
X94103Y124170D02*X94350Y124018D01*X94181Y124170D02*X94350Y123927D01*
X94259Y124170D02*X94350Y123655D01*X93934Y123655D02*X93856Y123321D01*
X93934Y122958D01*X93934Y123503D02*X93778Y123321D01*X93934Y123139D01*
X93934Y123412D02*X93609Y123321D01*X93934Y123230D01*X93284Y122442D02*
X93128Y122352D01*X93284Y122533D02*X93206Y122352D01*X93453Y122533D02*
X93531Y122352D01*X93453Y122442D02*X93609Y122352D01*X93934Y122352D02*
X94350Y122442D01*X94103Y122352D02*X94350Y122533D01*X94181Y122352D02*
X94350Y122624D01*X94259Y122352D02*X94350Y122867D01*X95258Y124170D02*
X95258Y122352D01*X95336Y124109D02*X95336Y122442D01*X95401Y124170D02*
X95401Y122352D01*X95050Y124170D02*X95908Y124170D01*X96129Y124109D01*
X96194Y124018D01*X96272Y123836D01*X96272Y123655D01*X96194Y123503D01*
X96129Y123412D01*X95908Y123321D01*X95401Y123321D01*X96129Y124018D02*
X96194Y123836D01*X96194Y123655D01*X96129Y123503D01*X95908Y124170D02*
X96051Y124109D01*X96129Y123927D01*X96129Y123564D01*X96051Y123412D01*
X95908Y123321D01*X95687Y123321D02*X95843Y123230D01*X95908Y123048D01*
X96051Y122533D01*X96129Y122352D01*X96272Y122352D01*X96350Y122533D01*
X96350Y122715D01*X96051Y122715D02*X96129Y122533D01*X96194Y122442D01*
X96272Y122442D01*X95843Y123230D02*X95908Y123139D01*X96129Y122624D01*
X96194Y122533D01*X96272Y122533D01*X96350Y122624D01*X95050Y122352D02*
X95622Y122352D01*X95115Y124170D02*X95258Y124109D01*X95193Y124170D02*
X95258Y124018D01*X95479Y124170D02*X95401Y124018D01*X95544Y124170D02*
X95401Y124109D01*X95258Y122442D02*X95115Y122352D01*X95258Y122533D02*
X95193Y122352D01*X95401Y122533D02*X95479Y122352D01*X95401Y122442D02*
X95544Y122352D01*X99232Y124170D02*X99232Y122442D01*X99232Y124170D02*
X100142Y122352D01*X99310Y124170D02*X100077Y122624D01*X99362Y124170D02*
X100142Y122624D01*X100142Y124109D02*X100142Y122352D01*X99050Y124170D02*
X99362Y124170D01*X99960Y124170D02*X100350Y124170D01*X99050Y122352D02*
X99427Y122352D01*X99102Y124170D02*X99232Y124109D01*X100025Y124170D02*
X100142Y124109D01*X100285Y124170D02*X100142Y124109D01*X99232Y122442D02*
X99102Y122352D01*X99232Y122442D02*X99362Y122352D01*X101700Y124170D02*
X101193Y122442D01*X101622Y123927D02*X102051Y122352D01*X101700Y123927D02*
X102129Y122352D01*X101700Y124170D02*X102194Y122352D01*X101336Y122867D02*
X101986Y122867D01*X101050Y122352D02*X101479Y122352D01*X101843Y122352D02*
X102350Y122352D01*X101193Y122442D02*X101115Y122352D01*X101193Y122442D02*
X101336Y122352D01*X102051Y122442D02*X101908Y122352D01*X102051Y122533D02*
X101986Y122352D01*X102129Y122533D02*X102272Y122352D01*X103219Y124170D02*
X103219Y122442D01*X103219Y124170D02*X103635Y122352D01*X103284Y124170D02*
X103635Y122624D01*X103336Y124170D02*X103687Y122624D01*X104051Y124170D02*
X103635Y122352D01*X104051Y124170D02*X104051Y122352D01*X104103Y124109D02*
X104103Y122442D01*X104168Y124170D02*X104168Y122352D01*X103050Y124170D02*
X103336Y124170D01*X104051Y124170D02*X104350Y124170D01*X103050Y122352D02*
X103401Y122352D01*X103869Y122352D02*X104350Y122352D01*X103102Y124170D02*
X103219Y124109D01*X104220Y124170D02*X104168Y124018D01*X104285Y124170D02*
X104168Y124109D01*X103219Y122442D02*X103102Y122352D01*X103219Y122442D02*
X103336Y122352D01*X104051Y122442D02*X103934Y122352D01*X104051Y122533D02*
X103986Y122352D01*X104168Y122533D02*X104220Y122352D01*X104168Y122442D02*
X104285Y122352D01*X105284Y124170D02*X105284Y122352D01*X105362Y124109D02*
X105362Y122442D01*X105453Y124170D02*X105453Y122352D01*X105050Y124170D02*
X106350Y124170D01*X106350Y123655D01*X105453Y123321D02*X105934Y123321D01*
X105934Y123655D02*X105934Y122958D01*X105050Y122352D02*X106350Y122352D01*
X106350Y122867D01*X105128Y124170D02*X105284Y124109D01*X105206Y124170D02*
X105284Y124018D01*X105531Y124170D02*X105453Y124018D01*X105609Y124170D02*
X105453Y124109D01*X105934Y124170D02*X106350Y124109D01*X106103Y124170D02*
X106350Y124018D01*X106181Y124170D02*X106350Y123927D01*X106259Y124170D02*
X106350Y123655D01*X105934Y123655D02*X105856Y123321D01*X105934Y122958D01*
X105934Y123503D02*X105778Y123321D01*X105934Y123139D01*X105934Y123412D02*
X105609Y123321D01*X105934Y123230D01*X105284Y122442D02*X105128Y122352D01*
X105284Y122533D02*X105206Y122352D01*X105453Y122533D02*X105531Y122352D01*
X105453Y122442D02*X105609Y122352D01*X105934Y122352D02*X106350Y122442D01*
X106103Y122352D02*X106350Y122533D01*X106181Y122352D02*X106350Y122624D01*
X106259Y122352D02*X106350Y122867D01*X52219Y124170D02*X52219Y122442D01*
X52219Y124170D02*X52635Y122352D01*X52284Y124170D02*X52635Y122624D01*
X52336Y124170D02*X52687Y122624D01*X53051Y124170D02*X52635Y122352D01*
X53051Y124170D02*X53051Y122352D01*X53103Y124109D02*X53103Y122442D01*
X53168Y124170D02*X53168Y122352D01*X52050Y124170D02*X52336Y124170D01*
X53051Y124170D02*X53350Y124170D01*X52050Y122352D02*X52401Y122352D01*
X52869Y122352D02*X53350Y122352D01*X52102Y124170D02*X52219Y124109D01*
X53220Y124170D02*X53168Y124018D01*X53285Y124170D02*X53168Y124109D01*
X52219Y122442D02*X52102Y122352D01*X52219Y122442D02*X52336Y122352D01*
X53051Y122442D02*X52934Y122352D01*X53051Y122533D02*X52986Y122352D01*
X53168Y122533D02*X53220Y122352D01*X53168Y122442D02*X53285Y122352D01*
X54609Y124170D02*X54375Y124109D01*X54206Y123927D01*X54128Y123745D01*
X54050Y123412D01*X54050Y123139D01*X54128Y122776D01*X54206Y122624D01*
X54375Y122442D01*X54609Y122352D01*X54778Y122352D01*X55025Y122442D01*
X55181Y122624D01*X55259Y122776D01*X55350Y123139D01*X55350Y123412D01*
X55259Y123745D01*X55181Y123927D01*X55025Y124109D01*X54778Y124170D01*
X54609Y124170D01*X54284Y123927D02*X54206Y123745D01*X54128Y123503D01*
X54128Y123048D01*X54206Y122776D01*X54284Y122624D01*X55103Y122624D02*
X55181Y122776D01*X55259Y123048D01*X55259Y123503D01*X55181Y123745D01*
X55103Y123927D01*X54609Y124170D02*X54453Y124109D01*X54284Y123836D01*
X54206Y123503D01*X54206Y123048D01*X54284Y122715D01*X54453Y122442D01*
X54609Y122352D01*X54778Y122352D02*X54934Y122442D01*X55103Y122715D01*
X55181Y123048D01*X55181Y123503D01*X55103Y123836D01*X54934Y124109D01*
X54778Y124170D01*X56271Y124170D02*X56271Y122352D01*X56349Y124109D02*
X56349Y122442D01*X56427Y124170D02*X56427Y122352D01*X56050Y124170D02*
X56804Y124170D01*X57038Y124109D01*X57194Y123927D01*X57272Y123745D01*
X57350Y123503D01*X57350Y123048D01*X57272Y122776D01*X57194Y122624D01*
X57038Y122442D01*X56804Y122352D01*X56050Y122352D01*X57116Y123927D02*
X57194Y123745D01*X57272Y123503D01*X57272Y123048D01*X57194Y122776D01*
X57116Y122624D01*X56804Y124170D02*X56960Y124109D01*X57116Y123836D01*
X57194Y123503D01*X57194Y123048D01*X57116Y122715D01*X56960Y122442D01*
X56804Y122352D01*X56115Y124170D02*X56271Y124109D01*X56193Y124170D02*
X56271Y124018D01*X56505Y124170D02*X56427Y124018D01*X56583Y124170D02*
X56427Y124109D01*X56271Y122442D02*X56115Y122352D01*X56271Y122533D02*
X56193Y122352D01*X56427Y122533D02*X56505Y122352D01*X56427Y122442D02*
X56583Y122352D01*X58284Y124170D02*X58284Y122352D01*X58362Y124109D02*
X58362Y122442D01*X58453Y124170D02*X58453Y122352D01*X58050Y124170D02*
X59350Y124170D01*X59350Y123655D01*X58453Y123321D02*X58934Y123321D01*
X58934Y123655D02*X58934Y122958D01*X58050Y122352D02*X59350Y122352D01*
X59350Y122867D01*X58128Y124170D02*X58284Y124109D01*X58206Y124170D02*
X58284Y124018D01*X58531Y124170D02*X58453Y124018D01*X58609Y124170D02*
X58453Y124109D01*X58934Y124170D02*X59350Y124109D01*X59103Y124170D02*
X59350Y124018D01*X59181Y124170D02*X59350Y123927D01*X59259Y124170D02*
X59350Y123655D01*X58934Y123655D02*X58856Y123321D01*X58934Y122958D01*
X58934Y123503D02*X58778Y123321D01*X58934Y123139D01*X58934Y123412D02*
X58609Y123321D01*X58934Y123230D01*X58284Y122442D02*X58128Y122352D01*
X58284Y122533D02*X58206Y122352D01*X58453Y122533D02*X58531Y122352D01*
X58453Y122442D02*X58609Y122352D01*X58934Y122352D02*X59350Y122442D01*
X59103Y122352D02*X59350Y122533D01*X59181Y122352D02*X59350Y122624D01*
X59259Y122352D02*X59350Y122867D01*X60310Y124170D02*X60310Y122352D01*
X60388Y124109D02*X60388Y122442D01*X60479Y124170D02*X60479Y122352D01*
X60050Y124170D02*X60739Y124170D01*X60050Y122352D02*X61350Y122352D01*
X61350Y122867D01*X60128Y124170D02*X60310Y124109D01*X60219Y124170D02*
X60310Y124018D01*X60570Y124170D02*X60479Y124018D01*X60648Y124170D02*
X60479Y124109D01*X60310Y122442D02*X60128Y122352D01*X60310Y122533D02*
X60219Y122352D01*X60479Y122533D02*X60570Y122352D01*X60479Y122442D02*
X60648Y122352D01*X60908Y122352D02*X61350Y122442D01*X61077Y122352D02*
X61350Y122533D01*X61168Y122352D02*X61350Y122624D01*X61259Y122352D02*
X61350Y122867D01*X64232Y124170D02*X64232Y122442D01*X64232Y124170D02*
X65142Y122352D01*X64310Y124170D02*X65077Y122624D01*X64362Y124170D02*
X65142Y122624D01*X65142Y124109D02*X65142Y122352D01*X64050Y124170D02*
X64362Y124170D01*X64960Y124170D02*X65350Y124170D01*X64050Y122352D02*
X64427Y122352D01*X64102Y124170D02*X64232Y124109D01*X65025Y124170D02*
X65142Y124109D01*X65285Y124170D02*X65142Y124109D01*X64232Y122442D02*
X64102Y122352D01*X64232Y122442D02*X64362Y122352D01*X66700Y124170D02*
X66193Y122442D01*X66622Y123927D02*X67051Y122352D01*X66700Y123927D02*
X67129Y122352D01*X66700Y124170D02*X67194Y122352D01*X66336Y122867D02*
X66986Y122867D01*X66050Y122352D02*X66479Y122352D01*X66843Y122352D02*
X67350Y122352D01*X66193Y122442D02*X66115Y122352D01*X66193Y122442D02*
X66336Y122352D01*X67051Y122442D02*X66908Y122352D01*X67051Y122533D02*
X66986Y122352D01*X67129Y122533D02*X67272Y122352D01*X68219Y124170D02*
X68219Y122442D01*X68219Y124170D02*X68635Y122352D01*X68284Y124170D02*
X68635Y122624D01*X68336Y124170D02*X68687Y122624D01*X69051Y124170D02*
X68635Y122352D01*X69051Y124170D02*X69051Y122352D01*X69103Y124109D02*
X69103Y122442D01*X69168Y124170D02*X69168Y122352D01*X68050Y124170D02*
X68336Y124170D01*X69051Y124170D02*X69350Y124170D01*X68050Y122352D02*
X68401Y122352D01*X68869Y122352D02*X69350Y122352D01*X68102Y124170D02*
X68219Y124109D01*X69220Y124170D02*X69168Y124018D01*X69285Y124170D02*
X69168Y124109D01*X68219Y122442D02*X68102Y122352D01*X68219Y122442D02*
X68336Y122352D01*X69051Y122442D02*X68934Y122352D01*X69051Y122533D02*
X68986Y122352D01*X69168Y122533D02*X69220Y122352D01*X69168Y122442D02*
X69285Y122352D01*X70284Y124170D02*X70284Y122352D01*X70362Y124109D02*
X70362Y122442D01*X70453Y124170D02*X70453Y122352D01*X70050Y124170D02*
X71350Y124170D01*X71350Y123655D01*X70453Y123321D02*X70934Y123321D01*
X70934Y123655D02*X70934Y122958D01*X70050Y122352D02*X71350Y122352D01*
X71350Y122867D01*X70128Y124170D02*X70284Y124109D01*X70206Y124170D02*
X70284Y124018D01*X70531Y124170D02*X70453Y124018D01*X70609Y124170D02*
X70453Y124109D01*X70934Y124170D02*X71350Y124109D01*X71103Y124170D02*
X71350Y124018D01*X71181Y124170D02*X71350Y123927D01*X71259Y124170D02*
X71350Y123655D01*X70934Y123655D02*X70856Y123321D01*X70934Y122958D01*
X70934Y123503D02*X70778Y123321D01*X70934Y123139D01*X70934Y123412D02*
X70609Y123321D01*X70934Y123230D01*X70284Y122442D02*X70128Y122352D01*
X70284Y122533D02*X70206Y122352D01*X70453Y122533D02*X70531Y122352D01*
X70453Y122442D02*X70609Y122352D01*X70934Y122352D02*X71350Y122442D01*
X71103Y122352D02*X71350Y122533D01*X71181Y122352D02*X71350Y122624D01*
X71259Y122352D02*X71350Y122867D01*X60246Y118927D02*X60350Y119170D01*
X60350Y118655D01*X60246Y118927D01*X60064Y119109D01*X59778Y119170D01*
X59505Y119170D01*X59232Y119109D01*X59050Y118927D01*X59050Y118655D01*
X59141Y118503D01*X59414Y118321D01*X59973Y118139D01*X60155Y118048D01*
X60246Y117867D01*X60246Y117624D01*X60155Y117442D01*X59141Y118655D02*
X59232Y118503D01*X59414Y118412D01*X59973Y118230D01*X60155Y118139D01*
X60246Y117958D01*X59232Y119109D02*X59141Y118927D01*X59141Y118745D01*
X59232Y118564D01*X59414Y118503D01*X59973Y118321D01*X60246Y118139D01*
X60350Y117958D01*X60350Y117715D01*X60246Y117533D01*X60155Y117442D01*
X59882Y117352D01*X59596Y117352D01*X59323Y117442D01*X59141Y117624D01*
X59050Y117867D01*X59050Y117352D01*X59141Y117624D01*X62259Y118927D02*
X62350Y119170D01*X62350Y118655D01*X62259Y118927D01*X62077Y119109D01*
X61908Y119170D01*X61648Y119170D01*X61388Y119109D01*X61219Y118927D01*
X61128Y118745D01*X61050Y118503D01*X61050Y118048D01*X61128Y117776D01*
X61219Y117624D01*X61388Y117442D01*X61648Y117352D01*X61908Y117352D01*
X62077Y117442D01*X62259Y117624D01*X62350Y117776D01*X61297Y118927D02*
X61219Y118745D01*X61128Y118503D01*X61128Y118048D01*X61219Y117776D01*
X61297Y117624D01*X61648Y119170D02*X61479Y119109D01*X61297Y118836D01*
X61219Y118503D01*X61219Y118048D01*X61297Y117715D01*X61479Y117442D01*
X61648Y117352D01*X63219Y119170D02*X63219Y117442D01*X63219Y119170D02*
X63635Y117352D01*X63284Y119170D02*X63635Y117624D01*X63336Y119170D02*
X63687Y117624D01*X64051Y119170D02*X63635Y117352D01*X64051Y119170D02*
X64051Y117352D01*X64103Y119109D02*X64103Y117442D01*X64168Y119170D02*
X64168Y117352D01*X63050Y119170D02*X63336Y119170D01*X64051Y119170D02*
X64350Y119170D01*X63050Y117352D02*X63401Y117352D01*X63869Y117352D02*
X64350Y117352D01*X63102Y119170D02*X63219Y119109D01*X64220Y119170D02*
X64168Y119018D01*X64285Y119170D02*X64168Y119109D01*X63219Y117442D02*
X63102Y117352D01*X63219Y117442D02*X63336Y117352D01*X64051Y117442D02*
X63934Y117352D01*X64051Y117533D02*X63986Y117352D01*X64168Y117533D02*
X64220Y117352D01*X64168Y117442D02*X64285Y117352D01*X92700Y119170D02*
X92193Y117442D01*X92622Y118927D02*X93051Y117352D01*X92700Y118927D02*
X93129Y117352D01*X92700Y119170D02*X93194Y117352D01*X92336Y117867D02*
X92986Y117867D01*X92050Y117352D02*X92479Y117352D01*X92843Y117352D02*
X93350Y117352D01*X92193Y117442D02*X92115Y117352D01*X92193Y117442D02*
X92336Y117352D01*X93051Y117442D02*X92908Y117352D01*X93051Y117533D02*
X92986Y117352D01*X93129Y117533D02*X93272Y117352D01*X95246Y118927D02*
X95350Y119170D01*X95350Y118655D01*X95246Y118927D01*X95064Y119109D01*
X94778Y119170D01*X94505Y119170D01*X94232Y119109D01*X94050Y118927D01*
X94050Y118655D01*X94141Y118503D01*X94414Y118321D01*X94973Y118139D01*
X95155Y118048D01*X95246Y117867D01*X95246Y117624D01*X95155Y117442D01*
X94141Y118655D02*X94232Y118503D01*X94414Y118412D01*X94973Y118230D01*
X95155Y118139D01*X95246Y117958D01*X94232Y119109D02*X94141Y118927D01*
X94141Y118745D01*X94232Y118564D01*X94414Y118503D01*X94973Y118321D01*
X95246Y118139D01*X95350Y117958D01*X95350Y117715D01*X95246Y117533D01*
X95155Y117442D01*X94882Y117352D01*X94596Y117352D01*X94323Y117442D01*
X94141Y117624D01*X94050Y117867D01*X94050Y117352D01*X94141Y117624D01*
X97246Y118927D02*X97350Y119170D01*X97350Y118655D01*X97246Y118927D01*
X97064Y119109D01*X96778Y119170D01*X96505Y119170D01*X96232Y119109D01*
X96050Y118927D01*X96050Y118655D01*X96141Y118503D01*X96414Y118321D01*
X96973Y118139D01*X97155Y118048D01*X97246Y117867D01*X97246Y117624D01*
X97155Y117442D01*X96141Y118655D02*X96232Y118503D01*X96414Y118412D01*
X96973Y118230D01*X97155Y118139D01*X97246Y117958D01*X96232Y119109D02*
X96141Y118927D01*X96141Y118745D01*X96232Y118564D01*X96414Y118503D01*
X96973Y118321D01*X97246Y118139D01*X97350Y117958D01*X97350Y117715D01*
X97246Y117533D01*X97155Y117442D01*X96882Y117352D01*X96596Y117352D01*
X96323Y117442D01*X96141Y117624D01*X96050Y117867D01*X96050Y117352D01*
X96141Y117624D01*X98180Y119170D02*X98622Y118230D01*X98622Y117352D01*
X98245Y119170D02*X98687Y118230D01*X98687Y117442D01*X98297Y119170D02*
X98765Y118230D01*X98765Y117352D01*X99142Y119109D02*X98765Y118230D01*
X98050Y119170D02*X98505Y119170D01*X98947Y119170D02*X99350Y119170D01*
X98440Y117352D02*X98947Y117352D01*X98115Y119170D02*X98245Y119109D01*
X98440Y119170D02*X98297Y119109D01*X99025Y119170D02*X99142Y119109D01*
X99272Y119170D02*X99142Y119109D01*X98622Y117442D02*X98505Y117352D01*
X98622Y117533D02*X98557Y117352D01*X98765Y117533D02*X98817Y117352D01*
X98765Y117442D02*X98882Y117352D01*X100141Y118836D02*X100141Y118745D01*
X100232Y118745D01*X100232Y118836D01*X100141Y118836D01*X100141Y118927D02*
X100232Y118927D01*X100323Y118836D01*X100323Y118745D01*X100232Y118655D01*
X100141Y118655D01*X100050Y118745D01*X100050Y118836D01*X100141Y119018D01*
X100232Y119109D01*X100505Y119170D01*X100882Y119170D01*X101155Y119109D01*
X101246Y119018D01*X101350Y118836D01*X101350Y118655D01*X101246Y118503D01*
X100973Y118321D01*X100505Y118139D01*X100323Y118048D01*X100141Y117867D01*
X100050Y117624D01*X100050Y117352D01*X101155Y119018D02*X101246Y118836D01*
X101246Y118655D01*X101155Y118503D01*X100882Y119170D02*X101064Y119109D01*
X101155Y118836D01*X101155Y118655D01*X101064Y118503D01*X100882Y118321D01*
X100505Y118139D01*X100050Y117533D02*X100141Y117624D01*X100323Y117624D01*
X100778Y117533D01*X101155Y117533D01*X101350Y117624D01*X100323Y117624D02*
X100778Y117442D01*X101155Y117442D01*X101246Y117533D01*X100323Y117624D02*
X100778Y117352D01*X101155Y117352D01*X101246Y117442D01*X101350Y117624D01*
X101350Y117776D01*X0Y0D02*D02*G54D126*X60150Y82500D02*
X60175Y82499D01*X60199Y82496D01*X60224Y82490D01*X60247Y82482D01*
X60270Y82472D01*X60291Y82460D01*X60311Y82445D01*X60330Y82429D01*
X60347Y82410D01*X60362Y82390D01*X60375Y82369D01*X60386Y82347D01*
X60394Y82323D01*X60400Y82299D01*X60404Y82275D01*X60405Y82250D01*
X60404Y82225D01*X60400Y82201D01*X60394Y82177D01*X60386Y82153D01*
X60375Y82131D01*X60362Y82110D01*X60347Y82090D01*X60330Y82071D01*
X60311Y82055D01*X60291Y82040D01*X60270Y82028D01*X60247Y82018D01*
X60224Y82010D01*X60199Y82004D01*X60175Y82001D01*X60150Y82000D01*
X61350Y83650D02*X60150Y83650D01*X61350Y83650D02*X61350Y82500D01*
X61350Y82000D02*X61350Y80850D01*X61350Y80850D02*X60150Y80850D01*
X60150Y83650D02*X60150Y82500D01*X60150Y82000D02*X60150Y80850D01*
X61350Y82000D02*X61325Y82001D01*X61301Y82004D01*X61276Y82010D01*
X61253Y82018D01*X61230Y82028D01*X61209Y82040D01*X61189Y82055D01*
X61170Y82071D01*X61153Y82090D01*X61138Y82110D01*X61125Y82131D01*
X61114Y82153D01*X61106Y82177D01*X61100Y82201D01*X61096Y82225D01*
X61095Y82250D01*X61096Y82275D01*X61100Y82299D01*X61106Y82323D01*
X61114Y82347D01*X61125Y82369D01*X61138Y82390D01*X61153Y82410D01*
X61170Y82429D01*X61189Y82445D01*X61209Y82460D01*X61230Y82472D01*
X61253Y82482D01*X61276Y82490D01*X61301Y82496D01*X61325Y82499D01*
X61350Y82500D01*X80250Y82400D02*X80251Y82425D01*X80254Y82449D01*
X80260Y82474D01*X80268Y82497D01*X80278Y82520D01*X80290Y82541D01*
X80305Y82561D01*X80321Y82580D01*X80340Y82597D01*X80360Y82612D01*
X80381Y82625D01*X80403Y82636D01*X80427Y82644D01*X80451Y82650D01*
X80475Y82654D01*X80500Y82655D01*X80525Y82654D01*X80549Y82650D01*
X80573Y82644D01*X80597Y82636D01*X80619Y82625D01*X80640Y82612D01*
X80660Y82597D01*X80679Y82580D01*X80695Y82561D01*X80710Y82541D01*
X80722Y82520D01*X80732Y82497D01*X80740Y82474D01*X80746Y82449D01*
X80749Y82425D01*X80750Y82400D01*X79100Y83600D02*X79100Y82400D01*
X79100Y83600D02*X80250Y83600D01*X80750Y83600D02*X81900Y83600D01*
X81900Y83600D02*X81900Y82400D01*X79100Y82400D02*X80250Y82400D01*
X80750Y82400D02*X81900Y82400D01*X80750Y83600D02*X80749Y83575D01*
X80746Y83551D01*X80740Y83526D01*X80732Y83503D01*X80722Y83480D01*
X80710Y83459D01*X80695Y83439D01*X80679Y83420D01*X80660Y83403D01*
X80640Y83388D01*X80619Y83375D01*X80597Y83364D01*X80573Y83356D01*
X80549Y83350D01*X80525Y83346D01*X80500Y83345D01*X80475Y83346D01*
X80451Y83350D01*X80427Y83356D01*X80403Y83364D01*X80381Y83375D01*
X80360Y83388D01*X80340Y83403D01*X80321Y83420D01*X80305Y83439D01*
X80290Y83459D01*X80278Y83480D01*X80268Y83503D01*X80260Y83526D01*
X80254Y83551D01*X80251Y83575D01*X80250Y83600D01*X59750Y83775D02*
X59751Y83800D01*X59754Y83824D01*X59760Y83849D01*X59768Y83872D01*
X59778Y83895D01*X59790Y83916D01*X59805Y83936D01*X59821Y83955D01*
X59840Y83972D01*X59860Y83987D01*X59881Y84000D01*X59903Y84011D01*
X59927Y84019D01*X59951Y84025D01*X59975Y84029D01*X60000Y84030D01*
X60025Y84029D01*X60049Y84025D01*X60073Y84019D01*X60097Y84011D01*
X60119Y84000D01*X60140Y83987D01*X60160Y83972D01*X60179Y83955D01*
X60195Y83936D01*X60210Y83916D01*X60222Y83895D01*X60232Y83872D01*
X60240Y83849D01*X60246Y83824D01*X60249Y83800D01*X60250Y83775D01*
X58600Y84975D02*X58600Y83775D01*X58600Y84975D02*X59750Y84975D01*
X60250Y84975D02*X61400Y84975D01*X61400Y84975D02*X61400Y83775D01*
X58600Y83775D02*X59750Y83775D01*X60250Y83775D02*X61400Y83775D01*
X60250Y84975D02*X60249Y84950D01*X60246Y84926D01*X60240Y84901D01*
X60232Y84878D01*X60222Y84855D01*X60210Y84834D01*X60195Y84814D01*
X60179Y84795D01*X60160Y84778D01*X60140Y84763D01*X60119Y84750D01*
X60097Y84739D01*X60073Y84731D01*X60049Y84725D01*X60025Y84721D01*
X60000Y84720D01*X59975Y84721D01*X59951Y84725D01*X59927Y84731D01*
X59903Y84739D01*X59881Y84750D01*X59860Y84763D01*X59840Y84778D01*
X59821Y84795D01*X59805Y84814D01*X59790Y84834D01*X59778Y84855D01*
X59768Y84878D01*X59760Y84901D01*X59754Y84926D01*X59751Y84950D01*
X59750Y84975D01*D02*G54D133*X3750Y24190D03*X3750Y26730D03*
X3750Y29270D03*X3750Y31810D03*X3750Y34350D03*X3750Y41650D03*
X3750Y44190D03*X3750Y46730D03*X3750Y49270D03*X3750Y51810D03*
X3750Y54350D03*X3750Y56890D03*X58000Y81125D03*X58000Y86125D03*
X58000Y91125D03*D02*G54D134*X3750Y21650D03*X3750Y39110D03*
X40000Y81125D03*X40000Y86125D03*X40000Y91125D03*D02*G54D156*
X74000Y3000D03*X74000Y54000D03*D02*G54D163*X15660Y16160D03*
X59160Y16160D03*D02*G54D171*X32020Y88500D03*D02*G54D172*X35980Y88500D03*
D02*G54D179*X49500Y4250D03*X50250Y4250D03*X47500Y3000D03*
X46750Y3000D03*X46000Y5690D03*X46000Y3000D03*X51000Y4250D03*
X51750Y4250D03*X73750Y6000D03*X82250Y6000D03*X84750Y6000D03*
X95750Y6000D03*X100770Y6750D03*X49000Y9500D03*X49000Y12040D03*
X45980Y10375D03*X44000Y8500D03*X44000Y11750D03*X76230Y10000D03*
X89770Y10000D03*X19900Y19000D03*X29500Y18750D03*X28700Y18750D03*
X27900Y18750D03*X46500Y15250D03*X47250Y15250D03*X45000Y14500D03*
X45500Y19500D03*X46500Y19500D03*X48000Y14500D03*X51750Y14750D03*
X77250Y19500D03*X83750Y19500D03*X81250Y19500D03*X89750Y18625D03*
X87250Y19500D03*X93750Y19500D03*X94750Y19500D03*X98250Y19500D03*
X93750Y17350D03*X103250Y19500D03*X104750Y17350D03*X13000Y25000D03*
X13000Y23750D03*X9500Y23750D03*X9500Y25000D03*X13000Y22500D03*
X13000Y21250D03*X9500Y21250D03*X9500Y22500D03*X23900Y21750D03*
X23100Y21750D03*X21500Y21750D03*X22300Y21750D03*X19100Y21750D03*
X18300Y21750D03*X17750Y22800D03*X33375Y24500D03*X35500Y21125D03*
X36500Y23500D03*X36500Y25000D03*X49500Y23000D03*X47750Y21250D03*
X46000Y21250D03*X47750Y22550D03*X44250Y22550D03*X55000Y22250D03*
X55000Y23000D03*X55000Y23750D03*X55750Y23750D03*X55750Y23000D03*
X55750Y22250D03*X56500Y22250D03*X56500Y23000D03*X56500Y23750D03*
X50750Y21500D03*X50750Y24500D03*X66250Y22250D03*X66250Y23000D03*
X66250Y23750D03*X67000Y23750D03*X67000Y23000D03*X67000Y22250D03*
X60750Y23000D03*X62000Y24500D03*X62000Y21500D03*X67750Y22250D03*
X67750Y23000D03*X67750Y23750D03*X80500Y24000D03*X89500Y22095D03*
X92625Y21750D03*X102250Y24250D03*X107750Y24250D03*X13000Y31250D03*
X13000Y30000D03*X13000Y28750D03*X13000Y27500D03*X13000Y26250D03*
X9500Y26250D03*X9500Y27500D03*X9500Y28750D03*X9500Y30000D03*
X9500Y31250D03*X17750Y30800D03*X29750Y30375D03*X32625Y26000D03*
X36500Y29500D03*X46000Y27750D03*X47750Y26450D03*X44250Y26450D03*
X56050Y30250D03*X59000Y28750D03*X59750Y28750D03*X60500Y28750D03*
X61250Y28750D03*X73750Y29750D03*X67300Y30250D03*X72250Y27250D03*
X82250Y29750D03*X77250Y29750D03*X79750Y27250D03*X90250Y27500D03*
X84750Y29750D03*X89770Y30500D03*X86750Y27500D03*X95750Y29750D03*
X93500Y27250D03*X102000Y29750D03*X12000Y34750D03*X9500Y32500D03*
X9500Y33750D03*X21250Y34375D03*X22250Y33875D03*X21750Y33000D03*
X20750Y33000D03*X23750Y32000D03*X22750Y32000D03*X23250Y31375D03*
X31200Y35750D03*X34625Y36875D03*X57250Y31850D03*X68500Y31850D03*
X23100Y37500D03*X24700Y37500D03*X22715Y41750D03*X33375Y38375D03*
X33345Y39875D03*X34615Y39875D03*X35875Y38875D03*X35885Y39875D03*
X37155Y38875D03*X37155Y39875D03*X38425Y38875D03*X38425Y39875D03*
X41000Y37500D03*X45750Y39000D03*X42235Y39875D03*X53750Y42250D03*
X53750Y39625D03*X65000Y39625D03*X65000Y42250D03*X93750Y41100D03*
X104750Y41100D03*X16365Y45000D03*X11285Y45000D03*X21445Y45000D03*
X20175Y45000D03*X18905Y45000D03*X17635Y45000D03*X30805Y43000D03*
X29535Y43000D03*X28265Y43000D03*X26995Y43000D03*X25725Y43000D03*
X81250Y43250D03*X80500Y47750D03*X83750Y43250D03*X87250Y43250D03*
X89500Y45845D03*X92625Y45500D03*X94750Y43250D03*X92250Y43250D03*
X96000Y45500D03*X95000Y48000D03*X98250Y43250D03*X102250Y48000D03*
X103250Y43250D03*X107750Y48000D03*X8500Y50750D03*X8500Y49250D03*
X16365Y51250D03*X15095Y51250D03*X13825Y51250D03*X12555Y51250D03*
X22715Y51250D03*X21445Y51250D03*X20175Y51250D03*X18905Y51250D03*
X17635Y51250D03*X25750Y51000D03*X25725Y52000D03*X43505Y53000D03*
X42235Y53000D03*X42250Y52000D03*X49000Y52000D03*X48000Y53000D03*
X48000Y52000D03*X57750Y53115D03*X60250Y52000D03*X59250Y53000D03*
X59250Y52000D03*X69000Y53115D03*X90250Y51250D03*X86750Y51250D03*
X95000Y51500D03*X18250Y57750D03*X17250Y58750D03*X17250Y57750D03*
X19750Y57750D03*X20750Y57750D03*X20750Y58750D03*X33345Y56125D03*
X32075Y56125D03*X30805Y56125D03*X39695Y56125D03*X38425Y56125D03*
X37155Y56125D03*X35885Y56125D03*X34625Y56125D03*X49000Y55500D03*
X48000Y54500D03*X48000Y55500D03*X57750Y55655D03*X57750Y54385D03*
X60250Y55500D03*X59250Y54500D03*X59250Y55500D03*X65625Y58940D03*
X69250Y58875D03*X70500Y58940D03*X69000Y54385D03*X69000Y55655D03*
X30500Y63500D03*X33000Y63500D03*X49000Y62250D03*X49750Y62250D03*
X49750Y61500D03*X49000Y61500D03*X49000Y60750D03*X49750Y60750D03*
X56625Y64020D03*X56625Y61500D03*X54875Y60500D03*X54875Y65000D03*
X50500Y61500D03*X50500Y62250D03*X50500Y60750D03*X70500Y60210D03*
X70500Y65290D03*X78500Y62750D03*X80250Y65000D03*X78500Y60210D03*
X75500Y65290D03*X6500Y68940D03*X2750Y69000D03*X17095Y67500D03*
X17250Y70500D03*X21750Y69875D03*X18365Y67500D03*X19635Y67500D03*
X29750Y70845D03*X36250Y70125D03*X41000Y66875D03*X49750Y67750D03*
X48500Y66500D03*X42500Y65800D03*X51000Y66500D03*X65625Y66560D03*
X73500Y66560D03*X69250Y66625D03*X80250Y66500D03*X1875Y74000D03*
X1875Y71500D03*X2750Y76500D03*X6500Y76560D03*X15375Y71480D03*
X15375Y74020D03*X24500Y73375D03*X17250Y75000D03*X27750Y72125D03*
X32750Y74655D03*X38000Y71750D03*X36250Y74625D03*X95000Y72500D03*
X95000Y74500D03*X95000Y73500D03*X8250Y81000D03*X10750Y81000D03*
X9500Y78500D03*X15250Y81960D03*X18375Y81960D03*X32250Y81750D03*
X34500Y81750D03*X59500Y80500D03*X60750Y80500D03*X63375Y78875D03*
X65500Y82500D03*X67000Y82500D03*X65500Y80500D03*X67000Y80500D03*
X67000Y79000D03*X65500Y79000D03*X68500Y82500D03*X70000Y82500D03*
X71500Y82500D03*X73000Y82500D03*X74500Y82500D03*X68500Y80500D03*
X70000Y80500D03*X71500Y80500D03*X73000Y80500D03*X74500Y80500D03*
X74500Y79000D03*X73000Y79000D03*X71500Y79000D03*X70000Y79000D03*
X68500Y79000D03*X78500Y79785D03*X95500Y80000D03*X95500Y81000D03*
X94500Y80000D03*X94500Y81000D03*X10750Y87750D03*X11500Y87750D03*
X12250Y87750D03*X13000Y87750D03*X15250Y83230D03*X15250Y84500D03*
X18375Y83230D03*X18375Y84500D03*X33000Y85375D03*X33000Y86125D03*
X56500Y84375D03*X59500Y87405D03*X65500Y88500D03*X67000Y88500D03*
X67000Y87000D03*X65500Y87000D03*X65500Y85500D03*X67000Y85500D03*
X67000Y84000D03*X65500Y84000D03*X68500Y88500D03*X70000Y88500D03*
X71500Y88500D03*X73000Y88500D03*X74500Y88500D03*X74500Y87000D03*
X73000Y87000D03*X71500Y87000D03*X70000Y87000D03*X68500Y87000D03*
X68500Y85500D03*X70000Y85500D03*X71500Y85500D03*X73000Y85500D03*
X74500Y85500D03*X74500Y84000D03*X73000Y84000D03*X71500Y84000D03*
X70000Y84000D03*X68500Y84000D03*X79625Y86135D03*X78125Y86135D03*
X78875Y86135D03*X78125Y87405D03*X90500Y87500D03*X95500Y83000D03*
X95500Y84000D03*X94500Y83000D03*X94500Y84000D03*X93250Y86125D03*
X10750Y90750D03*X10750Y89750D03*X10750Y88750D03*X11500Y88750D03*
X11500Y89750D03*X11500Y90750D03*X12250Y90750D03*X12250Y89750D03*
X12250Y88750D03*X13000Y90750D03*X13000Y89750D03*X13000Y88750D03*
X61500Y91215D03*X59500Y93000D03*X61000Y93000D03*X62500Y93000D03*
X64000Y93000D03*X65500Y93000D03*X67000Y93000D03*X67000Y91500D03*
X65500Y91500D03*X67000Y90000D03*X65500Y90000D03*X68500Y93000D03*
X70000Y93000D03*X71500Y93000D03*X73000Y93000D03*X74500Y93000D03*
X68500Y91500D03*X70000Y91500D03*X71500Y91500D03*X73000Y91500D03*
X74500Y91500D03*X74500Y90000D03*X73000Y90000D03*X71500Y90000D03*
X70000Y90000D03*X68500Y90000D03*X78500Y91215D03*X80500Y93000D03*
X76000Y93000D03*X77500Y93000D03*X79000Y93000D03*X95000Y89500D03*
X95000Y91500D03*X95000Y90500D03*X59500Y99000D03*X59500Y97500D03*
X59500Y96000D03*X59500Y94500D03*X67000Y99000D03*X65500Y99000D03*
X64000Y99000D03*X62500Y99000D03*X61000Y99000D03*X61000Y97500D03*
X62500Y97500D03*X64000Y97500D03*X65500Y97500D03*X67000Y97500D03*
X65500Y96000D03*X67000Y96000D03*X64000Y96000D03*X62500Y96000D03*
X61000Y96000D03*X61000Y94500D03*X62500Y94500D03*X64000Y94500D03*
X65500Y94500D03*X67000Y94500D03*X74500Y99000D03*X73000Y99000D03*
X71500Y99000D03*X70000Y99000D03*X68500Y99000D03*X68500Y97500D03*
X70000Y97500D03*X71500Y97500D03*X73000Y97500D03*X74500Y97500D03*
X74500Y96000D03*X73000Y96000D03*X71500Y96000D03*X68500Y96000D03*
X70000Y96000D03*X68500Y94500D03*X70000Y94500D03*X71500Y94500D03*
X73000Y94500D03*X74500Y94500D03*X80500Y99000D03*X80500Y94500D03*
X80500Y96000D03*X80500Y97500D03*X79000Y99000D03*X77500Y99000D03*
X76000Y99000D03*X76000Y97500D03*X77500Y97500D03*X79000Y97500D03*
X79000Y96000D03*X77500Y96000D03*X76000Y96000D03*X76000Y94500D03*
X77500Y94500D03*X79000Y94500D03*X59500Y102000D03*X59500Y100500D03*
X61000Y102000D03*X62500Y102000D03*X64000Y102000D03*X65500Y102000D03*
X67000Y102000D03*X61000Y100500D03*X62500Y100500D03*X64000Y100500D03*
X65500Y100500D03*X67000Y100500D03*X68500Y102000D03*X70000Y102000D03*
X71500Y102000D03*X73000Y102000D03*X74500Y102000D03*X68500Y100500D03*
X70000Y100500D03*X71500Y100500D03*X73000Y100500D03*X74500Y100500D03*
X80500Y102000D03*X80500Y100500D03*X76000Y102000D03*X79000Y102000D03*
X77500Y102000D03*X76000Y100500D03*X77500Y100500D03*X79000Y100500D03*D02*
G54D180*X5500Y2700D03*X118000Y2700D03*X8300Y5500D03*X7480Y7480D03*
X5500Y8300D03*X3520Y7480D03*X2700Y5500D03*X3520Y3520D03*
X7480Y3520D03*X116020Y7480D03*X115200Y5500D03*X116020Y3520D03*
X120800Y5500D03*X119980Y7480D03*X118000Y8300D03*X119980Y3520D03*
X8300Y98000D03*X7480Y99980D03*X3520Y99980D03*X2700Y98000D03*
X3520Y96020D03*X5500Y95200D03*X7480Y96020D03*X116020Y99980D03*
X115200Y98000D03*X116020Y96020D03*X120800Y98000D03*X119980Y99980D03*
X118000Y95200D03*X119980Y96020D03*X5500Y100800D03*X118000Y100800D03*D02*
G54D181*X43250Y72750D03*D02*G54D182*X45250Y72750D03*D02*G54D183*
X55500Y71000D03*X84500Y71000D03*X55500Y100000D03*X84500Y100000D03*D02*
G54D184*X116000Y16900D03*X116000Y25150D03*X116000Y47375D03*X116000Y55625D03*
X116000Y77855D03*D02*G54D185*X116000Y33400D03*X116000Y63875D03*
X116000Y86105D03*D02*G54D187*X60750Y83000D03*X60750Y81500D03*D02*G54D189*
X79750Y83000D03*X81250Y83000D03*X59250Y84375D03*X60750Y84375D03*D02*
G54D217*X63375Y79785D03*X63375Y81055D03*X63375Y82325D03*X76625Y82325D03*
X76625Y81055D03*X76625Y79785D03*X63375Y83595D03*X63375Y84865D03*
X63375Y86135D03*X63375Y87405D03*X63375Y88675D03*X76625Y88675D03*
X76625Y87405D03*X76625Y86135D03*X76625Y84865D03*X76625Y83595D03*
X63375Y89945D03*X63375Y91215D03*X76625Y91215D03*X76625Y89945D03*D02*
G54D225*X111000Y95500D03*X111000Y5500D03*X5500Y12000D03*D02*G54D226*
X76540Y3000D03*X79080Y3000D03*X81620Y3000D03*X84160Y3000D03*
X86700Y3000D03*X89240Y3000D03*X91780Y3000D03*X76540Y54000D03*
X79080Y54000D03*X81620Y54000D03*X84160Y54000D03*X86700Y54000D03*
X89240Y54000D03*X91780Y54000D03*D02*G54D227*X15660Y6000D03*
X15660Y8540D03*X18200Y6000D03*X18200Y8540D03*X59160Y6000D03*
X59160Y8540D03*X61700Y6000D03*X61700Y8540D03*X15660Y11080D03*
X15660Y13620D03*X18200Y11080D03*X18200Y13620D03*X59160Y11080D03*
X59160Y13620D03*X61700Y11080D03*X61700Y13620D03*X18200Y16160D03*
X61700Y16160D03*X60750Y19750D03*X63500Y19750D03*X33500Y30000D03*
X33500Y32250D03*X81500Y58750D03*X84250Y58750D03*X52500Y64750D03*
X52500Y61500D03*X30250Y83250D03*X44500Y99500D03*
G36*X78700Y91615D02*X78700Y90815D01*X77700Y91215D01*X78700Y91615D01*G37*
G36*X35171Y121346D02*X35171Y121408D01*X36282Y121408D01*X36282Y121346D01*
X36344Y121346D01*X36344Y121285D01*X36467Y121285D01*X36467Y121223D01*
X36529Y121223D01*X36529Y121161D01*X36591Y121161D01*X36591Y121099D01*
X36652Y121099D01*X36652Y121038D01*X36714Y121038D01*X36714Y120976D01*
X36776Y120976D01*X36776Y120914D01*X36837Y120914D01*X36837Y120853D01*
X36899Y120853D01*X36899Y120791D01*X36961Y120791D01*X36961Y120729D01*
X37084Y120729D01*X37084Y120667D01*X37146Y120667D01*X37146Y120606D01*
X37208Y120606D01*X37208Y120544D01*X37270Y120544D01*X37270Y120482D01*
X37331Y120482D01*X37331Y120421D01*X37455Y120421D01*X37455Y120482D01*
X37578Y120482D01*X37578Y120544D01*X37702Y120544D01*X37702Y120606D01*
X37763Y120606D01*X37763Y120667D01*X37887Y120667D01*X37887Y120729D01*
X37948Y120729D01*X37948Y120791D01*X38072Y120791D01*X38072Y120853D01*
X38195Y120853D01*X38195Y120914D01*X38257Y120914D01*X38257Y120976D01*
X38381Y120976D01*X38381Y121038D01*X38442Y121038D01*X38442Y121099D01*
X38566Y121099D01*X38566Y121161D01*X38627Y121161D01*X38627Y121223D01*
X38751Y121223D01*X38751Y121285D01*X38813Y121285D01*X38813Y121346D01*
X38936Y121346D01*X38936Y121408D01*X40232Y121408D01*X40232Y121346D01*
X40109Y121346D01*X40109Y121285D01*X40047Y121285D01*X40047Y121223D01*
X39924Y121223D01*X39924Y121161D01*X39862Y121161D01*X39862Y121099D01*
X39738Y121099D01*X39738Y121038D01*X39677Y121038D01*X39677Y120976D01*
X39553Y120976D01*X39553Y120914D01*X39492Y120914D01*X39492Y120853D01*
X39368Y120853D01*X39368Y120791D01*X39306Y120791D01*X39306Y120729D01*
X39183Y120729D01*X39183Y120667D01*X39121Y120667D01*X39121Y120606D01*
X38998Y120606D01*X38998Y120544D01*X38936Y120544D01*X38936Y120482D01*
X38813Y120482D01*X38813Y120421D01*X38751Y120421D01*X38751Y120359D01*
X38627Y120359D01*X38627Y120297D01*X38566Y120297D01*X38566Y120235D01*
X38442Y120235D01*X38442Y120174D01*X38381Y120174D01*X38381Y120112D01*
X38257Y120112D01*X38257Y120050D01*X38195Y120050D01*X38195Y119988D01*
X38072Y119988D01*X38072Y119865D01*X36714Y119865D01*X36714Y120050D01*
X36652Y120050D01*X36652Y120112D01*X36529Y120112D01*X36529Y120174D01*
X36467Y120174D01*X36467Y120235D01*X36405Y120235D01*X36405Y120297D01*
X36344Y120297D01*X36344Y120359D01*X36282Y120359D01*X36282Y120421D01*
X36220Y120421D01*X36220Y120482D01*X36159Y120482D01*X36159Y120544D01*
X36097Y120544D01*X36097Y120606D01*X35973Y120606D01*X35973Y120667D01*
X35912Y120667D01*X35912Y120729D01*X35850Y120729D01*X35850Y120791D01*
X35788Y120791D01*X35788Y120853D01*X35726Y120853D01*X35726Y120914D01*
X35665Y120914D01*X35665Y120976D01*X35603Y120976D01*X35603Y121038D01*
X35480Y121038D01*X35480Y121099D01*X35418Y121099D01*X35418Y121161D01*
X35356Y121161D01*X35356Y121223D01*X35294Y121223D01*X35294Y121285D01*
X35233Y121285D01*X35233Y121346D01*X35171Y121346D01*G37*G36*X35356Y119001D02*
X35356Y119063D01*X35480Y119063D01*X35480Y119124D01*X35541Y119124D01*
X35541Y119186D01*X35665Y119186D01*X35665Y119248D01*X35788Y119248D01*
X35788Y119310D01*X35850Y119310D01*X35850Y119371D01*X35973Y119371D01*
X35973Y119433D01*X36035Y119433D01*X36035Y119495D01*X36097Y119495D01*
X36097Y119556D01*X36220Y119556D01*X36220Y119618D01*X36344Y119618D01*
X36344Y119680D01*X36405Y119680D01*X36405Y119742D01*X36529Y119742D01*
X36529Y119803D01*X36591Y119803D01*X36591Y119865D01*X38134Y119865D01*
X38134Y119803D01*X38195Y119803D01*X38195Y119742D01*X38319Y119742D01*
X38319Y119680D01*X38381Y119680D01*X38381Y119618D01*X38442Y119618D01*
X38442Y119556D01*X38504Y119556D01*X38504Y119495D01*X38627Y119495D01*
X38627Y119433D01*X38689Y119433D01*X38689Y119371D01*X38751Y119371D01*
X38751Y119310D01*X38813Y119310D01*X38813Y119248D01*X38936Y119248D01*
X38936Y119186D01*X38998Y119186D01*X38998Y119124D01*X39059Y119124D01*
X39059Y119063D01*X39121Y119063D01*X39121Y119001D01*X39245Y119001D01*
X39245Y118939D01*X39306Y118939D01*X39306Y118877D01*X39368Y118877D01*
X39368Y118816D01*X39430Y118816D01*X39430Y118754D01*X39492Y118754D01*
X39492Y118692D01*X39615Y118692D01*X39615Y118631D01*X39677Y118631D01*
X39677Y118569D01*X39738Y118569D01*X39738Y118507D01*X39800Y118507D01*
X39800Y118445D01*X38504Y118445D01*X38504Y118507D01*X38381Y118507D01*
X38381Y118569D01*X38319Y118569D01*X38319Y118631D01*X38257Y118631D01*
X38257Y118692D01*X38195Y118692D01*X38195Y118754D01*X38134Y118754D01*
X38134Y118816D01*X38072Y118816D01*X38072Y118877D01*X37948Y118877D01*
X37948Y118939D01*X37887Y118939D01*X37887Y119001D01*X37825Y119001D01*
X37825Y119063D01*X37763Y119063D01*X37763Y119124D01*X37702Y119124D01*
X37702Y119186D01*X37640Y119186D01*X37640Y119248D01*X37516Y119248D01*
X37516Y119310D01*X37455Y119310D01*X37455Y119371D01*X37393Y119371D01*
X37393Y119433D01*X37270Y119433D01*X37270Y119371D01*X37146Y119371D01*
X37146Y119310D01*X37084Y119310D01*X37084Y119248D01*X36961Y119248D01*
X36961Y119186D01*X36837Y119186D01*X36837Y119124D01*X36776Y119124D01*
X36776Y119063D01*X36652Y119063D01*X36652Y119001D01*X35356Y119001D01*G37*G36*
X30295Y122704D02*X30357Y122704D01*X30357Y122643D01*X30480Y122643D01*
X30480Y122581D01*X30604Y122581D01*X30604Y122643D01*X30727Y122643D01*
X30727Y122704D01*X30850Y122704D01*X30850Y122766D01*X30974Y122766D01*
X30974Y122828D01*X31036Y122828D01*X31036Y122889D01*X31097Y122889D01*
X31097Y122951D01*X31159Y122951D01*X31159Y123013D01*X31221Y123013D01*
X31221Y123075D01*X31282Y123075D01*X31282Y123198D01*X31344Y123198D01*
X31344Y123260D01*X31406Y123260D01*X31406Y123383D01*X31468Y123383D01*
X31468Y123630D01*X31529Y123630D01*X31529Y124124D01*X31468Y124124D01*
X31468Y124309D01*X31036Y124309D01*X31036Y124186D01*X31097Y124186D01*
X31097Y123568D01*X31036Y123568D01*X31036Y123445D01*X30974Y123445D01*
X30974Y123321D01*X30912Y123321D01*X30912Y123260D01*X30850Y123260D01*
X30850Y123198D01*X30789Y123198D01*X30789Y123136D01*X30665Y123136D01*
X30665Y123075D01*X30542Y123075D01*X30542Y123013D01*X30418Y123013D01*
X30418Y122951D01*X30357Y122951D01*X30357Y122889D01*X30295Y122889D01*
X30295Y122704D01*G37*G36*X28999Y124371D02*X29493Y124371D01*X29493Y124432D01*
X29554Y124432D01*X29554Y124556D01*X29616Y124556D01*X29616Y124618D01*
X29739Y124618D01*X29739Y124679D01*X29863Y124679D01*X29863Y124741D01*
X30110Y124741D01*X30110Y124803D01*X30357Y124803D01*X30357Y124741D01*
X30604Y124741D01*X30604Y124679D01*X30665Y124679D01*X30665Y124618D01*
X30789Y124618D01*X30789Y124556D01*X30850Y124556D01*X30850Y124494D01*
X30912Y124494D01*X30912Y124432D01*X30974Y124432D01*X30974Y124309D01*
X31468Y124309D01*X31468Y124371D01*X31406Y124371D01*X31406Y124494D01*
X31344Y124494D01*X31344Y124618D01*X31282Y124618D01*X31282Y124679D01*
X31221Y124679D01*X31221Y124741D01*X31159Y124741D01*X31159Y124803D01*
X31097Y124803D01*X31097Y124865D01*X31036Y124865D01*X31036Y124926D01*
X30974Y124926D01*X30974Y124988D01*X30850Y124988D01*X30850Y125050D01*
X30727Y125050D01*X30727Y125111D01*X30542Y125111D01*X30542Y125173D01*
X29863Y125173D01*X29863Y125111D01*X29678Y125111D01*X29678Y125050D01*
X29554Y125050D01*X29554Y124988D01*X29493Y124988D01*X29493Y124926D01*
X29369Y124926D01*X29369Y124865D01*X29307Y124865D01*X29307Y124803D01*
X29246Y124803D01*X29246Y124741D01*X29184Y124741D01*X29184Y124618D01*
X29122Y124618D01*X29122Y124556D01*X29060Y124556D01*X29060Y124432D01*
X28999Y124432D01*X28999Y124371D01*G37*G36*X28875Y123754D02*X28937Y123754D01*
X28937Y123507D01*X28999Y123507D01*X28999Y123321D01*X29060Y123321D01*
X29060Y123198D01*X29122Y123198D01*X29122Y123136D01*X29184Y123136D01*
X29184Y123013D01*X29246Y123013D01*X29246Y122951D01*X29369Y122951D01*
X29369Y122889D01*X29616Y122889D01*X29616Y122951D01*X29678Y122951D01*
X29678Y123198D01*X29616Y123198D01*X29616Y123260D01*X29554Y123260D01*
X29554Y123321D01*X29493Y123321D01*X29493Y123383D01*X29431Y123383D01*
X29431Y123507D01*X29369Y123507D01*X29369Y123692D01*X29307Y123692D01*
X29307Y124062D01*X29369Y124062D01*X29369Y124247D01*X29431Y124247D01*
X29431Y124371D01*X28999Y124371D01*X28999Y124309D01*X28937Y124309D01*
X28937Y124000D01*X28875Y124000D01*X28875Y123754D01*G37*G36*X26592Y120791D02*
X26653Y120791D01*X26653Y120667D01*X26715Y120667D01*X26715Y120606D01*
X26777Y120606D01*X26777Y120482D01*X26838Y120482D01*X26838Y120359D01*
X26900Y120359D01*X26900Y120235D01*X26962Y120235D01*X26962Y120112D01*
X27024Y120112D01*X27024Y119988D01*X27085Y119988D01*X27085Y119927D01*
X27147Y119927D01*X27147Y119803D01*X27209Y119803D01*X27209Y119680D01*
X27271Y119680D01*X27271Y119556D01*X27332Y119556D01*X27332Y119433D01*
X27394Y119433D01*X27394Y119310D01*X27456Y119310D01*X27456Y119248D01*
X27517Y119248D01*X27517Y119124D01*X27579Y119124D01*X27579Y119001D01*
X27641Y119001D01*X27641Y118877D01*X27703Y118877D01*X27703Y118754D01*
X27764Y118754D01*X27764Y118692D01*X27826Y118692D01*X27826Y118569D01*
X27888Y118569D01*X27888Y118445D01*X29307Y118445D01*X29307Y118631D01*
X29369Y118631D01*X29369Y119001D01*X29431Y119001D01*X29431Y119310D01*
X29493Y119310D01*X29493Y119680D01*X29554Y119680D01*X29554Y120050D01*
X29616Y120050D01*X29616Y120359D01*X29678Y120359D01*X29678Y120729D01*
X29739Y120729D01*X29739Y121038D01*X29801Y121038D01*X29801Y121408D01*
X29863Y121408D01*X29863Y121778D01*X29925Y121778D01*X29925Y122149D01*
X29986Y122149D01*X29986Y122457D01*X30048Y122457D01*X30048Y122828D01*
X30110Y122828D01*X30110Y123198D01*X30171Y123198D01*X30171Y123507D01*
X30233Y123507D01*X30233Y123754D01*X30171Y123754D01*X30171Y123630D01*
X30110Y123630D01*X30110Y123445D01*X30048Y123445D01*X30048Y123321D01*
X29986Y123321D01*X29986Y123198D01*X29925Y123198D01*X29925Y123075D01*
X29863Y123075D01*X29863Y122951D01*X29801Y122951D01*X29801Y122828D01*
X29739Y122828D01*X29739Y122704D01*X29678Y122704D01*X29678Y122581D01*
X29616Y122581D01*X29616Y122457D01*X29554Y122457D01*X29554Y122334D01*
X29493Y122334D01*X29493Y122210D01*X29431Y122210D01*X29431Y122025D01*
X29369Y122025D01*X29369Y121902D01*X29307Y121902D01*X29307Y121778D01*
X29246Y121778D01*X29246Y121655D01*X29184Y121655D01*X29184Y121532D01*
X29122Y121532D01*X29122Y121408D01*X29060Y121408D01*X29060Y121285D01*
X28999Y121285D01*X28999Y121161D01*X28937Y121161D01*X28937Y121038D01*
X28875Y121038D01*X28875Y120914D01*X28814Y120914D01*X28814Y120791D01*
X28752Y120791D01*X28752Y120606D01*X28690Y120606D01*X28690Y120482D01*
X28628Y120482D01*X28628Y120359D01*X28567Y120359D01*X28567Y120235D01*
X28505Y120235D01*X28505Y120112D01*X28443Y120112D01*X28443Y119988D01*
X28382Y119988D01*X28382Y119865D01*X28320Y119865D01*X28320Y119742D01*
X28196Y119742D01*X28196Y119803D01*X28135Y119803D01*X28135Y119927D01*
X28073Y119927D01*X28073Y120050D01*X28011Y120050D01*X28011Y120174D01*
X27949Y120174D01*X27949Y120297D01*X27888Y120297D01*X27888Y120359D01*
X27826Y120359D01*X27826Y120482D01*X27764Y120482D01*X27764Y120606D01*
X27703Y120606D01*X27703Y120729D01*X27641Y120729D01*X27641Y120853D01*
X26592Y120853D01*X26592Y120791D01*G37*G36*X24863Y121408D02*X24863Y121470D01*
X24925Y121470D01*X24925Y121840D01*X24987Y121840D01*X24987Y122210D01*
X25049Y122210D01*X25049Y122581D01*X25110Y122581D01*X25110Y122828D01*
X26530Y122828D01*X26530Y122766D01*X26592Y122766D01*X26592Y122643D01*
X26653Y122643D01*X26653Y122519D01*X26715Y122519D01*X26715Y122396D01*
X26777Y122396D01*X26777Y122334D01*X26838Y122334D01*X26838Y122210D01*
X26900Y122210D01*X26900Y122087D01*X26962Y122087D01*X26962Y121964D01*
X27024Y121964D01*X27024Y121840D01*X27085Y121840D01*X27085Y121717D01*
X27147Y121717D01*X27147Y121655D01*X27209Y121655D01*X27209Y121532D01*
X27271Y121532D01*X27271Y121408D01*X27332Y121408D01*X27332Y121285D01*
X27394Y121285D01*X27394Y121161D01*X27456Y121161D01*X27456Y121038D01*
X27517Y121038D01*X27517Y120976D01*X27579Y120976D01*X27579Y120853D01*
X26592Y120853D01*X26592Y120914D01*X26530Y120914D01*X26530Y121038D01*
X26468Y121038D01*X26468Y121161D01*X26406Y121161D01*X26406Y121285D01*
X26345Y121285D01*X26345Y121346D01*X26283Y121346D01*X26283Y121470D01*
X26221Y121470D01*X26221Y121593D01*X26160Y121593D01*X26160Y121532D01*
X26098Y121532D01*X26098Y121408D01*X24863Y121408D01*G37*G36*X24123Y117249D02*
X24123Y117311D01*X24184Y117311D01*X24184Y117249D01*X24123Y117249D01*G37*G36*
X20851Y119001D02*X20851Y119124D01*X20913Y119124D01*X20913Y119433D01*
X20975Y119433D01*X20975Y119742D01*X21037Y119742D01*X21037Y120050D01*
X21098Y120050D01*X21098Y120359D01*X21160Y120359D01*X21160Y120667D01*
X21222Y120667D01*X21222Y120976D01*X21284Y120976D01*X21284Y121099D01*
X21345Y121099D01*X21345Y121161D01*X21407Y121161D01*X21407Y121223D01*
X21469Y121223D01*X21469Y121285D01*X21592Y121285D01*X21592Y121346D01*
X21839Y121346D01*X21839Y121408D01*X26036Y121408D01*X26036Y121285D01*
X25974Y121285D01*X25974Y121099D01*X25913Y121099D01*X25913Y120976D01*
X25851Y120976D01*X25851Y120853D01*X25789Y120853D01*X25789Y120729D01*
X25727Y120729D01*X25727Y120544D01*X25666Y120544D01*X25666Y120421D01*
X25604Y120421D01*X25604Y120297D01*X25542Y120297D01*X25542Y120174D01*
X25481Y120174D01*X25481Y119988D01*X25419Y119988D01*X25419Y119865D01*
X25357Y119865D01*X25357Y119742D01*X25295Y119742D01*X25295Y119618D01*
X25234Y119618D01*X25234Y119495D01*X25172Y119495D01*X25172Y119310D01*
X25110Y119310D01*X25110Y119186D01*X25049Y119186D01*X25049Y119063D01*
X24987Y119063D01*X24987Y118939D01*X24925Y118939D01*X24925Y118754D01*
X24863Y118754D01*X24863Y118631D01*X24802Y118631D01*X24802Y118507D01*
X24740Y118507D01*X24740Y118384D01*X24678Y118384D01*X24678Y118199D01*
X24617Y118199D01*X24617Y118075D01*X24555Y118075D01*X24555Y117952D01*
X24493Y117952D01*X24493Y117828D01*X24431Y117828D01*X24431Y117643D01*
X24370Y117643D01*X24370Y117520D01*X24308Y117520D01*X24308Y117396D01*
X24246Y117396D01*X24246Y117273D01*X24184Y117273D01*X24184Y117520D01*
X24246Y117520D01*X24246Y117890D01*X24308Y117890D01*X24308Y118260D01*
X24370Y118260D01*X24370Y118569D01*X24431Y118569D01*X24431Y118939D01*
X24493Y118939D01*X24493Y119310D01*X24555Y119310D01*X24555Y119680D01*
X24617Y119680D01*X24617Y120050D01*X24678Y120050D01*X24678Y120421D01*
X24740Y120421D01*X24740Y120729D01*X24802Y120729D01*X24802Y120853D01*
X22703Y120853D01*X22703Y120791D01*X22580Y120791D01*X22580Y120729D01*
X22518Y120729D01*X22518Y120667D01*X22456Y120667D01*X22456Y120421D01*
X22395Y120421D01*X22395Y120112D01*X22333Y120112D01*X22333Y119803D01*
X22271Y119803D01*X22271Y119495D01*X22209Y119495D01*X22209Y119186D01*
X22148Y119186D01*X22148Y119001D01*X20851Y119001D01*
G37*G36*X15605Y118877D02*
X15605Y119248D01*X15667Y119248D01*X15667Y119618D01*X15729Y119618D01*
X15729Y119680D01*X16963Y119680D01*X16963Y119433D01*X16901Y119433D01*
X16901Y119124D01*X17025Y119124D01*X17025Y119063D01*X17210Y119063D01*
X17210Y119001D01*X22148Y119001D01*X22148Y118877D01*X22086Y118877D01*
X22086Y118507D01*X22024Y118507D01*X22024Y118445D01*X16716Y118445D01*
X16716Y118507D01*X16222Y118507D01*X16222Y118569D01*X16037Y118569D01*
X16037Y118631D01*X15852Y118631D01*X15852Y118692D01*X15790Y118692D01*
X15790Y118754D01*X15729Y118754D01*X15729Y118816D01*X15667Y118816D01*
X15667Y118877D01*X15605Y118877D01*G37*G36*X15729Y119680D02*X15729Y119927D01*
X15790Y119927D01*X15790Y120235D01*X15852Y120235D01*X15852Y120606D01*
X15914Y120606D01*X15914Y120914D01*X15975Y120914D01*X15975Y121099D01*
X16037Y121099D01*X16037Y121161D01*X16099Y121161D01*X16099Y121223D01*
X16161Y121223D01*X16161Y121285D01*X16284Y121285D01*X16284Y121346D01*
X16531Y121346D01*X16531Y121408D01*X20543Y121408D01*X20543Y121346D01*
X20666Y121346D01*X20666Y121285D01*X20728Y121285D01*X20728Y121223D01*
X20790Y121223D01*X20790Y120544D01*X20728Y120544D01*X20728Y120235D01*
X19494Y120235D01*X19494Y120482D01*X19555Y120482D01*X19555Y120791D01*
X19494Y120791D01*X19494Y120853D01*X17395Y120853D01*X17395Y120791D01*
X17272Y120791D01*X17272Y120729D01*X17210Y120729D01*X17210Y120667D01*
X17148Y120667D01*X17148Y120482D01*X17086Y120482D01*X17086Y120297D01*
X17025Y120297D01*X17025Y120235D01*X20728Y120235D01*X20728Y120112D01*
X20666Y120112D01*X20666Y119927D01*X20605Y119927D01*X20605Y119803D01*
X20481Y119803D01*X20481Y119742D01*X20419Y119742D01*X20419Y119680D01*
X15729Y119680D01*G37*G36*X12334Y119001D02*X12334Y119371D01*X12396Y119371D01*
X12396Y119680D01*X12457Y119680D01*X12457Y120050D01*X12519Y120050D01*
X12519Y120359D01*X12581Y120359D01*X12581Y120667D01*X12642Y120667D01*
X12642Y121038D01*X12704Y121038D01*X12704Y121346D01*X12766Y121346D01*
X12766Y121655D01*X12828Y121655D01*X12828Y122025D01*X12889Y122025D01*
X12889Y122334D01*X12951Y122334D01*X12951Y122581D01*X14309Y122581D01*
X14309Y122519D01*X14247Y122519D01*X14247Y122210D01*X14185Y122210D01*
X14185Y121964D01*X14124Y121964D01*X14124Y121655D01*X14062Y121655D01*
X14062Y121408D01*X15667Y121408D01*X15667Y121285D01*X15605Y121285D01*
X15605Y120914D01*X15543Y120914D01*X15543Y120853D01*X13939Y120853D01*
X13939Y120667D01*X13877Y120667D01*X13877Y120421D01*X13815Y120421D01*
X13815Y120112D01*X13753Y120112D01*X13753Y119803D01*X13692Y119803D01*
X13692Y119556D01*X13630Y119556D01*X13630Y119124D01*X13692Y119124D01*
X13692Y119063D01*X13815Y119063D01*X13815Y119001D01*X15358Y119001D01*
X15358Y118631D01*X15296Y118631D01*X15296Y118445D01*X13753Y118445D01*
X13753Y118507D01*X13074Y118507D01*X13074Y118569D01*X12889Y118569D01*
X12889Y118631D01*X12704Y118631D01*X12704Y118692D01*X12642Y118692D01*
X12642Y118754D01*X12519Y118754D01*X12519Y118816D01*X12457Y118816D01*
X12457Y118877D01*X12396Y118877D01*X12396Y119001D01*X12334Y119001D01*G37*G36*
X6964Y118507D02*X6964Y118692D01*X7026Y118692D01*X7026Y119001D01*
X7087Y119001D01*X7087Y119310D01*X7149Y119310D01*X7149Y119680D01*
X7211Y119680D01*X7211Y119927D01*X7273Y119927D01*X7273Y120297D01*
X7334Y120297D01*X7334Y120606D01*X7396Y120606D01*X7396Y120914D01*
X7458Y120914D01*X7458Y121161D01*X7520Y121161D01*X7520Y121408D01*
X11099Y121408D01*X11099Y121346D01*X11470Y121346D01*X11470Y121285D01*
X11655Y121285D01*X11655Y121223D01*X11840Y121223D01*X11840Y121161D01*
X11963Y121161D01*X11963Y121099D01*X12025Y121099D01*X12025Y121038D01*
X12149Y121038D01*X12149Y120914D01*X12210Y120914D01*X12210Y120482D01*
X12149Y120482D01*X12149Y120112D01*X12087Y120112D01*X12087Y119680D01*
X12025Y119680D01*X12025Y119310D01*X11963Y119310D01*X11963Y118939D01*
X11902Y118939D01*X11902Y118507D01*X10544Y118507D01*X10544Y118631D01*
X10606Y118631D01*X10606Y118939D01*X10667Y118939D01*X10667Y119371D01*
X10729Y119371D01*X10729Y119680D01*X10791Y119680D01*X10791Y120050D01*
X10852Y120050D01*X10852Y120359D01*X10914Y120359D01*X10914Y120729D01*
X10852Y120729D01*X10852Y120791D01*X10729Y120791D01*X10729Y120853D01*
X8692Y120853D01*X8692Y120791D01*X8631Y120791D01*X8631Y120421D01*
X8569Y120421D01*X8569Y120112D01*X8507Y120112D01*X8507Y119803D01*
X8445Y119803D01*X8445Y119433D01*X8384Y119433D01*X8384Y119186D01*
X8322Y119186D01*X8322Y118816D01*X8260Y118816D01*X8260Y118507D01*
X6964Y118507D01*G37*G36*X5051Y118445D02*X6470Y118445D01*X6470Y118569D01*
X6532Y118569D01*X6532Y118877D01*X6594Y118877D01*X6594Y119186D01*
X6655Y119186D01*X6655Y119495D01*X6717Y119495D01*X6717Y119803D01*
X6779Y119803D01*X6779Y120174D01*X6841Y120174D01*X6841Y120482D01*
X6902Y120482D01*X6902Y120791D01*X6964Y120791D01*X6964Y121099D01*
X7026Y121099D01*X7026Y121408D01*X7087Y121408D01*X7087Y121717D01*
X7149Y121717D01*X7149Y122087D01*X7211Y122087D01*X7211Y122396D01*
X7273Y122396D01*X7273Y122704D01*X7334Y122704D01*X7334Y123013D01*
X7396Y123013D01*X7396Y123136D01*X5915Y123136D01*X5915Y123136D01*
X5915Y122889D01*X5853Y122889D01*X5853Y122581D01*X5791Y122581D01*
X5791Y122272D01*X5730Y122272D01*X5730Y121902D01*X5668Y121902D01*
X5668Y121593D01*X5606Y121593D01*X5606Y121285D01*X5544Y121285D01*
X5544Y120976D01*X5483Y120976D01*X5483Y120667D01*X5421Y120667D01*
X5421Y120297D01*X5359Y120297D01*X5359Y119988D01*X5298Y119988D01*
X5298Y119680D01*X5236Y119680D01*X5236Y119371D01*X5174Y119371D01*
X5174Y119063D01*X5112Y119063D01*X5112Y118692D01*X5051Y118692D01*
X5051Y118445D01*G37*G36*X-6800Y120027D02*X-6738Y120027D01*
X-6738Y119842D01*X-6677Y119842D01*X-6677Y119718D01*X-6615Y119718D01*
X-6615Y119595D01*X-6553Y119595D01*X-6553Y119471D01*X-6491Y119471D01*
X-6491Y119409D01*X-6430Y119409D01*X-6430Y119286D01*X-6368Y119286D01*
X-6368Y119224D01*X-6306Y119224D01*X-6306Y119163D01*X-6245Y119163D01*
X-6245Y119101D01*X-6183Y119101D01*X-6183Y119039D01*X-6121Y119039D01*
X-6121Y118977D01*X-6059Y118977D01*X-6059Y118916D01*X-5936Y118916D01*
X-5936Y118854D01*X-5874Y118854D01*X-5874Y118792D01*X-5813Y118792D01*
X-5813Y118730D01*X-5689Y118730D01*X-5689Y118669D01*X-5627Y118669D01*
X-5627Y118607D01*X-5504Y118607D01*X-5504Y118545D01*X-5442Y118545D01*
X-5442Y118484D01*X-5319Y118484D01*X-5319Y118422D01*X-5257Y118422D01*
X-5257Y118360D01*X-5133Y118360D01*X-5133Y118298D01*X-5011Y118298D01*
X-5011Y118237D01*X-4886Y118237D01*X-4886Y118175D01*X-4764Y118175D01*
X-4764Y118113D01*X-4640Y118113D01*X-4640Y118051D01*X-4517Y118051D01*
X-4517Y117989D01*X-4394Y117989D01*X-4394Y117928D01*X-4270Y117928D01*
X-4270Y117866D01*X-4146Y117866D01*X-4146Y117805D01*X-3962Y117805D01*
X-3962Y117742D01*X-3899Y117742D01*X-3899Y117681D01*X-3713Y117681D01*
X-3713Y117619D01*X-3590Y117619D01*X-3590Y117558D01*X-3467Y117558D01*
X-3467Y117496D01*X-3344Y117496D01*X-3344Y117434D01*X-3219Y117434D01*
X-3219Y117558D01*X-3281Y117558D01*X-3281Y118239D01*X-3219Y118239D01*
X-3219Y118482D01*X-3159Y118482D01*X-3159Y118670D01*X-3096Y118670D01*
X-3096Y118855D01*X-3035Y118855D01*X-3035Y118977D01*X-2971Y118977D01*
X-2971Y119162D01*X-2910Y119162D01*X-2910Y119286D01*X-2850Y119286D01*
X-2850Y119347D01*X-2786Y119347D01*X-2786Y119472D01*X-2726Y119472D01*
X-2726Y119595D01*X-2664Y119595D01*X-2664Y119718D01*X-2602Y119718D01*
X-2602Y119842D01*X-2539Y119842D01*X-2539Y119904D01*X-2480Y119904D01*
X-2480Y120027D01*X-2420Y120027D01*X-2420Y120089D01*X-2354Y120089D01*
X-2354Y120211D01*X-2294Y120211D01*X-2294Y120274D01*X-2233Y120274D01*
X-2233Y120398D01*X-2170Y120398D01*X-2170Y120459D01*X-2109Y120459D01*
X-2109Y120582D01*X-2049Y120582D01*X-2049Y120705D01*X-1987Y120705D01*
X-1987Y120768D01*X-1923Y120768D01*X-1923Y120890D01*X-1862Y120890D01*
X-1862Y120952D01*X-1799Y120952D01*X-1799Y121075D01*X-1738Y121075D01*
X-1738Y121137D01*X-1676Y121137D01*X-1676Y121260D01*X-1616Y121260D01*
X-1616Y121386D01*X-1554Y121386D01*X-1554Y121446D01*X-1491Y121446D01*
X-1491Y121570D01*X-1431Y121570D01*X-1431Y121694D01*X-1367Y121694D01*
X-1367Y121816D01*X-1306Y121816D01*X-1306Y121879D01*X-3034Y121879D01*
X-3034Y121817D01*X-3097Y121817D01*X-3097Y121878D01*X-3158Y121878D01*
X-3158Y121816D01*X-3651Y121816D01*X-3651Y121756D01*X-4081Y121756D01*
X-4081Y121694D01*X-4330Y121694D01*X-4330Y121633D01*X-4579Y121633D01*
X-4579Y121571D01*X-4762Y121571D01*X-4762Y121507D01*X-4886Y121507D01*
X-4886Y121449D01*X-5074Y121449D01*X-5074Y121383D01*X-5195Y121383D01*
X-5195Y121323D01*X-5320Y121323D01*X-5320Y121261D01*X-5382Y121261D01*
X-5382Y121200D01*X-5504Y121200D01*X-5504Y121138D01*X-5569Y121138D01*
X-5569Y121076D01*X-5627Y121076D01*X-5627Y121016D01*X-5690Y121016D01*
X-5690Y120954D01*X-5749Y120954D01*X-5749Y120891D01*X-5812Y120891D01*
X-5812Y121013D01*X-5749Y121013D01*X-5749Y121075D01*X-5687Y121075D01*
X-5687Y121200D01*X-5628Y121200D01*X-5628Y121261D01*X-5567Y121261D01*
X-5567Y121324D01*X-5505Y121324D01*X-5505Y121386D01*X-5441Y121386D01*
X-5441Y121446D01*X-5380Y121446D01*X-5380Y121509D01*X-5317Y121509D01*
X-5317Y121568D01*X-5195Y121568D01*X-5195Y121630D01*X-5133Y121630D01*
X-5133Y121693D01*X-5073Y121693D01*X-5073Y121753D01*X-4948Y121753D01*
X-4948Y121815D01*X-4885Y121815D01*X-4885Y121878D01*X-4762Y121878D01*
X-4762Y121939D01*X-4640Y121939D01*X-4640Y122002D01*X-4516Y122002D01*
X-4516Y122063D01*X-4329Y122063D01*X-4329Y122126D01*X-4207Y122126D01*
X-4207Y122187D01*X-4022Y122187D01*X-4022Y122250D01*X-3835Y122250D01*
X-3835Y122310D01*X-3650Y122310D01*X-3650Y122372D01*X-3404Y122372D01*
X-3404Y122432D01*X-3157Y122432D01*X-3157Y122494D01*X-2851Y122494D01*
X-2851Y122557D01*X-2479Y122557D01*X-2479Y122618D01*X-1925Y122618D01*
X-1925Y122679D01*X-318Y122679D01*X-318Y122742D01*X173Y122742D01*
X173Y122803D01*X423Y122803D01*X423Y122866D01*X607Y122866D01*
X607Y122928D01*X794Y122928D01*X794Y122989D01*X1162Y122989D01*
X1162Y122927D01*X1224Y122927D01*X1224Y122866D01*X1285Y122866D01*
X1285Y122681D01*X1224Y122681D01*X1224Y122495D01*X1162Y122495D01*
X1162Y122372D01*X1101Y122372D01*X1101Y122248D01*X1038Y122248D01*
X1038Y122187D01*X977Y122187D01*X977Y122064D01*X915Y122064D01*
X915Y122002D01*X853Y122002D01*X853Y121879D01*X791Y121879D01*
X791Y121817D01*X729Y121817D01*X729Y121694D01*X669Y121694D01*
X669Y121631D01*X606Y121631D01*X606Y121508D01*X545Y121508D01*
X545Y121447D01*X483Y121447D01*X483Y121385D01*X422Y121385D01*
X422Y121323D01*X359Y121323D01*X359Y121199D01*X298Y121199D01*
X298Y121139D01*X237Y121139D01*X237Y121077D01*X175Y121077D01*
X175Y120953D01*X113Y120953D01*X113Y120892D01*X50Y120892D01*
X50Y120830D01*X-11Y120830D01*X-11Y120706D01*X-72Y120706D01*
X-72Y120644D01*X-134Y120644D01*X-134Y120583D01*X-196Y120583D01*
X-196Y120521D01*X-257Y120521D01*X-257Y120398D01*X-319Y120398D01*
X-319Y120335D01*X-381Y120335D01*X-381Y120273D01*X-443Y120273D01*
X-443Y120213D01*X-504Y120213D01*X-504Y120088D01*X-566Y120088D01*
X-566Y120027D01*X-628Y120027D01*X-628Y119965D01*X-690Y119965D01*
X-690Y119842D01*X-751Y119842D01*X-751Y119779D01*X-813Y119779D01*
X-813Y119719D01*X-876Y119719D01*X-876Y119594D01*X-937Y119594D01*
X-937Y119532D01*X-998Y119532D01*X-998Y119471D01*X-1060Y119471D01*
X-1060Y119348D01*X-1122Y119348D01*X-1122Y119286D01*X-1184Y119286D01*
X-1184Y119163D01*X-1245Y119163D01*X-1245Y119101D01*X-1307Y119101D01*
X-1307Y118978D01*X-1368Y118978D01*X-1368Y118915D01*X-1431Y118915D01*
X-1431Y118792D01*X-1492Y118792D01*X-1492Y118669D01*X-1553Y118669D01*
X-1553Y118545D01*X-1615Y118545D01*X-1615Y118423D01*X-1676Y118423D01*
X-1676Y118299D01*X-1738Y118299D01*X-1738Y118176D01*X-1800Y118176D01*
X-1800Y117990D01*X-1863Y117990D01*X-1863Y117558D01*X-1800Y117558D01*
X-1800Y117435D01*X-1738Y117435D01*X-1738Y117372D01*X-1184Y117372D01*
X-1184Y117436D01*X-997Y117436D01*X-997Y117498D01*X-875Y117498D01*
X-875Y117556D01*X-813Y117556D01*X-813Y117622D01*X-751Y117622D01*
X-751Y117682D01*X-690Y117682D01*X-690Y117743D01*X-626Y117743D01*
X-626Y117805D01*X-565Y117805D01*X-565Y117865D01*X-503Y117865D01*
X-503Y117989D01*X-443Y117989D01*X-443Y118052D01*X-380Y118052D01*
X-380Y118114D01*X-259Y118114D01*X-259Y118175D01*X-134Y118175D01*
X-134Y118236D01*X113Y118236D01*X113Y118174D01*X236Y118174D01*
X236Y118050D01*X297Y118050D01*X297Y117559D01*X237Y117559D01*
X237Y117434D01*X175Y117434D01*X175Y117372D01*X113Y117372D01*
X113Y117312D01*X50Y117312D01*X50Y117250D01*X-12Y117250D01*
X-12Y117187D01*X-72Y117187D01*X-72Y117125D01*X-136Y117125D01*
X-136Y117064D01*X-258Y117064D01*X-258Y117001D01*X-319Y117001D01*
X-319Y116941D01*X-443Y116941D01*X-443Y116878D01*X-566Y116878D01*
X-566Y116817D01*X-752Y116817D01*X-752Y116755D01*X-935Y116755D01*
X-935Y116694D01*X-1182Y116694D01*X-1182Y116633D01*X-938Y116633D01*
X-938Y116568D01*X-506Y116568D01*X-506Y116509D01*X51Y116509D01*
X51Y116569D01*X484Y116569D01*X484Y116631D01*X667Y116631D01*
X667Y116694D01*X854Y116694D01*X854Y116756D01*X978Y116756D01*
X978Y116817D01*X1101Y116817D01*X1101Y116879D01*X1162Y116879D01*
X1162Y116942D01*X1286Y116942D01*X1286Y117001D01*X1347Y117001D01*
X1347Y117065D01*X1472Y117065D01*X1472Y117124D01*X1531Y117124D01*
X1531Y117187D01*X1595Y117187D01*X1595Y117248D01*X1657Y117248D01*
X1657Y117311D01*X1717Y117311D01*X1717Y117373D01*X1779Y117373D01*
X1779Y117433D01*X1842Y117433D01*X1842Y117495D01*X1903Y117495D01*
X1903Y117620D01*X1965Y117620D01*X1965Y117682D01*X2027Y117682D01*
X2027Y117743D01*X2088Y117743D01*X2088Y117865D01*X2150Y117865D01*
X2150Y117989D01*X2212Y117989D01*X2212Y118113D01*X2273Y118113D01*
X2273Y118175D01*X2334Y118175D01*X2334Y118360D01*X2396Y118360D01*
X2396Y118484D01*X2457Y118484D01*X2457Y118607D01*X2520Y118607D01*
X2520Y118731D01*X2581Y118731D01*X2581Y118916D01*X2644Y118916D01*
X2644Y119041D01*X2705Y119041D01*X2705Y119223D01*X2768Y119223D01*
X2768Y119406D01*X2830Y119406D01*X2830Y119531D01*X2891Y119531D01*
X2891Y119719D01*X2953Y119719D01*X2953Y119904D01*X3013Y119904D01*
X3013Y120025D01*X3074Y120025D01*X3074Y120212D01*X3137Y120212D01*
X3137Y120397D01*X3201Y120397D01*X3201Y120644D01*X3261Y120644D01*
X3261Y120830D01*X3321Y120830D01*X3321Y121077D01*X3385Y121077D01*
X3385Y121384D01*X3447Y121384D01*X3447Y121753D01*X3507Y121753D01*
X3507Y123114D01*X3444Y123114D01*X3444Y123360D01*X3384Y123360D01*
X3384Y123606D01*X3322Y123606D01*X3322Y123728D01*X3261Y123728D01*
X3261Y123914D01*X3201Y123914D01*X3201Y123977D01*X3138Y123977D01*
X3138Y124100D01*X3076Y124100D01*X3076Y124162D01*X3014Y124162D01*
X3014Y124225D01*X2953Y124225D01*X2953Y124348D01*X2891Y124348D01*
X2891Y124410D01*X2827Y124410D01*X2827Y124470D01*X2703Y124470D01*
X2703Y124532D01*X2641Y124532D01*X2641Y124593D01*X2582Y124593D01*
X2582Y124655D01*X2463Y124655D01*X2463Y124718D01*X2337Y124718D01*
X2337Y124778D01*X2152Y124778D01*X2152Y124843D01*X2026Y124843D01*
X2026Y124533D01*X1962Y124533D01*X1962Y124409D01*X1902Y124409D01*
X1902Y124286D01*X1840Y124286D01*X1840Y124160D01*X1780Y124160D01*
X1780Y124102D01*X1717Y124102D01*X1717Y124040D01*X1656Y124040D01*
X1656Y123976D01*X1595Y123976D01*X1595Y123914D01*X1534Y123914D01*
X1534Y123853D01*X1409Y123853D01*X1409Y123791D01*X1285Y123791D01*
X1285Y123731D01*X1039Y123731D01*X1039Y123667D01*X606Y123667D01*
X606Y123730D01*X421Y123730D01*X421Y123790D01*X297Y123790D01*
X297Y123855D01*X237Y123855D01*X237Y123916D01*X174Y123916D01*
X174Y123978D01*X113Y123978D01*X113Y124041D01*X52Y124041D01*
X52Y124163D01*X-9Y124163D01*X-9Y124656D01*X51Y124656D01*
X51Y124779D01*X115Y124779D01*X115Y124903D01*X-258Y124903D01*
X-258Y124841D01*X-566Y124841D01*X-566Y124779D01*X-813Y124779D01*
X-813Y124718D01*X-1060Y124718D01*X-1060Y124656D01*X-1245Y124656D01*
X-1245Y124594D01*X-1492Y124594D01*X-1492Y124532D01*X-1678Y124532D01*
X-1678Y124471D01*X-1862Y124471D01*X-1862Y124409D01*X-1986Y124409D01*
X-1986Y124347D01*X-2171Y124347D01*X-2171Y124286D01*X-2294Y124286D01*
X-2294Y124224D01*X-2480Y124224D01*X-2480Y124162D01*X-2603Y124162D01*
X-2603Y124100D01*X-2726Y124100D01*X-2726Y124039D01*X-2850Y124039D01*
X-2850Y123977D01*X-2974Y123977D01*X-2974Y123915D01*X-3158Y123915D01*
X-3158Y123853D01*X-3282Y123853D01*X-3282Y123792D01*X-3405Y123792D01*
X-3405Y123730D01*X-3467Y123730D01*X-3467Y123668D01*X-3591Y123668D01*
X-3591Y123607D01*X-3714Y123607D01*X-3714Y123545D01*X-3837Y123545D01*
X-3837Y123483D01*X-3961Y123483D01*X-3961Y123422D01*X-4084Y123422D01*
X-4084Y123360D01*X-4146Y123360D01*X-4146Y123298D01*X-4270Y123298D01*
X-4270Y123237D01*X-4393Y123237D01*X-4393Y123175D01*X-4517Y123175D01*
X-4517Y123113D01*X-4578Y123113D01*X-4578Y123051D01*X-4702Y123051D01*
X-4702Y122990D01*X-4825Y122990D01*X-4825Y122928D01*X-4887Y122928D01*
X-4887Y122866D01*X-5010Y122866D01*X-5010Y122804D01*X-5072Y122804D01*
X-5072Y122743D01*X-5195Y122743D01*X-5195Y122681D01*X-5319Y122681D01*
X-5319Y122619D01*X-5381Y122619D01*X-5381Y122558D01*X-5504Y122558D01*
X-5504Y122496D01*X-5565Y122496D01*X-5565Y122434D01*X-5628Y122434D01*
X-5628Y122373D01*X-5751Y122373D01*X-5751Y122311D01*X-5813Y122311D01*
X-5813Y122249D01*X-5874Y122249D01*X-5874Y122188D01*X-5936Y122188D01*
X-5936Y122125D01*X-5998Y122125D01*X-5998Y122064D01*X-6060Y122064D01*
X-6060Y122002D01*X-6121Y122002D01*X-6121Y121941D01*X-6183Y121941D01*
X-6183Y121878D01*X-6245Y121878D01*X-6245Y121817D01*X-6306Y121817D01*
X-6306Y121694D01*X-6368Y121694D01*X-6368Y121632D01*X-6430Y121632D01*
X-6430Y121508D01*X-6492Y121508D01*X-6492Y121446D01*X-6553Y121446D01*
X-6553Y121323D01*X-6615Y121323D01*X-6615Y121200D01*X-6677Y121200D01*
X-6677Y121014D01*X-6738Y121014D01*X-6738Y120768D01*X-6800Y120768D01*
X-6800Y120027D01*G37*G36*X29863Y119618D02*X29863Y119865D01*
X29925Y119865D01*X29925Y120174D01*X29986Y120174D01*X29986Y120482D01*
X30048Y120482D01*X30048Y120791D01*X30110Y120791D01*X30110Y121038D01*
X30171Y121038D01*X30171Y121161D01*X30233Y121161D01*X30233Y121223D01*
X30295Y121223D01*X30295Y121285D01*X30418Y121285D01*X30418Y121346D01*
X30665Y121346D01*X30665Y121408D01*X34677Y121408D01*X34677Y121346D01*
X34801Y121346D01*X34801Y121285D01*X34924Y121285D01*X34924Y121161D01*
X34986Y121161D01*X34986Y120729D01*X34924Y120729D01*X34924Y120297D01*
X34862Y120297D01*X34862Y120235D01*X33628Y120235D01*X33628Y120421D01*
X33690Y120421D01*X33690Y120791D01*X33628Y120791D01*X33628Y120853D01*
X31591Y120853D01*X31591Y120791D01*X31468Y120791D01*X31468Y120729D01*
X31406Y120729D01*X31406Y120667D01*X31344Y120667D01*X31344Y120606D01*
X31282Y120606D01*X31282Y120421D01*X31221Y120421D01*X31221Y120235D01*
X34862Y120235D01*X34862Y120112D01*X34862Y119988D01*X34801Y119988D01*
X34801Y119865D01*X34739Y119865D01*X34739Y119803D01*X34677Y119803D01*
X34677Y119742D01*X34554Y119742D01*X34554Y119680D01*X34307Y119680D01*
X34307Y119618D01*X29863Y119618D01*G37*G36*X29739Y118939D02*X29739Y119186D01*
X29801Y119186D01*X29801Y119556D01*X29863Y119556D01*X29863Y119618D01*
X31097Y119618D01*X31097Y119433D01*X31097Y119310D01*X31036Y119310D01*
X31036Y119186D01*X31097Y119186D01*X31097Y119124D01*X31221Y119124D01*
X31221Y119063D01*X31406Y119063D01*X31406Y119001D01*X36591Y119001D01*
X36591Y118939D01*X36467Y118939D01*X36467Y118877D01*X36405Y118877D01*
X36405Y118816D01*X36282Y118816D01*X36282Y118754D01*X36220Y118754D01*
X36220Y118692D01*X36097Y118692D01*X36097Y118631D01*X36035Y118631D01*
X36035Y118569D01*X35912Y118569D01*X35912Y118507D01*X35850Y118507D01*
X35850Y118445D01*X30789Y118445D01*X30789Y118507D01*X30357Y118507D01*
X30357Y118569D01*X30171Y118569D01*X30171Y118631D01*X29986Y118631D01*
X29986Y118692D01*X29925Y118692D01*X29925Y118754D01*X29863Y118754D01*
X29863Y118816D01*X29801Y118816D01*X29801Y118939D01*X29739Y118939D01*G37*
X0Y0D02*M02*
