%MOMM*%
%FSLAX33Y33*%
%ADD10C,0.203200*%
%ADD125C,0.120000*%
%ADD129R,1.500000X1.500000*%
%ADD130C,1.500000*%
%ADD135R,1.400000X1.400000*%
%ADD150C,2.500000*%
%ADD157R,2.500000X2.500000*%
%ADD167C,2.300000*%
%ADD168R,2.300000X2.300000*%
%ADD170C,7.400000*%
%ADD171C,3.500000*%
%ADD225C,1.000000*%
%ADD226C,1.400000*%
G90*G71*G01*D02*G54D10*X000000Y000000D02*X123500Y000000D01*X123500Y103500D01*
X000000Y103500D01*X000000Y000000D01*D02*G54D125*X047000Y118000D02*
X017000Y118000D01*X017000Y112000D01*X047000Y112000D01*X047000Y115000D02*
X107000Y115000D01*X071000Y118000D02*X071000Y112000D01*X047000Y118000D02*
X107000Y118000D01*X107000Y112000D02*X047000Y112000D01*X047000Y118000D02*
X047000Y112000D01*X107000Y118000D02*X107000Y112000D01*X089000Y118000D02*
X089000Y112000D01*X092265Y113882D02*X092265Y113827D01*X092319Y113827D01*
X092319Y113882D01*X092265Y113882D01*X092265Y113936D02*X092319Y113936D01*
X092374Y113882D01*X092374Y113827D01*X092319Y113773D01*X092265Y113773D01*
X092210Y113827D01*X092210Y113882D01*X092265Y113991D01*X092319Y114045D01*
X092483Y114082D01*X092709Y114082D01*X092873Y114045D01*X092928Y113991D01*
X092990Y113882D01*X092990Y113773D01*X092928Y113682D01*X092764Y113573D01*
X092483Y113464D01*X092374Y113409D01*X092265Y113300D01*X092210Y113155D01*
X092210Y112991D01*X092873Y113991D02*X092928Y113882D01*X092928Y113773D01*
X092873Y113682D01*X092709Y114082D02*X092818Y114045D01*X092873Y113882D01*
X092873Y113773D01*X092818Y113682D01*X092709Y113573D01*X092483Y113464D01*
X092210Y113100D02*X092265Y113155D01*X092374Y113155D01*X092647Y113100D01*
X092873Y113100D01*X092990Y113155D01*X092374Y113155D02*X092647Y113045D01*
X092873Y113045D01*X092928Y113100D01*X092374Y113155D02*X092647Y112991D01*
X092873Y112991D01*X092928Y113045D01*X092990Y113155D01*X092990Y113245D01*
X093738Y114082D02*X093574Y114045D01*X093465Y113882D01*X093410Y113627D01*
X093410Y113464D01*X093465Y113209D01*X093574Y113045D01*X093738Y112991D01*
X093855Y112991D01*X094018Y113045D01*X094128Y113209D01*X094190Y113464D01*
X094190Y113627D01*X094128Y113882D01*X094018Y114045D01*X093855Y114082D01*
X093738Y114082D01*X093574Y113991D02*X093519Y113882D01*X093465Y113682D01*
X093465Y113409D01*X093519Y113209D01*X093574Y113100D01*X094018Y113100D02*
X094073Y113209D01*X094128Y113409D01*X094128Y113682D01*X094073Y113882D01*
X094018Y113991D01*X093738Y114082D02*X093628Y114045D01*X093574Y113936D01*
X093519Y113682D01*X093519Y113409D01*X093574Y113155D01*X093628Y113045D01*
X093738Y112991D01*X093855Y112991D02*X093964Y113045D01*X094018Y113155D01*
X094073Y113409D01*X094073Y113682D01*X094018Y113936D01*X093964Y114045D01*
X093855Y114082D01*X094961Y113991D02*X094961Y112991D01*X094992Y113991D02*
X094992Y113045D01*X095016Y114082D02*X095016Y112991D01*X095016Y114082D02*
X094938Y113936D01*X094891Y113882D01*X094867Y112991D02*X095117Y112991D01*
X094961Y113045D02*X094914Y112991D01*X094961Y113100D02*X094938Y112991D01*
X095016Y113100D02*X095039Y112991D01*X095016Y113045D02*X095062Y112991D01*
X096418Y113936D02*X096418Y113882D01*X096473Y113882D01*X096473Y113936D01*
X096418Y113936D01*X096473Y113991D02*X096418Y113991D01*X096364Y113936D01*
X096364Y113882D01*X096418Y113827D01*X096473Y113827D01*X096528Y113882D01*
X096528Y113936D01*X096473Y114045D01*X096364Y114082D01*X096200Y114082D01*
X096028Y114045D01*X095919Y113936D01*X095865Y113827D01*X095810Y113627D01*
X095810Y113300D01*X095865Y113155D01*X095974Y113045D01*X096138Y112991D01*
X096255Y112991D01*X096418Y113045D01*X096528Y113155D01*X096590Y113300D01*
X096590Y113355D01*X096528Y113518D01*X096418Y113627D01*X096255Y113682D01*
X096138Y113682D01*X096028Y113627D01*X095974Y113573D01*X095919Y113464D01*
X095974Y113936D02*X095919Y113827D01*X095865Y113627D01*X095865Y113300D01*
X095919Y113155D01*X095974Y113100D01*X096473Y113155D02*X096528Y113245D01*
X096528Y113409D01*X096473Y113518D01*X096200Y114082D02*X096083Y114045D01*
X096028Y113991D01*X095974Y113882D01*X095919Y113682D01*X095919Y113300D01*
X095974Y113155D01*X096028Y113045D01*X096138Y112991D01*X096255Y112991D02*
X096364Y113045D01*X096418Y113100D01*X096473Y113245D01*X096473Y113409D01*
X096418Y113573D01*X096364Y113627D01*X096255Y113682D01*X097384Y113155D02*
X097361Y113100D01*X097361Y113045D01*X097384Y112991D01*X097408Y112991D01*
X097431Y113045D01*X097431Y113100D01*X097408Y113155D01*X097384Y113155D01*
X097384Y113100D02*X097384Y113045D01*X097408Y113045D01*X097408Y113100D01*
X097384Y113100D01*X098538Y114082D02*X098374Y114045D01*X098265Y113882D01*
X098210Y113627D01*X098210Y113464D01*X098265Y113209D01*X098374Y113045D01*
X098538Y112991D01*X098655Y112991D01*X098818Y113045D01*X098928Y113209D01*
X098990Y113464D01*X098990Y113627D01*X098928Y113882D01*X098818Y114045D01*
X098655Y114082D01*X098538Y114082D01*X098374Y113991D02*X098319Y113882D01*
X098265Y113682D01*X098265Y113409D01*X098319Y113209D01*X098374Y113100D01*
X098818Y113100D02*X098873Y113209D01*X098928Y113409D01*X098928Y113682D01*
X098873Y113882D01*X098818Y113991D01*X098538Y114082D02*X098428Y114045D01*
X098374Y113936D01*X098319Y113682D01*X098319Y113409D01*X098374Y113155D01*
X098428Y113045D01*X098538Y112991D01*X098655Y112991D02*X098764Y113045D01*
X098818Y113155D01*X098873Y113409D01*X098873Y113682D01*X098818Y113936D01*
X098764Y114045D01*X098655Y114082D01*X099519Y113209D02*X099519Y113155D01*
X099574Y113155D01*X099574Y113209D01*X099519Y113209D01*X100073Y113627D02*
X100018Y113518D01*X099964Y113464D01*X099855Y113409D01*X099738Y113409D01*
X099574Y113464D01*X099465Y113573D01*X099410Y113718D01*X099410Y113773D01*
X099465Y113936D01*X099574Y114045D01*X099738Y114082D01*X099855Y114082D01*
X100018Y114045D01*X100128Y113936D01*X100190Y113773D01*X100190Y113464D01*
X100128Y113245D01*X100073Y113155D01*X099964Y113045D01*X099792Y112991D01*
X099628Y112991D01*X099519Y113045D01*X099465Y113155D01*X099465Y113209D01*
X099519Y113245D01*X099574Y113245D01*X099628Y113209D01*X099628Y113155D01*
X099574Y113100D01*X099519Y113100D01*X099519Y113573D02*X099465Y113682D01*
X099465Y113827D01*X099519Y113936D01*X100018Y113991D02*X100073Y113936D01*
X100128Y113773D01*X100128Y113464D01*X100073Y113245D01*X100018Y113155D01*
X099738Y113409D02*X099628Y113464D01*X099574Y113518D01*X099519Y113682D01*
X099519Y113827D01*X099574Y113991D01*X099628Y114045D01*X099738Y114082D01*
X099855Y114082D02*X099964Y114045D01*X100018Y113936D01*X100073Y113773D01*
X100073Y113409D01*X100018Y113209D01*X099964Y113100D01*X099909Y113045D01*
X099792Y112991D01*X100984Y113155D02*X100961Y113100D01*X100961Y113045D01*
X100984Y112991D01*X101008Y112991D01*X101031Y113045D01*X101031Y113100D01*
X101008Y113155D01*X100984Y113155D01*X100984Y113100D02*X100984Y113045D01*
X101008Y113045D01*X101008Y113100D01*X100984Y113100D01*X101865Y113882D02*
X101865Y113827D01*X101919Y113827D01*X101919Y113882D01*X101865Y113882D01*
X101865Y113936D02*X101919Y113936D01*X101974Y113882D01*X101974Y113827D01*
X101919Y113773D01*X101865Y113773D01*X101810Y113827D01*X101810Y113882D01*
X101865Y113991D01*X101919Y114045D01*X102083Y114082D01*X102309Y114082D01*
X102473Y114045D01*X102528Y113991D01*X102590Y113882D01*X102590Y113773D01*
X102528Y113682D01*X102364Y113573D01*X102083Y113464D01*X101974Y113409D01*
X101865Y113300D01*X101810Y113155D01*X101810Y112991D01*X102473Y113991D02*
X102528Y113882D01*X102528Y113773D01*X102473Y113682D01*X102309Y114082D02*
X102418Y114045D01*X102473Y113882D01*X102473Y113773D01*X102418Y113682D01*
X102309Y113573D01*X102083Y113464D01*X101810Y113100D02*X101865Y113155D01*
X101974Y113155D01*X102247Y113100D01*X102473Y113100D01*X102590Y113155D01*
X101974Y113155D02*X102247Y113045D01*X102473Y113045D01*X102528Y113100D01*
X101974Y113155D02*X102247Y112991D01*X102473Y112991D01*X102528Y113045D01*
X102590Y113155D01*X102590Y113245D01*X103065Y113882D02*X103065Y113827D01*
X103119Y113827D01*X103119Y113882D01*X103065Y113882D01*X103065Y113936D02*
X103119Y113936D01*X103174Y113882D01*X103174Y113827D01*X103119Y113773D01*
X103065Y113773D01*X103010Y113827D01*X103010Y113882D01*X103065Y113991D01*
X103119Y114045D01*X103283Y114082D01*X103509Y114082D01*X103673Y114045D01*
X103728Y113936D01*X103728Y113773D01*X103673Y113682D01*X103509Y113627D01*
X103618Y114045D02*X103673Y113936D01*X103673Y113773D01*X103618Y113682D01*
X103455Y114082D02*X103564Y114045D01*X103618Y113936D01*X103618Y113773D01*
X103564Y113682D01*X103455Y113627D01*X103338Y113627D02*X103509Y113627D01*
X103618Y113573D01*X103728Y113464D01*X103790Y113355D01*X103790Y113209D01*
X103728Y113100D01*X103673Y113045D01*X103509Y112991D01*X103283Y112991D01*
X103119Y113045D01*X103065Y113100D01*X103010Y113209D01*X103010Y113245D01*
X103065Y113300D01*X103119Y113300D01*X103174Y113245D01*X103174Y113209D01*
X103119Y113155D01*X103065Y113155D01*X103673Y113464D02*X103728Y113355D01*
X103728Y113209D01*X103673Y113100D01*X103455Y113627D02*X103564Y113573D01*
X103618Y113518D01*X103673Y113355D01*X103673Y113209D01*X103618Y113045D01*
X103509Y112991D01*X103065Y113245D02*X103065Y113209D01*X103119Y113209D01*
X103119Y113245D01*X103065Y113245D01*X095943Y117082D02*X095943Y115991D01*
X095989Y117045D02*X095989Y116045D01*X096036Y117082D02*X096036Y115991D01*
X095810Y117082D02*X096262Y117082D01*X096403Y117045D01*X096496Y116936D01*
X096543Y116827D01*X096590Y116682D01*X096590Y116409D01*X096543Y116245D01*
X096496Y116155D01*X096403Y116045D01*X096262Y115991D01*X095810Y115991D01*
X096450Y116936D02*X096496Y116827D01*X096543Y116682D01*X096543Y116409D01*
X096496Y116245D01*X096450Y116155D01*X096262Y117082D02*X096356Y117045D01*
X096450Y116882D01*X096496Y116682D01*X096496Y116409D01*X096450Y116209D01*
X096356Y116045D01*X096262Y115991D01*X095849Y117082D02*X095943Y117045D01*
X095896Y117082D02*X095943Y116991D01*X096083Y117082D02*X096036Y116991D01*
X096130Y117082D02*X096036Y117045D01*X095943Y116045D02*X095849Y115991D01*
X095943Y116100D02*X095896Y115991D01*X096036Y116100D02*X096083Y115991D01*
X096036Y116045D02*X096130Y115991D01*X097400Y117082D02*X097096Y116045D01*
X097353Y116936D02*X097611Y115991D01*X097400Y116936D02*X097657Y115991D01*
X097400Y117082D02*X097696Y115991D01*X097182Y116300D02*X097572Y116300D01*
X097010Y115991D02*X097267Y115991D01*X097486Y115991D02*X097790Y115991D01*
X097096Y116045D02*X097049Y115991D01*X097096Y116045D02*X097182Y115991D01*
X097611Y116045D02*X097525Y115991D01*X097611Y116100D02*X097572Y115991D01*
X097657Y116100D02*X097743Y115991D01*X098210Y117082D02*X098210Y116773D01*
X098545Y117082D02*X098545Y115991D01*X098600Y117045D02*X098600Y116045D01*
X098647Y117082D02*X098647Y115991D01*X098990Y117082D02*X098990Y116773D01*
X098210Y117082D02*X098990Y117082D01*X098405Y115991D02*X098787Y115991D01*
X098257Y117082D02*X098210Y116773D01*X098304Y117082D02*X098210Y116936D01*
X098350Y117082D02*X098210Y116991D01*X098452Y117082D02*X098210Y117045D01*
X098740Y117082D02*X098990Y117045D01*X098842Y117082D02*X098990Y116991D01*
X098889Y117082D02*X098990Y116936D01*X098935Y117082D02*X098990Y116773D01*
X098545Y116045D02*X098452Y115991D01*X098545Y116100D02*X098499Y115991D01*
X098647Y116100D02*X098694Y115991D01*X098647Y116045D02*X098740Y115991D01*
X099550Y117082D02*X099550Y115991D01*X099597Y117045D02*X099597Y116045D01*
X099652Y117082D02*X099652Y115991D01*X099410Y117082D02*X100190Y117082D01*
X100190Y116773D01*X099652Y116573D02*X099940Y116573D01*X099940Y116773D02*
X099940Y116355D01*X099410Y115991D02*X100190Y115991D01*X100190Y116300D01*
X099457Y117082D02*X099550Y117045D01*X099504Y117082D02*X099550Y116991D01*
X099699Y117082D02*X099652Y116991D01*X099745Y117082D02*X099652Y117045D01*
X099940Y117082D02*X100190Y117045D01*X100042Y117082D02*X100190Y116991D01*
X100089Y117082D02*X100190Y116936D01*X100135Y117082D02*X100190Y116773D01*
X099940Y116773D02*X099894Y116573D01*X099940Y116355D01*X099940Y116682D02*
X099847Y116573D01*X099940Y116464D01*X099940Y116627D02*X099745Y116573D01*
X099940Y116518D01*X099550Y116045D02*X099457Y115991D01*X099550Y116100D02*
X099504Y115991D01*X099652Y116100D02*X099699Y115991D01*X099652Y116045D02*
X099745Y115991D01*X099940Y115991D02*X100190Y116045D01*X100042Y115991D02*
X100190Y116100D01*X100089Y115991D02*X100190Y116155D01*X100135Y115991D02*
X100190Y116300D01*X074366Y117082D02*X074366Y115991D01*X074413Y117045D02*
X074413Y116045D01*X074467Y117082D02*X074467Y115991D01*X074210Y117082D02*
X074623Y117082D01*X074210Y115991D02*X074990Y115991D01*X074990Y116300D01*
X074257Y117082D02*X074366Y117045D01*X074311Y117082D02*X074366Y116991D01*
X074522Y117082D02*X074467Y116991D01*X074569Y117082D02*X074467Y117045D01*
X074366Y116045D02*X074257Y115991D01*X074366Y116100D02*X074311Y115991D01*
X074467Y116100D02*X074522Y115991D01*X074467Y116045D02*X074569Y115991D01*
X074725Y115991D02*X074990Y116045D01*X074826Y115991D02*X074990Y116100D01*
X074881Y115991D02*X074990Y116155D01*X074935Y115991D02*X074990Y116300D01*
X075800Y117082D02*X075496Y116045D01*X075753Y116936D02*X076011Y115991D01*
X075800Y116936D02*X076057Y115991D01*X075800Y117082D02*X076096Y115991D01*
X075582Y116300D02*X075972Y116300D01*X075410Y115991D02*X075667Y115991D01*
X075886Y115991D02*X076190Y115991D01*X075496Y116045D02*X075449Y115991D01*
X075496Y116045D02*X075582Y115991D01*X076011Y116045D02*X075925Y115991D01*
X076011Y116100D02*X075972Y115991D01*X076057Y116100D02*X076143Y115991D01*
X076688Y117082D02*X076953Y116518D01*X076953Y115991D01*X076727Y117082D02*
X076992Y116518D01*X076992Y116045D01*X076758Y117082D02*X077039Y116518D01*
X077039Y115991D01*X077265Y117045D02*X077039Y116518D01*X076610Y117082D02*
X076883Y117082D01*X077148Y117082D02*X077390Y117082D01*X076844Y115991D02*
X077148Y115991D01*X076649Y117082D02*X076727Y117045D01*X076844Y117082D02*
X076758Y117045D01*X077195Y117082D02*X077265Y117045D01*X077343Y117082D02*
X077265Y117045D01*X076953Y116045D02*X076883Y115991D01*X076953Y116100D02*
X076914Y115991D01*X077039Y116100D02*X077070Y115991D01*X077039Y116045D02*
X077109Y115991D01*X077950Y117082D02*X077950Y115991D01*X077997Y117045D02*
X077997Y116045D01*X078052Y117082D02*X078052Y115991D01*X077810Y117082D02*
X078590Y117082D01*X078590Y116773D01*X078052Y116573D02*X078340Y116573D01*
X078340Y116773D02*X078340Y116355D01*X077810Y115991D02*X078590Y115991D01*
X078590Y116300D01*X077857Y117082D02*X077950Y117045D01*X077904Y117082D02*
X077950Y116991D01*X078099Y117082D02*X078052Y116991D01*X078145Y117082D02*
X078052Y117045D01*X078340Y117082D02*X078590Y117045D01*X078442Y117082D02*
X078590Y116991D01*X078489Y117082D02*X078590Y116936D01*X078535Y117082D02*
X078590Y116773D01*X078340Y116773D02*X078294Y116573D01*X078340Y116355D01*
X078340Y116682D02*X078247Y116573D01*X078340Y116464D01*X078340Y116627D02*
X078145Y116573D01*X078340Y116518D01*X077950Y116045D02*X077857Y115991D01*
X077950Y116100D02*X077904Y115991D01*X078052Y116100D02*X078099Y115991D01*
X078052Y116045D02*X078145Y115991D01*X078340Y115991D02*X078590Y116045D01*
X078442Y115991D02*X078590Y116100D01*X078489Y115991D02*X078590Y116155D01*
X078535Y115991D02*X078590Y116300D01*X079135Y117082D02*X079135Y115991D01*
X079182Y117045D02*X079182Y116045D01*X079221Y117082D02*X079221Y115991D01*
X079010Y117082D02*X079525Y117082D01*X079657Y117045D01*X079696Y116991D01*
X079743Y116882D01*X079743Y116773D01*X079696Y116682D01*X079657Y116627D01*
X079525Y116573D01*X079221Y116573D01*X079657Y116991D02*X079696Y116882D01*
X079696Y116773D01*X079657Y116682D01*X079525Y117082D02*X079611Y117045D01*
X079657Y116936D01*X079657Y116718D01*X079611Y116627D01*X079525Y116573D01*
X079392Y116573D02*X079486Y116518D01*X079525Y116409D01*X079611Y116100D01*
X079657Y115991D01*X079743Y115991D01*X079790Y116100D01*X079790Y116209D01*
X079611Y116209D02*X079657Y116100D01*X079696Y116045D01*X079743Y116045D01*
X079486Y116518D02*X079525Y116464D01*X079657Y116155D01*X079696Y116100D01*
X079743Y116100D01*X079790Y116155D01*X079010Y115991D02*X079353Y115991D01*
X079049Y117082D02*X079135Y117045D01*X079096Y117082D02*X079135Y116991D01*
X079267Y117082D02*X079221Y116991D01*X079306Y117082D02*X079221Y117045D01*
X079135Y116045D02*X079049Y115991D01*X079135Y116100D02*X079096Y115991D01*
X079221Y116100D02*X079267Y115991D01*X079221Y116045D02*X079306Y115991D01*
X081519Y117082D02*X081519Y116045D01*X081519Y117082D02*X082065Y115991D01*
X081566Y117082D02*X082026Y116155D01*X081597Y117082D02*X082065Y116155D01*
X082065Y117045D02*X082065Y115991D01*X081410Y117082D02*X081597Y117082D01*
X081956Y117082D02*X082190Y117082D01*X081410Y115991D02*X081636Y115991D01*
X081441Y117082D02*X081519Y117045D01*X081995Y117082D02*X082065Y117045D01*
X082151Y117082D02*X082065Y117045D01*X081519Y116045D02*X081441Y115991D01*
X081519Y116045D02*X081597Y115991D01*X083000Y117082D02*X082696Y116045D01*
X082953Y116936D02*X083211Y115991D01*X083000Y116936D02*X083257Y115991D01*
X083000Y117082D02*X083296Y115991D01*X082782Y116300D02*X083172Y116300D01*
X082610Y115991D02*X082867Y115991D01*X083086Y115991D02*X083390Y115991D01*
X082696Y116045D02*X082649Y115991D01*X082696Y116045D02*X082782Y115991D01*
X083211Y116045D02*X083125Y115991D01*X083211Y116100D02*X083172Y115991D01*
X083257Y116100D02*X083343Y115991D01*X083911Y117082D02*X083911Y116045D01*
X083911Y117082D02*X084161Y115991D01*X083950Y117082D02*X084161Y116155D01*
X083982Y117082D02*X084192Y116155D01*X084411Y117082D02*X084161Y115991D01*
X084411Y117082D02*X084411Y115991D01*X084442Y117045D02*X084442Y116045D01*
X084481Y117082D02*X084481Y115991D01*X083810Y117082D02*X083982Y117082D01*
X084411Y117082D02*X084590Y117082D01*X083810Y115991D02*X084021Y115991D01*
X084301Y115991D02*X084590Y115991D01*X083841Y117082D02*X083911Y117045D01*
X084512Y117082D02*X084481Y116991D01*X084551Y117082D02*X084481Y117045D01*
X083911Y116045D02*X083841Y115991D01*X083911Y116045D02*X083982Y115991D01*
X084411Y116045D02*X084340Y115991D01*X084411Y116100D02*X084372Y115991D01*
X084481Y116100D02*X084512Y115991D01*X084481Y116045D02*X084551Y115991D01*
X085150Y117082D02*X085150Y115991D01*X085197Y117045D02*X085197Y116045D01*
X085252Y117082D02*X085252Y115991D01*X085010Y117082D02*X085790Y117082D01*
X085790Y116773D01*X085252Y116573D02*X085540Y116573D01*X085540Y116773D02*
X085540Y116355D01*X085010Y115991D02*X085790Y115991D01*X085790Y116300D01*
X085057Y117082D02*X085150Y117045D01*X085104Y117082D02*X085150Y116991D01*
X085299Y117082D02*X085252Y116991D01*X085345Y117082D02*X085252Y117045D01*
X085540Y117082D02*X085790Y117045D01*X085642Y117082D02*X085790Y116991D01*
X085689Y117082D02*X085790Y116936D01*X085735Y117082D02*X085790Y116773D01*
X085540Y116773D02*X085494Y116573D01*X085540Y116355D01*X085540Y116682D02*
X085447Y116573D01*X085540Y116464D01*X085540Y116627D02*X085345Y116573D01*
X085540Y116518D01*X085150Y116045D02*X085057Y115991D01*X085150Y116100D02*
X085104Y115991D01*X085252Y116100D02*X085299Y115991D01*X085252Y116045D02*
X085345Y115991D01*X085540Y115991D02*X085790Y116045D01*X085642Y115991D02*
X085790Y116100D01*X085689Y115991D02*X085790Y116155D01*X085735Y115991D02*
X085790Y116300D01*X053311Y117082D02*X053311Y116045D01*X053311Y117082D02*
X053561Y115991D01*X053350Y117082D02*X053561Y116155D01*X053382Y117082D02*
X053592Y116155D01*X053811Y117082D02*X053561Y115991D01*X053811Y117082D02*
X053811Y115991D01*X053842Y117045D02*X053842Y116045D01*X053881Y117082D02*
X053881Y115991D01*X053210Y117082D02*X053382Y117082D01*X053811Y117082D02*
X053990Y117082D01*X053210Y115991D02*X053421Y115991D01*X053701Y115991D02*
X053990Y115991D01*X053241Y117082D02*X053311Y117045D01*X053912Y117082D02*
X053881Y116991D01*X053951Y117082D02*X053881Y117045D01*X053311Y116045D02*
X053241Y115991D01*X053311Y116045D02*X053382Y115991D01*X053811Y116045D02*
X053740Y115991D01*X053811Y116100D02*X053772Y115991D01*X053881Y116100D02*
X053912Y115991D01*X053881Y116045D02*X053951Y115991D01*X054745Y117082D02*
X054605Y117045D01*X054504Y116936D01*X054457Y116827D01*X054410Y116627D01*
X054410Y116464D01*X054457Y116245D01*X054504Y116155D01*X054605Y116045D01*
X054745Y115991D01*X054847Y115991D01*X054995Y116045D01*X055089Y116155D01*
X055135Y116245D01*X055190Y116464D01*X055190Y116627D01*X055135Y116827D01*
X055089Y116936D01*X054995Y117045D01*X054847Y117082D01*X054745Y117082D01*
X054550Y116936D02*X054504Y116827D01*X054457Y116682D01*X054457Y116409D01*
X054504Y116245D01*X054550Y116155D01*X055042Y116155D02*X055089Y116245D01*
X055135Y116409D01*X055135Y116682D01*X055089Y116827D01*X055042Y116936D01*
X054745Y117082D02*X054652Y117045D01*X054550Y116882D01*X054504Y116682D01*
X054504Y116409D01*X054550Y116209D01*X054652Y116045D01*X054745Y115991D01*
X054847Y115991D02*X054940Y116045D01*X055042Y116209D01*X055089Y116409D01*
X055089Y116682D01*X055042Y116882D01*X054940Y117045D01*X054847Y117082D01*
X055743Y117082D02*X055743Y115991D01*X055789Y117045D02*X055789Y116045D01*
X055836Y117082D02*X055836Y115991D01*X055610Y117082D02*X056062Y117082D01*
X056203Y117045D01*X056296Y116936D01*X056343Y116827D01*X056390Y116682D01*
X056390Y116409D01*X056343Y116245D01*X056296Y116155D01*X056203Y116045D01*
X056062Y115991D01*X055610Y115991D01*X056250Y116936D02*X056296Y116827D01*
X056343Y116682D01*X056343Y116409D01*X056296Y116245D01*X056250Y116155D01*
X056062Y117082D02*X056156Y117045D01*X056250Y116882D01*X056296Y116682D01*
X056296Y116409D01*X056250Y116209D01*X056156Y116045D01*X056062Y115991D01*
X055649Y117082D02*X055743Y117045D01*X055696Y117082D02*X055743Y116991D01*
X055883Y117082D02*X055836Y116991D01*X055930Y117082D02*X055836Y117045D01*
X055743Y116045D02*X055649Y115991D01*X055743Y116100D02*X055696Y115991D01*
X055836Y116100D02*X055883Y115991D01*X055836Y116045D02*X055930Y115991D01*
X056950Y117082D02*X056950Y115991D01*X056997Y117045D02*X056997Y116045D01*
X057052Y117082D02*X057052Y115991D01*X056810Y117082D02*X057590Y117082D01*
X057590Y116773D01*X057052Y116573D02*X057340Y116573D01*X057340Y116773D02*
X057340Y116355D01*X056810Y115991D02*X057590Y115991D01*X057590Y116300D01*
X056857Y117082D02*X056950Y117045D01*X056904Y117082D02*X056950Y116991D01*
X057099Y117082D02*X057052Y116991D01*X057145Y117082D02*X057052Y117045D01*
X057340Y117082D02*X057590Y117045D01*X057442Y117082D02*X057590Y116991D01*
X057489Y117082D02*X057590Y116936D01*X057535Y117082D02*X057590Y116773D01*
X057340Y116773D02*X057294Y116573D01*X057340Y116355D01*X057340Y116682D02*
X057247Y116573D01*X057340Y116464D01*X057340Y116627D02*X057145Y116573D01*
X057340Y116518D01*X056950Y116045D02*X056857Y115991D01*X056950Y116100D02*
X056904Y115991D01*X057052Y116100D02*X057099Y115991D01*X057052Y116045D02*
X057145Y115991D01*X057340Y115991D02*X057590Y116045D01*X057442Y115991D02*
X057590Y116100D01*X057489Y115991D02*X057590Y116155D01*X057535Y115991D02*
X057590Y116300D01*X058166Y117082D02*X058166Y115991D01*X058213Y117045D02*
X058213Y116045D01*X058267Y117082D02*X058267Y115991D01*X058010Y117082D02*
X058423Y117082D01*X058010Y115991D02*X058790Y115991D01*X058790Y116300D01*
X058057Y117082D02*X058166Y117045D01*X058111Y117082D02*X058166Y116991D01*
X058322Y117082D02*X058267Y116991D01*X058369Y117082D02*X058267Y117045D01*
X058166Y116045D02*X058057Y115991D01*X058166Y116100D02*X058111Y115991D01*
X058267Y116100D02*X058322Y115991D01*X058267Y116045D02*X058369Y115991D01*
X058525Y115991D02*X058790Y116045D01*X058626Y115991D02*X058790Y116100D01*
X058681Y115991D02*X058790Y116155D01*X058735Y115991D02*X058790Y116300D01*
X060519Y117082D02*X060519Y116045D01*X060519Y117082D02*X061065Y115991D01*
X060566Y117082D02*X061026Y116155D01*X060597Y117082D02*X061065Y116155D01*
X061065Y117045D02*X061065Y115991D01*X060410Y117082D02*X060597Y117082D01*
X060956Y117082D02*X061190Y117082D01*X060410Y115991D02*X060636Y115991D01*
X060441Y117082D02*X060519Y117045D01*X060995Y117082D02*X061065Y117045D01*
X061151Y117082D02*X061065Y117045D01*X060519Y116045D02*X060441Y115991D01*
X060519Y116045D02*X060597Y115991D01*X062000Y117082D02*X061696Y116045D01*
X061953Y116936D02*X062211Y115991D01*X062000Y116936D02*X062257Y115991D01*
X062000Y117082D02*X062296Y115991D01*X061782Y116300D02*X062172Y116300D01*
X061610Y115991D02*X061867Y115991D01*X062086Y115991D02*X062390Y115991D01*
X061696Y116045D02*X061649Y115991D01*X061696Y116045D02*X061782Y115991D01*
X062211Y116045D02*X062125Y115991D01*X062211Y116100D02*X062172Y115991D01*
X062257Y116100D02*X062343Y115991D01*X062911Y117082D02*X062911Y116045D01*
X062911Y117082D02*X063161Y115991D01*X062950Y117082D02*X063161Y116155D01*
X062982Y117082D02*X063192Y116155D01*X063411Y117082D02*X063161Y115991D01*
X063411Y117082D02*X063411Y115991D01*X063442Y117045D02*X063442Y116045D01*
X063481Y117082D02*X063481Y115991D01*X062810Y117082D02*X062982Y117082D01*
X063411Y117082D02*X063590Y117082D01*X062810Y115991D02*X063021Y115991D01*
X063301Y115991D02*X063590Y115991D01*X062841Y117082D02*X062911Y117045D01*
X063512Y117082D02*X063481Y116991D01*X063551Y117082D02*X063481Y117045D01*
X062911Y116045D02*X062841Y115991D01*X062911Y116045D02*X062982Y115991D01*
X063411Y116045D02*X063340Y115991D01*X063411Y116100D02*X063372Y115991D01*
X063481Y116100D02*X063512Y115991D01*X063481Y116045D02*X063551Y115991D01*
X064150Y117082D02*X064150Y115991D01*X064197Y117045D02*X064197Y116045D01*
X064252Y117082D02*X064252Y115991D01*X064010Y117082D02*X064790Y117082D01*
X064790Y116773D01*X064252Y116573D02*X064540Y116573D01*X064540Y116773D02*
X064540Y116355D01*X064010Y115991D02*X064790Y115991D01*X064790Y116300D01*
X064057Y117082D02*X064150Y117045D01*X064104Y117082D02*X064150Y116991D01*
X064299Y117082D02*X064252Y116991D01*X064345Y117082D02*X064252Y117045D01*
X064540Y117082D02*X064790Y117045D01*X064642Y117082D02*X064790Y116991D01*
X064689Y117082D02*X064790Y116936D01*X064735Y117082D02*X064790Y116773D01*
X064540Y116773D02*X064494Y116573D01*X064540Y116355D01*X064540Y116682D02*
X064447Y116573D01*X064540Y116464D01*X064540Y116627D02*X064345Y116573D01*
X064540Y116518D01*X064150Y116045D02*X064057Y115991D01*X064150Y116100D02*
X064104Y115991D01*X064252Y116100D02*X064299Y115991D01*X064252Y116045D02*
X064345Y115991D01*X064540Y115991D02*X064790Y116045D01*X064642Y115991D02*
X064790Y116100D01*X064689Y115991D02*X064790Y116155D01*X064735Y115991D02*
X064790Y116300D01*X058128Y113936D02*X058190Y114082D01*X058190Y113773D01*
X058128Y113936D01*X058018Y114045D01*X057847Y114082D01*X057683Y114082D01*
X057519Y114045D01*X057410Y113936D01*X057410Y113773D01*X057465Y113682D01*
X057628Y113573D01*X057964Y113464D01*X058073Y113409D01*X058128Y113300D01*
X058128Y113155D01*X058073Y113045D01*X057465Y113773D02*X057519Y113682D01*
X057628Y113627D01*X057964Y113518D01*X058073Y113464D01*X058128Y113355D01*
X057519Y114045D02*X057465Y113936D01*X057465Y113827D01*X057519Y113718D01*
X057628Y113682D01*X057964Y113573D01*X058128Y113464D01*X058190Y113355D01*
X058190Y113209D01*X058128Y113100D01*X058073Y113045D01*X057909Y112991D01*
X057738Y112991D01*X057574Y113045D01*X057465Y113155D01*X057410Y113300D01*
X057410Y112991D01*X057465Y113155D01*X059335Y113936D02*X059390Y114082D01*
X059390Y113773D01*X059335Y113936D01*X059226Y114045D01*X059125Y114082D01*
X058969Y114082D01*X058813Y114045D01*X058711Y113936D01*X058657Y113827D01*
X058610Y113682D01*X058610Y113409D01*X058657Y113245D01*X058711Y113155D01*
X058813Y113045D01*X058969Y112991D01*X059125Y112991D01*X059226Y113045D01*
X059335Y113155D01*X059390Y113245D01*X058758Y113936D02*X058711Y113827D01*
X058657Y113682D01*X058657Y113409D01*X058711Y113245D01*X058758Y113155D01*
X058969Y114082D02*X058867Y114045D01*X058758Y113882D01*X058711Y113682D01*
X058711Y113409D01*X058758Y113209D01*X058867Y113045D01*X058969Y112991D01*
X059911Y114082D02*X059911Y113045D01*X059911Y114082D02*X060161Y112991D01*
X059950Y114082D02*X060161Y113155D01*X059982Y114082D02*X060192Y113155D01*
X060411Y114082D02*X060161Y112991D01*X060411Y114082D02*X060411Y112991D01*
X060442Y114045D02*X060442Y113045D01*X060481Y114082D02*X060481Y112991D01*
X059810Y114082D02*X059982Y114082D01*X060411Y114082D02*X060590Y114082D01*
X059810Y112991D02*X060021Y112991D01*X060301Y112991D02*X060590Y112991D01*
X059841Y114082D02*X059911Y114045D01*X060512Y114082D02*X060481Y113991D01*
X060551Y114082D02*X060481Y114045D01*X059911Y113045D02*X059841Y112991D01*
X059911Y113045D02*X059982Y112991D01*X060411Y113045D02*X060340Y112991D01*
X060411Y113100D02*X060372Y112991D01*X060481Y113100D02*X060512Y112991D01*
X060481Y113045D02*X060551Y112991D01*X077311Y114082D02*X077311Y113045D01*
X077311Y114082D02*X077561Y112991D01*X077350Y114082D02*X077561Y113155D01*
X077382Y114082D02*X077592Y113155D01*X077811Y114082D02*X077561Y112991D01*
X077811Y114082D02*X077811Y112991D01*X077842Y114045D02*X077842Y113045D01*
X077881Y114082D02*X077881Y112991D01*X077210Y114082D02*X077382Y114082D01*
X077811Y114082D02*X077990Y114082D01*X077210Y112991D02*X077421Y112991D01*
X077701Y112991D02*X077990Y112991D01*X077241Y114082D02*X077311Y114045D01*
X077912Y114082D02*X077881Y113991D01*X077951Y114082D02*X077881Y114045D01*
X077311Y113045D02*X077241Y112991D01*X077311Y113045D02*X077382Y112991D01*
X077811Y113045D02*X077740Y112991D01*X077811Y113100D02*X077772Y112991D01*
X077881Y113100D02*X077912Y112991D01*X077881Y113045D02*X077951Y112991D01*
X078800Y114082D02*X078496Y113045D01*X078753Y113936D02*X079011Y112991D01*
X078800Y113936D02*X079057Y112991D01*X078800Y114082D02*X079096Y112991D01*
X078582Y113300D02*X078972Y113300D01*X078410Y112991D02*X078667Y112991D01*
X078886Y112991D02*X079190Y112991D01*X078496Y113045D02*X078449Y112991D01*
X078496Y113045D02*X078582Y112991D01*X079011Y113045D02*X078925Y112991D01*
X079011Y113100D02*X078972Y112991D01*X079057Y113100D02*X079143Y112991D01*
X080328Y113936D02*X080390Y114082D01*X080390Y113773D01*X080328Y113936D01*
X080218Y114045D01*X080047Y114082D01*X079883Y114082D01*X079719Y114045D01*
X079610Y113936D01*X079610Y113773D01*X079665Y113682D01*X079828Y113573D01*
X080164Y113464D01*X080273Y113409D01*X080328Y113300D01*X080328Y113155D01*
X080273Y113045D01*X079665Y113773D02*X079719Y113682D01*X079828Y113627D01*
X080164Y113518D01*X080273Y113464D01*X080328Y113355D01*X079719Y114045D02*
X079665Y113936D01*X079665Y113827D01*X079719Y113718D01*X079828Y113682D01*
X080164Y113573D01*X080328Y113464D01*X080390Y113355D01*X080390Y113209D01*
X080328Y113100D01*X080273Y113045D01*X080109Y112991D01*X079938Y112991D01*
X079774Y113045D01*X079665Y113155D01*X079610Y113300D01*X079610Y112991D01*
X079665Y113155D01*X080927Y114082D02*X080927Y112991D01*X080974Y114045D02*
X080974Y113045D01*X081013Y114082D02*X081013Y112991D01*X081465Y114045D02*
X081013Y113464D01*X081138Y113573D02*X081418Y112991D01*X081177Y113573D02*
X081465Y112991D01*X081177Y113682D02*X081504Y112991D01*X080810Y114082D02*
X081138Y114082D01*X081340Y114082D02*X081590Y114082D01*X080810Y112991D02*
X081138Y112991D01*X081301Y112991D02*X081590Y112991D01*X080849Y114082D02*
X080927Y114045D01*X080888Y114082D02*X080927Y113991D01*X081052Y114082D02*
X081013Y113991D01*X081091Y114082D02*X081013Y114045D01*X081418Y114082D02*
X081465Y114045D01*X081543Y114082D02*X081465Y114045D01*X080927Y113045D02*
X080849Y112991D01*X080927Y113100D02*X080888Y112991D01*X081013Y113100D02*
X081052Y112991D01*X081013Y113045D02*X081091Y112991D01*X081418Y113100D02*
X081340Y112991D01*X081418Y113100D02*X081543Y112991D01*X082065Y113882D02*
X082065Y113827D01*X082119Y113827D01*X082119Y113882D01*X082065Y113882D01*
X082065Y113936D02*X082119Y113936D01*X082174Y113882D01*X082174Y113827D01*
X082119Y113773D01*X082065Y113773D01*X082010Y113827D01*X082010Y113882D01*
X082065Y113991D01*X082119Y114045D01*X082283Y114082D01*X082509Y114082D01*
X082673Y114045D01*X082728Y113991D01*X082790Y113882D01*X082790Y113773D01*
X082728Y113682D01*X082564Y113573D01*X082283Y113464D01*X082174Y113409D01*
X082065Y113300D01*X082010Y113155D01*X082010Y112991D01*X082673Y113991D02*
X082728Y113882D01*X082728Y113773D01*X082673Y113682D01*X082509Y114082D02*
X082618Y114045D01*X082673Y113882D01*X082673Y113773D01*X082618Y113682D01*
X082509Y113573D01*X082283Y113464D01*X082010Y113100D02*X082065Y113155D01*
X082174Y113155D01*X082447Y113100D01*X082673Y113100D01*X082790Y113155D01*
X082174Y113155D02*X082447Y113045D01*X082673Y113045D01*X082728Y113100D01*
X082174Y113155D02*X082447Y112991D01*X082673Y112991D01*X082728Y113045D01*
X082790Y113155D01*X082790Y113245D01*X000000Y000000D02*D02*G54D129*
X005500Y019650D03*X095000Y020890D03*X107000Y093000D03*X107000Y099000D03*D02*
G54D130*X095000Y003110D03*X095000Y008190D03*X095000Y005650D03*X095000Y013270D03*
X095000Y010730D03*X095000Y018350D03*X095000Y015810D03*X005500Y022190D03*
X005500Y024730D03*X005500Y027270D03*X005500Y029810D03*X005500Y032350D03*
X089000Y093000D03*X089000Y099000D03*D02*G54D135*X102340Y010800D03*
X011730Y016080D03*X055230Y016080D03*X102340Y028580D03*D02*G54D150*
X051020Y077000D03*D02*G54D157*X054980Y077000D03*D02*G54D167*X116000Y041750D03*
X116000Y050000D03*X116000Y072875D03*D02*G54D168*X116000Y058250D03*
X116000Y081125D03*D02*G54D170*X005500Y005500D03*X118000Y005500D03*
X005500Y098000D03*X118000Y098000D03*D02*G54D171*X005500Y005500D03*
X118000Y005500D03*X005500Y098000D03*X118000Y098000D03*D02*G54D225*
X003520Y003520D03*X005500Y002700D03*X007480Y003520D03*X116020Y003520D03*
X118000Y002700D03*X119980Y003520D03*X008300Y005500D03*X007480Y007480D03*
X005500Y008300D03*X003520Y007480D03*X002700Y005500D03*X118000Y008300D03*
X116020Y007480D03*X115200Y005500D03*X120800Y005500D03*X119980Y007480D03*
X005500Y095200D03*X118000Y095200D03*X008300Y098000D03*X007480Y099980D03*
X005500Y100800D03*X003520Y099980D03*X002700Y098000D03*X003520Y096020D03*
X007480Y096020D03*X118000Y100800D03*X116020Y099980D03*X115200Y098000D03*
X116020Y096020D03*X120800Y098000D03*X119980Y099980D03*X119980Y096020D03*D02*
G54D226*X014270Y005920D03*X014270Y008460D03*X011730Y005920D03*X011730Y008460D03*
X057770Y005920D03*X057770Y008460D03*X055230Y005920D03*X055230Y008460D03*
X062000Y008460D03*X062000Y005920D03*X014270Y011000D03*X014270Y013540D03*
X011730Y011000D03*X011730Y013540D03*X057770Y011000D03*X057770Y013540D03*
X055230Y011000D03*X055230Y013540D03*X109960Y013340D03*X107420Y013340D03*
X104880Y013340D03*X102340Y013340D03*X109960Y010800D03*X107420Y010800D03*
X104880Y010800D03*X112500Y013340D03*X112500Y010800D03*X014270Y016080D03*
X057770Y016080D03*X109960Y031120D03*X107420Y031120D03*X104880Y031120D03*
X102340Y031120D03*X109960Y028580D03*X107420Y028580D03*X104880Y028580D03*
X112500Y031120D03*X112500Y028580D03*X092000Y036000D03*X092000Y042000D03*
X053000Y052000D03*X058000Y052000D03*X041000Y071000D03*X045000Y071000D03*
X010000Y084000D03*X010000Y088000D03*
G36*X043083Y115388D02*X043083Y115425D01*X043749Y115425D01*X043749Y115388D01*
X043786Y115388D01*X043786Y115351D01*X043860Y115351D01*X043860Y115314D01*
X043897Y115314D01*X043897Y115277D01*X043934Y115277D01*X043934Y115240D01*
X043971Y115240D01*X043971Y115203D01*X044008Y115203D01*X044008Y115166D01*
X044045Y115166D01*X044045Y115129D01*X044082Y115129D01*X044082Y115092D01*
X044120Y115092D01*X044120Y115055D01*X044157Y115055D01*X044157Y115017D01*
X044231Y115017D01*X044231Y114980D01*X044268Y114980D01*X044268Y114943D01*
X044305Y114943D01*X044305Y114906D01*X044342Y114906D01*X044342Y114869D01*
X044379Y114869D01*X044379Y114832D01*X044453Y114832D01*X044453Y114869D01*
X044527Y114869D01*X044527Y114906D01*X044601Y114906D01*X044601Y114943D01*
X044638Y114943D01*X044638Y114980D01*X044712Y114980D01*X044712Y115017D01*
X044749Y115017D01*X044749Y115055D01*X044823Y115055D01*X044823Y115092D01*
X044897Y115092D01*X044897Y115129D01*X044934Y115129D01*X044934Y115166D01*
X045008Y115166D01*X045008Y115203D01*X045045Y115203D01*X045045Y115240D01*
X045119Y115240D01*X045119Y115277D01*X045156Y115277D01*X045156Y115314D01*
X045231Y115314D01*X045231Y115351D01*X045268Y115351D01*X045268Y115388D01*
X045342Y115388D01*X045342Y115425D01*X046119Y115425D01*X046119Y115388D01*
X046045Y115388D01*X046045Y115351D01*X046008Y115351D01*X046008Y115314D01*
X045934Y115314D01*X045934Y115277D01*X045897Y115277D01*X045897Y115240D01*
X045823Y115240D01*X045823Y115203D01*X045786Y115203D01*X045786Y115166D01*
X045712Y115166D01*X045712Y115129D01*X045675Y115129D01*X045675Y115092D01*
X045601Y115092D01*X045601Y115055D01*X045564Y115055D01*X045564Y115017D01*
X045490Y115017D01*X045490Y114980D01*X045453Y114980D01*X045453Y114943D01*
X045379Y114943D01*X045379Y114906D01*X045342Y114906D01*X045342Y114869D01*
X045268Y114869D01*X045268Y114832D01*X045231Y114832D01*X045231Y114795D01*
X045156Y114795D01*X045156Y114758D01*X045119Y114758D01*X045119Y114721D01*
X045045Y114721D01*X045045Y114684D01*X045008Y114684D01*X045008Y114647D01*
X044934Y114647D01*X044934Y114610D01*X044897Y114610D01*X044897Y114573D01*
X044823Y114573D01*X044823Y114499D01*X044008Y114499D01*X044008Y114610D01*
X043971Y114610D01*X043971Y114647D01*X043897Y114647D01*X043897Y114684D01*
X043860Y114684D01*X043860Y114721D01*X043823Y114721D01*X043823Y114758D01*
X043786Y114758D01*X043786Y114795D01*X043749Y114795D01*X043749Y114832D01*
X043712Y114832D01*X043712Y114869D01*X043675Y114869D01*X043675Y114906D01*
X043638Y114906D01*X043638Y114943D01*X043564Y114943D01*X043564Y114980D01*
X043527Y114980D01*X043527Y115017D01*X043490Y115017D01*X043490Y115055D01*
X043453Y115055D01*X043453Y115092D01*X043416Y115092D01*X043416Y115129D01*
X043379Y115129D01*X043379Y115166D01*X043342Y115166D01*X043342Y115203D01*
X043268Y115203D01*X043268Y115240D01*X043231Y115240D01*X043231Y115277D01*
X043194Y115277D01*X043194Y115314D01*X043157Y115314D01*X043157Y115351D01*
X043120Y115351D01*X043120Y115388D01*X043083Y115388D01*G37*G36*X043194Y113981D02*
X043194Y114018D01*X043268Y114018D01*X043268Y114055D01*X043305Y114055D01*
X043305Y114092D01*X043379Y114092D01*X043379Y114129D01*X043453Y114129D01*
X043453Y114166D01*X043490Y114166D01*X043490Y114203D01*X043564Y114203D01*
X043564Y114240D01*X043601Y114240D01*X043601Y114277D01*X043638Y114277D01*
X043638Y114314D01*X043712Y114314D01*X043712Y114351D01*X043786Y114351D01*
X043786Y114388D01*X043823Y114388D01*X043823Y114425D01*X043897Y114425D01*
X043897Y114462D01*X043934Y114462D01*X043934Y114499D01*X044860Y114499D01*
X044860Y114462D01*X044897Y114462D01*X044897Y114425D01*X044971Y114425D01*
X044971Y114388D01*X045008Y114388D01*X045008Y114351D01*X045045Y114351D01*
X045045Y114314D01*X045082Y114314D01*X045082Y114277D01*X045156Y114277D01*
X045156Y114240D01*X045193Y114240D01*X045193Y114203D01*X045231Y114203D01*
X045231Y114166D01*X045268Y114166D01*X045268Y114129D01*X045342Y114129D01*
X045342Y114092D01*X045379Y114092D01*X045379Y114055D01*X045416Y114055D01*
X045416Y114018D01*X045453Y114018D01*X045453Y113981D01*X045527Y113981D01*
X045527Y113944D01*X045564Y113944D01*X045564Y113906D01*X045601Y113906D01*
X045601Y113869D01*X045638Y113869D01*X045638Y113832D01*X045675Y113832D01*
X045675Y113795D01*X045749Y113795D01*X045749Y113758D01*X045786Y113758D01*
X045786Y113721D01*X045823Y113721D01*X045823Y113684D01*X045860Y113684D01*
X045860Y113647D01*X045082Y113647D01*X045082Y113684D01*X045008Y113684D01*
X045008Y113721D01*X044971Y113721D01*X044971Y113758D01*X044934Y113758D01*
X044934Y113795D01*X044897Y113795D01*X044897Y113832D01*X044860Y113832D01*
X044860Y113869D01*X044823Y113869D01*X044823Y113906D01*X044749Y113906D01*
X044749Y113944D01*X044712Y113944D01*X044712Y113981D01*X044675Y113981D01*
X044675Y114018D01*X044638Y114018D01*X044638Y114055D01*X044601Y114055D01*
X044601Y114092D01*X044564Y114092D01*X044564Y114129D01*X044490Y114129D01*
X044490Y114166D01*X044453Y114166D01*X044453Y114203D01*X044416Y114203D01*
X044416Y114240D01*X044342Y114240D01*X044342Y114203D01*X044268Y114203D01*
X044268Y114166D01*X044231Y114166D01*X044231Y114129D01*X044157Y114129D01*
X044157Y114092D01*X044082Y114092D01*X044082Y114055D01*X044045Y114055D01*
X044045Y114018D01*X043971Y114018D01*X043971Y113981D01*X043194Y113981D01*G37*G36*
X040157Y116203D02*X040194Y116203D01*X040194Y116166D01*X040268Y116166D01*
X040268Y116128D01*X040342Y116128D01*X040342Y116166D01*X040416Y116166D01*
X040416Y116203D01*X040490Y116203D01*X040490Y116240D01*X040564Y116240D01*
X040564Y116277D01*X040601Y116277D01*X040601Y116314D01*X040638Y116314D01*
X040638Y116351D01*X040675Y116351D01*X040675Y116388D01*X040712Y116388D01*
X040712Y116425D01*X040749Y116425D01*X040749Y116499D01*X040787Y116499D01*
X040787Y116536D01*X040824Y116536D01*X040824Y116610D01*X040861Y116610D01*
X040861Y116758D01*X040898Y116758D01*X040898Y117054D01*X040861Y117054D01*
X040861Y117165D01*X040601Y117165D01*X040601Y117091D01*X040638Y117091D01*
X040638Y116721D01*X040601Y116721D01*X040601Y116647D01*X040564Y116647D01*
X040564Y116573D01*X040527Y116573D01*X040527Y116536D01*X040490Y116536D01*
X040490Y116499D01*X040453Y116499D01*X040453Y116462D01*X040379Y116462D01*
X040379Y116425D01*X040305Y116425D01*X040305Y116388D01*X040231Y116388D01*
X040231Y116351D01*X040194Y116351D01*X040194Y116314D01*X040157Y116314D01*
X040157Y116203D01*G37*G36*X039379Y117202D02*X039676Y117202D01*X039676Y117239D01*
X039713Y117239D01*X039713Y117314D01*X039750Y117314D01*X039750Y117351D01*
X039824Y117351D01*X039824Y117388D01*X039898Y117388D01*X039898Y117425D01*
X040046Y117425D01*X040046Y117462D01*X040194Y117462D01*X040194Y117425D01*
X040342Y117425D01*X040342Y117388D01*X040379Y117388D01*X040379Y117351D01*
X040453Y117351D01*X040453Y117314D01*X040490Y117314D01*X040490Y117277D01*
X040527Y117277D01*X040527Y117239D01*X040564Y117239D01*X040564Y117165D01*
X040861Y117165D01*X040861Y117202D01*X040824Y117202D01*X040824Y117277D01*
X040787Y117277D01*X040787Y117351D01*X040749Y117351D01*X040749Y117388D01*
X040712Y117388D01*X040712Y117425D01*X040675Y117425D01*X040675Y117462D01*
X040638Y117462D01*X040638Y117499D01*X040601Y117499D01*X040601Y117536D01*
X040564Y117536D01*X040564Y117573D01*X040490Y117573D01*X040490Y117610D01*
X040416Y117610D01*X040416Y117647D01*X040305Y117647D01*X040305Y117684D01*
X039898Y117684D01*X039898Y117647D01*X039787Y117647D01*X039787Y117610D01*
X039713Y117610D01*X039713Y117573D01*X039676Y117573D01*X039676Y117536D01*
X039601Y117536D01*X039601Y117499D01*X039564Y117499D01*X039564Y117462D01*
X039527Y117462D01*X039527Y117425D01*X039490Y117425D01*X039490Y117351D01*
X039453Y117351D01*X039453Y117314D01*X039416Y117314D01*X039416Y117239D01*
X039379Y117239D01*X039379Y117202D01*G37*G36*X039305Y116832D02*X039342Y116832D01*
X039342Y116684D01*X039379Y116684D01*X039379Y116573D01*X039416Y116573D01*
X039416Y116499D01*X039453Y116499D01*X039453Y116462D01*X039490Y116462D01*
X039490Y116388D01*X039527Y116388D01*X039527Y116351D01*X039601Y116351D01*
X039601Y116314D01*X039750Y116314D01*X039750Y116351D01*X039787Y116351D01*
X039787Y116499D01*X039750Y116499D01*X039750Y116536D01*X039713Y116536D01*
X039713Y116573D01*X039676Y116573D01*X039676Y116610D01*X039638Y116610D01*
X039638Y116684D01*X039601Y116684D01*X039601Y116795D01*X039564Y116795D01*
X039564Y117017D01*X039601Y117017D01*X039601Y117128D01*X039638Y117128D01*
X039638Y117202D01*X039379Y117202D01*X039379Y117165D01*X039342Y117165D01*
X039342Y116980D01*X039305Y116980D01*X039305Y116832D01*G37*G36*X037935Y115055D02*
X037972Y115055D01*X037972Y114980D01*X038009Y114980D01*X038009Y114943D01*
X038046Y114943D01*X038046Y114869D01*X038083Y114869D01*X038083Y114795D01*
X038120Y114795D01*X038120Y114721D01*X038157Y114721D01*X038157Y114647D01*
X038194Y114647D01*X038194Y114573D01*X038231Y114573D01*X038231Y114536D01*
X038268Y114536D01*X038268Y114462D01*X038305Y114462D01*X038305Y114388D01*
X038342Y114388D01*X038342Y114314D01*X038379Y114314D01*X038379Y114240D01*
X038416Y114240D01*X038416Y114166D01*X038453Y114166D01*X038453Y114129D01*
X038490Y114129D01*X038490Y114055D01*X038527Y114055D01*X038527Y113981D01*
X038565Y113981D01*X038565Y113906D01*X038602Y113906D01*X038602Y113832D01*
X038639Y113832D01*X038639Y113795D01*X038676Y113795D01*X038676Y113721D01*
X038713Y113721D01*X038713Y113647D01*X039564Y113647D01*X039564Y113758D01*
X039601Y113758D01*X039601Y113981D01*X039638Y113981D01*X039638Y114166D01*
X039676Y114166D01*X039676Y114388D01*X039713Y114388D01*X039713Y114610D01*
X039750Y114610D01*X039750Y114795D01*X039787Y114795D01*X039787Y115017D01*
X039824Y115017D01*X039824Y115203D01*X039861Y115203D01*X039861Y115425D01*
X039898Y115425D01*X039898Y115647D01*X039935Y115647D01*X039935Y115869D01*
X039972Y115869D01*X039972Y116054D01*X040009Y116054D01*X040009Y116277D01*
X040046Y116277D01*X040046Y116499D01*X040083Y116499D01*X040083Y116684D01*
X040120Y116684D01*X040120Y116832D01*X040083Y116832D01*X040083Y116758D01*
X040046Y116758D01*X040046Y116647D01*X040009Y116647D01*X040009Y116573D01*
X039972Y116573D01*X039972Y116499D01*X039935Y116499D01*X039935Y116425D01*
X039898Y116425D01*X039898Y116351D01*X039861Y116351D01*X039861Y116277D01*
X039824Y116277D01*X039824Y116203D01*X039787Y116203D01*X039787Y116128D01*
X039750Y116128D01*X039750Y116054D01*X039713Y116054D01*X039713Y115980D01*
X039676Y115980D01*X039676Y115906D01*X039638Y115906D01*X039638Y115795D01*
X039601Y115795D01*X039601Y115721D01*X039564Y115721D01*X039564Y115647D01*
X039527Y115647D01*X039527Y115573D01*X039490Y115573D01*X039490Y115499D01*
X039453Y115499D01*X039453Y115425D01*X039416Y115425D01*X039416Y115351D01*
X039379Y115351D01*X039379Y115277D01*X039342Y115277D01*X039342Y115203D01*
X039305Y115203D01*X039305Y115129D01*X039268Y115129D01*X039268Y115055D01*
X039231Y115055D01*X039231Y114943D01*X039194Y114943D01*X039194Y114869D01*
X039157Y114869D01*X039157Y114795D01*X039120Y114795D01*X039120Y114721D01*
X039083Y114721D01*X039083Y114647D01*X039046Y114647D01*X039046Y114573D01*
X039009Y114573D01*X039009Y114499D01*X038972Y114499D01*X038972Y114425D01*
X038898Y114425D01*X038898Y114462D01*X038861Y114462D01*X038861Y114536D01*
X038824Y114536D01*X038824Y114610D01*X038787Y114610D01*X038787Y114684D01*
X038750Y114684D01*X038750Y114758D01*X038713Y114758D01*X038713Y114795D01*
X038676Y114795D01*X038676Y114869D01*X038639Y114869D01*X038639Y114943D01*
X038602Y114943D01*X038602Y115017D01*X038565Y115017D01*X038565Y115092D01*
X037935Y115092D01*X037935Y115055D01*G37*G36*X036898Y115425D02*X036898Y115462D01*
X036935Y115462D01*X036935Y115684D01*X036972Y115684D01*X036972Y115906D01*
X037009Y115906D01*X037009Y116128D01*X037046Y116128D01*X037046Y116277D01*
X037898Y116277D01*X037898Y116240D01*X037935Y116240D01*X037935Y116166D01*
X037972Y116166D01*X037972Y116091D01*X038009Y116091D01*X038009Y116017D01*
X038046Y116017D01*X038046Y115980D01*X038083Y115980D01*X038083Y115906D01*
X038120Y115906D01*X038120Y115832D01*X038157Y115832D01*X038157Y115758D01*
X038194Y115758D01*X038194Y115684D01*X038231Y115684D01*X038231Y115610D01*
X038268Y115610D01*X038268Y115573D01*X038305Y115573D01*X038305Y115499D01*
X038342Y115499D01*X038342Y115425D01*X038379Y115425D01*X038379Y115351D01*
X038416Y115351D01*X038416Y115277D01*X038453Y115277D01*X038453Y115203D01*
X038490Y115203D01*X038490Y115166D01*X038527Y115166D01*X038527Y115092D01*
X037935Y115092D01*X037935Y115129D01*X037898Y115129D01*X037898Y115203D01*
X037861Y115203D01*X037861Y115277D01*X037824Y115277D01*X037824Y115351D01*
X037787Y115351D01*X037787Y115388D01*X037750Y115388D01*X037750Y115462D01*
X037713Y115462D01*X037713Y115536D01*X037676Y115536D01*X037676Y115499D01*
X037639Y115499D01*X037639Y115425D01*X036898Y115425D01*G37*G36*X036454Y112930D02*
X036454Y112967D01*X036491Y112967D01*X036491Y112930D01*X036454Y112930D01*G37*G36*
X034491Y113981D02*X034491Y114055D01*X034528Y114055D01*X034528Y114240D01*
X034565Y114240D01*X034565Y114425D01*X034602Y114425D01*X034602Y114610D01*
X034639Y114610D01*X034639Y114795D01*X034676Y114795D01*X034676Y114980D01*
X034713Y114980D01*X034713Y115166D01*X034750Y115166D01*X034750Y115240D01*
X034787Y115240D01*X034787Y115277D01*X034824Y115277D01*X034824Y115314D01*
X034861Y115314D01*X034861Y115351D01*X034935Y115351D01*X034935Y115388D01*
X035083Y115388D01*X035083Y115425D01*X037602Y115425D01*X037602Y115351D01*
X037565Y115351D01*X037565Y115240D01*X037528Y115240D01*X037528Y115166D01*
X037491Y115166D01*X037491Y115092D01*X037454Y115092D01*X037454Y115017D01*
X037416Y115017D01*X037416Y114906D01*X037379Y114906D01*X037379Y114832D01*
X037342Y114832D01*X037342Y114758D01*X037305Y114758D01*X037305Y114684D01*
X037268Y114684D01*X037268Y114573D01*X037231Y114573D01*X037231Y114499D01*
X037194Y114499D01*X037194Y114425D01*X037157Y114425D01*X037157Y114351D01*
X037120Y114351D01*X037120Y114277D01*X037083Y114277D01*X037083Y114166D01*
X037046Y114166D01*X037046Y114092D01*X037009Y114092D01*X037009Y114018D01*
X036972Y114018D01*X036972Y113944D01*X036935Y113944D01*X036935Y113832D01*
X036898Y113832D01*X036898Y113758D01*X036861Y113758D01*X036861Y113684D01*
X036824Y113684D01*X036824Y113610D01*X036787Y113610D01*X036787Y113499D01*
X036750Y113499D01*X036750Y113425D01*X036713Y113425D01*X036713Y113351D01*
X036676Y113351D01*X036676Y113277D01*X036639Y113277D01*X036639Y113166D01*
X036602Y113166D01*X036602Y113092D01*X036565Y113092D01*X036565Y113018D01*
X036528Y113018D01*X036528Y112944D01*X036491Y112944D01*X036491Y113092D01*
X036528Y113092D01*X036528Y113314D01*X036565Y113314D01*X036565Y113536D01*
X036602Y113536D01*X036602Y113721D01*X036639Y113721D01*X036639Y113944D01*
X036676Y113944D01*X036676Y114166D01*X036713Y114166D01*X036713Y114388D01*
X036750Y114388D01*X036750Y114610D01*X036787Y114610D01*X036787Y114832D01*
X036824Y114832D01*X036824Y115017D01*X036861Y115017D01*X036861Y115092D01*
X035602Y115092D01*X035602Y115055D01*X035528Y115055D01*X035528Y115017D01*
X035491Y115017D01*X035491Y114980D01*X035454Y114980D01*X035454Y114832D01*
X035417Y114832D01*X035417Y114647D01*X035380Y114647D01*X035380Y114462D01*
X035343Y114462D01*X035343Y114277D01*X035306Y114277D01*X035306Y114092D01*
X035269Y114092D01*X035269Y113981D01*X034491Y113981D01*G37*G36*X031343Y113906D02*
X031343Y114129D01*X031380Y114129D01*X031380Y114351D01*X031417Y114351D01*
X031417Y114388D01*X032158Y114388D01*X032158Y114240D01*X032121Y114240D01*
X032121Y114055D01*X032195Y114055D01*X032195Y114018D01*X032306Y114018D01*
X032306Y113981D01*X035269Y113981D01*X035269Y113906D01*X035232Y113906D01*
X035232Y113684D01*X035195Y113684D01*X035195Y113647D01*X032010Y113647D01*
X032010Y113684D01*X031713Y113684D01*X031713Y113721D01*X031602Y113721D01*
X031602Y113758D01*X031491Y113758D01*X031491Y113795D01*X031454Y113795D01*
X031454Y113832D01*X031417Y113832D01*X031417Y113869D01*X031380Y113869D01*
X031380Y113906D01*X031343Y113906D01*
G37*G36*X031417Y114388D02*X031417Y114536D01*
X031454Y114536D01*X031454Y114721D01*X031491Y114721D01*X031491Y114943D01*
X031528Y114943D01*X031528Y115129D01*X031565Y115129D01*X031565Y115240D01*
X031602Y115240D01*X031602Y115277D01*X031639Y115277D01*X031639Y115314D01*
X031676Y115314D01*X031676Y115351D01*X031750Y115351D01*X031750Y115388D01*
X031899Y115388D01*X031899Y115425D01*X034306Y115425D01*X034306Y115388D01*
X034380Y115388D01*X034380Y115351D01*X034417Y115351D01*X034417Y115314D01*
X034454Y115314D01*X034454Y114906D01*X034417Y114906D01*X034417Y114721D01*
X033676Y114721D01*X033676Y114869D01*X033713Y114869D01*X033713Y115055D01*
X033676Y115055D01*X033676Y115092D01*X032417Y115092D01*X032417Y115055D01*
X032343Y115055D01*X032343Y115017D01*X032306Y115017D01*X032306Y114980D01*
X032269Y114980D01*X032269Y114869D01*X032232Y114869D01*X032232Y114758D01*
X032195Y114758D01*X032195Y114721D01*X034417Y114721D01*X034417Y114647D01*
X034380Y114647D01*X034380Y114536D01*X034343Y114536D01*X034343Y114462D01*
X034269Y114462D01*X034269Y114425D01*X034232Y114425D01*X034232Y114388D01*
X031417Y114388D01*G37*G36*X029380Y113981D02*X029380Y114203D01*X029417Y114203D01*
X029417Y114388D01*X029454Y114388D01*X029454Y114610D01*X029491Y114610D01*
X029491Y114795D01*X029528Y114795D01*X029528Y114980D01*X029565Y114980D01*
X029565Y115203D01*X029602Y115203D01*X029602Y115388D01*X029640Y115388D01*
X029640Y115573D01*X029677Y115573D01*X029677Y115795D01*X029714Y115795D01*
X029714Y115980D01*X029751Y115980D01*X029751Y116128D01*X030565Y116128D01*
X030565Y116091D01*X030528Y116091D01*X030528Y115906D01*X030491Y115906D01*
X030491Y115758D01*X030454Y115758D01*X030454Y115573D01*X030417Y115573D01*
X030417Y115425D01*X031380Y115425D01*X031380Y115351D01*X031343Y115351D01*
X031343Y115129D01*X031306Y115129D01*X031306Y115092D01*X030343Y115092D01*
X030343Y114980D01*X030306Y114980D01*X030306Y114832D01*X030269Y114832D01*
X030269Y114647D01*X030232Y114647D01*X030232Y114462D01*X030195Y114462D01*
X030195Y114314D01*X030158Y114314D01*X030158Y114055D01*X030195Y114055D01*
X030195Y114018D01*X030269Y114018D01*X030269Y113981D01*X031195Y113981D01*
X031195Y113758D01*X031158Y113758D01*X031158Y113647D01*X030232Y113647D01*
X030232Y113684D01*X029825Y113684D01*X029825Y113721D01*X029714Y113721D01*
X029714Y113758D01*X029602Y113758D01*X029602Y113795D01*X029565Y113795D01*
X029565Y113832D01*X029491Y113832D01*X029491Y113869D01*X029454Y113869D01*
X029454Y113906D01*X029417Y113906D01*X029417Y113981D01*X029380Y113981D01*G37*G36*
X026158Y113684D02*X026158Y113795D01*X026195Y113795D01*X026195Y113981D01*
X026232Y113981D01*X026232Y114166D01*X026270Y114166D01*X026270Y114388D01*
X026307Y114388D01*X026307Y114536D01*X026344Y114536D01*X026344Y114758D01*
X026381Y114758D01*X026381Y114943D01*X026418Y114943D01*X026418Y115129D01*
X026455Y115129D01*X026455Y115277D01*X026492Y115277D01*X026492Y115425D01*
X028640Y115425D01*X028640Y115388D01*X028862Y115388D01*X028862Y115351D01*
X028973Y115351D01*X028973Y115314D01*X029084Y115314D01*X029084Y115277D01*
X029158Y115277D01*X029158Y115240D01*X029195Y115240D01*X029195Y115203D01*
X029269Y115203D01*X029269Y115129D01*X029306Y115129D01*X029306Y114869D01*
X029269Y114869D01*X029269Y114647D01*X029232Y114647D01*X029232Y114388D01*
X029195Y114388D01*X029195Y114166D01*X029158Y114166D01*X029158Y113944D01*
X029121Y113944D01*X029121Y113684D01*X028306Y113684D01*X028306Y113758D01*
X028343Y113758D01*X028343Y113944D01*X028380Y113944D01*X028380Y114203D01*
X028417Y114203D01*X028417Y114388D01*X028454Y114388D01*X028454Y114610D01*
X028491Y114610D01*X028491Y114795D01*X028529Y114795D01*X028529Y115017D01*
X028491Y115017D01*X028491Y115055D01*X028417Y115055D01*X028417Y115092D01*
X027195Y115092D01*X027195Y115055D01*X027158Y115055D01*X027158Y114832D01*
X027121Y114832D01*X027121Y114647D01*X027084Y114647D01*X027084Y114462D01*
X027047Y114462D01*X027047Y114240D01*X027010Y114240D01*X027010Y114092D01*
X026973Y114092D01*X026973Y113869D01*X026936Y113869D01*X026936Y113684D01*
X026158Y113684D01*G37*G36*X025010Y113647D02*X025862Y113647D01*X025862Y113721D01*
X025899Y113721D01*X025899Y113906D01*X025936Y113906D01*X025936Y114092D01*
X025973Y114092D01*X025973Y114277D01*X026010Y114277D01*X026010Y114462D01*
X026047Y114462D01*X026047Y114684D01*X026084Y114684D01*X026084Y114869D01*
X026121Y114869D01*X026121Y115055D01*X026158Y115055D01*X026158Y115240D01*
X026195Y115240D01*X026195Y115425D01*X026232Y115425D01*X026232Y115610D01*
X026270Y115610D01*X026270Y115832D01*X026307Y115832D01*X026307Y116017D01*
X026344Y116017D01*X026344Y116203D01*X026381Y116203D01*X026381Y116388D01*
X026418Y116388D01*X026418Y116462D01*X025529Y116462D01*X025529Y116462D01*
X025529Y116314D01*X025492Y116314D01*X025492Y116128D01*X025455Y116128D01*
X025455Y115943D01*X025418Y115943D01*X025418Y115721D01*X025381Y115721D01*
X025381Y115536D01*X025344Y115536D01*X025344Y115351D01*X025307Y115351D01*
X025307Y115166D01*X025270Y115166D01*X025270Y114980D01*X025233Y114980D01*
X025233Y114758D01*X025196Y114758D01*X025196Y114573D01*X025159Y114573D01*
X025159Y114388D01*X025121Y114388D01*X025121Y114203D01*X025084Y114203D01*
X025084Y114018D01*X025047Y114018D01*X025047Y113795D01*X025010Y113795D01*
X025010Y113647D01*G37*G36*X017900Y114596D02*X017937Y114596D01*X017937Y114485D01*
X017974Y114485D01*X017974Y114411D01*X018011Y114411D01*X018011Y114337D01*
X018048Y114337D01*X018048Y114263D01*X018085Y114263D01*X018085Y114225D01*
X018122Y114225D01*X018122Y114152D01*X018159Y114152D01*X018159Y114114D01*
X018196Y114114D01*X018196Y114078D01*X018233Y114078D01*X018233Y114041D01*
X018270Y114041D01*X018270Y114003D01*X018307Y114003D01*X018307Y113966D01*
X018345Y113966D01*X018345Y113930D01*X018418Y113930D01*X018418Y113892D01*
X018456Y113892D01*X018456Y113855D01*X018492Y113855D01*X018492Y113818D01*
X018567Y113818D01*X018567Y113781D01*X018604Y113781D01*X018604Y113744D01*
X018678Y113744D01*X018678Y113707D01*X018715Y113707D01*X018715Y113670D01*
X018789Y113670D01*X018789Y113633D01*X018826Y113633D01*X018826Y113596D01*
X018900Y113596D01*X018900Y113559D01*X018973Y113559D01*X018973Y113522D01*
X019048Y113522D01*X019048Y113485D01*X019122Y113485D01*X019122Y113448D01*
X019196Y113448D01*X019196Y113411D01*X019270Y113411D01*X019270Y113373D01*
X019344Y113373D01*X019344Y113337D01*X019418Y113337D01*X019418Y113300D01*
X019492Y113300D01*X019492Y113263D01*X019603Y113263D01*X019603Y113225D01*
X019641Y113225D01*X019641Y113189D01*X019752Y113189D01*X019752Y113151D01*
X019826Y113151D01*X019826Y113115D01*X019900Y113115D01*X019900Y113078D01*
X019974Y113078D01*X019974Y113040D01*X020049Y113040D01*X020049Y113115D01*
X020011Y113115D01*X020011Y113523D01*X020049Y113523D01*X020049Y113669D01*
X020085Y113669D01*X020085Y113782D01*X020122Y113782D01*X020122Y113893D01*
X020159Y113893D01*X020159Y113966D01*X020197Y113966D01*X020197Y114077D01*
X020234Y114077D01*X020234Y114152D01*X020270Y114152D01*X020270Y114188D01*
X020308Y114188D01*X020308Y114263D01*X020344Y114263D01*X020344Y114337D01*
X020382Y114337D01*X020382Y114411D01*X020419Y114411D01*X020419Y114485D01*
X020457Y114485D01*X020457Y114522D01*X020492Y114522D01*X020492Y114596D01*
X020528Y114596D01*X020528Y114633D01*X020568Y114633D01*X020568Y114707D01*
X020604Y114707D01*X020604Y114744D01*X020640Y114744D01*X020640Y114819D01*
X020678Y114819D01*X020678Y114855D01*X020715Y114855D01*X020715Y114929D01*
X020751Y114929D01*X020751Y115003D01*X020788Y115003D01*X020788Y115041D01*
X020826Y115041D01*X020826Y115114D01*X020863Y115114D01*X020863Y115151D01*
X020901Y115151D01*X020901Y115225D01*X020937Y115225D01*X020937Y115262D01*
X020974Y115262D01*X020974Y115336D01*X021010Y115336D01*X021010Y115412D01*
X021048Y115412D01*X021048Y115448D01*X021085Y115448D01*X021085Y115522D01*
X021121Y115522D01*X021121Y115596D01*X021160Y115596D01*X021160Y115670D01*
X021196Y115670D01*X021196Y115707D01*X020160Y115707D01*X020160Y115670D01*
X020122Y115670D01*X020122Y115707D01*X020085Y115707D01*X020085Y115670D01*
X019789Y115670D01*X019789Y115634D01*X019531Y115634D01*X019531Y115596D01*
X019382Y115596D01*X019382Y115560D01*X019233Y115560D01*X019233Y115523D01*
X019123Y115523D01*X019123Y115484D01*X019048Y115484D01*X019048Y115449D01*
X018936Y115449D01*X018936Y115410D01*X018863Y115410D01*X018863Y115374D01*
X018788Y115374D01*X018788Y115337D01*X018751Y115337D01*X018751Y115300D01*
X018678Y115300D01*X018678Y115263D01*X018639Y115263D01*X018639Y115226D01*
X018604Y115226D01*X018604Y115190D01*X018566Y115190D01*X018566Y115152D01*
X018531Y115152D01*X018531Y115115D01*X018493Y115115D01*X018493Y115188D01*
X018531Y115188D01*X018531Y115225D01*X018568Y115225D01*X018568Y115300D01*
X018603Y115300D01*X018603Y115337D01*X018640Y115337D01*X018640Y115374D01*
X018677Y115374D01*X018677Y115412D01*X018715Y115412D01*X018715Y115448D01*
X018752Y115448D01*X018752Y115485D01*X018790Y115485D01*X018790Y115521D01*
X018863Y115521D01*X018863Y115558D01*X018900Y115558D01*X018900Y115596D01*
X018936Y115596D01*X018936Y115632D01*X019011Y115632D01*X019011Y115669D01*
X019049Y115669D01*X019049Y115707D01*X019123Y115707D01*X019123Y115743D01*
X019196Y115743D01*X019196Y115781D01*X019270Y115781D01*X019270Y115818D01*
X019383Y115818D01*X019383Y115856D01*X019456Y115856D01*X019456Y115892D01*
X019567Y115892D01*X019567Y115930D01*X019679Y115930D01*X019679Y115966D01*
X019790Y115966D01*X019790Y116003D01*X019938Y116003D01*X019938Y116039D01*
X020086Y116039D01*X020086Y116076D01*X020269Y116076D01*X020269Y116114D01*
X020493Y116114D01*X020493Y116151D01*X020825Y116151D01*X020825Y116187D01*
X021789Y116187D01*X021789Y116225D01*X022084Y116225D01*X022084Y116262D01*
X022234Y116262D01*X022234Y116300D01*X022344Y116300D01*X022344Y116337D01*
X022456Y116337D01*X022456Y116373D01*X022677Y116373D01*X022677Y116336D01*
X022714Y116336D01*X022714Y116300D01*X022751Y116300D01*X022751Y116189D01*
X022714Y116189D01*X022714Y116077D01*X022677Y116077D01*X022677Y116003D01*
X022641Y116003D01*X022641Y115929D01*X022603Y115929D01*X022603Y115892D01*
X022566Y115892D01*X022566Y115818D01*X022529Y115818D01*X022529Y115781D01*
X022492Y115781D01*X022492Y115707D01*X022455Y115707D01*X022455Y115670D01*
X022417Y115670D01*X022417Y115596D01*X022381Y115596D01*X022381Y115559D01*
X022344Y115559D01*X022344Y115485D01*X022307Y115485D01*X022307Y115448D01*
X022270Y115448D01*X022270Y115411D01*X022233Y115411D01*X022233Y115374D01*
X022195Y115374D01*X022195Y115299D01*X022159Y115299D01*X022159Y115263D01*
X022122Y115263D01*X022122Y115226D01*X022085Y115226D01*X022085Y115152D01*
X022048Y115152D01*X022048Y115115D01*X022010Y115115D01*X022010Y115078D01*
X021973Y115078D01*X021973Y115004D01*X021937Y115004D01*X021937Y114966D01*
X021900Y114966D01*X021900Y114930D01*X021862Y114930D01*X021862Y114893D01*
X021826Y114893D01*X021826Y114819D01*X021789Y114819D01*X021789Y114781D01*
X021751Y114781D01*X021751Y114744D01*X021714Y114744D01*X021714Y114708D01*
X021678Y114708D01*X021678Y114633D01*X021640Y114633D01*X021640Y114596D01*
X021603Y114596D01*X021603Y114559D01*X021566Y114559D01*X021566Y114485D01*
X021529Y114485D01*X021529Y114447D01*X021492Y114447D01*X021492Y114411D01*
X021454Y114411D01*X021454Y114336D01*X021418Y114336D01*X021418Y114299D01*
X021381Y114299D01*X021381Y114263D01*X021344Y114263D01*X021344Y114189D01*
X021307Y114189D01*X021307Y114152D01*X021270Y114152D01*X021270Y114078D01*
X021233Y114078D01*X021233Y114041D01*X021196Y114041D01*X021196Y113967D01*
X021159Y113967D01*X021159Y113929D01*X021121Y113929D01*X021121Y113855D01*
X021085Y113855D01*X021085Y113781D01*X021048Y113781D01*X021048Y113707D01*
X021011Y113707D01*X021011Y113634D01*X020974Y113634D01*X020974Y113559D01*
X020937Y113559D01*X020937Y113486D01*X020900Y113486D01*X020900Y113374D01*
X020862Y113374D01*X020862Y113115D01*X020900Y113115D01*X020900Y113041D01*
X020937Y113041D01*X020937Y113003D01*X021270Y113003D01*X021270Y113042D01*
X021382Y113042D01*X021382Y113079D01*X021455Y113079D01*X021455Y113114D01*
X021492Y113114D01*X021492Y113153D01*X021529Y113153D01*X021529Y113189D01*
X021566Y113189D01*X021566Y113226D01*X021604Y113226D01*X021604Y113263D01*
X021641Y113263D01*X021641Y113299D01*X021678Y113299D01*X021678Y113373D01*
X021714Y113373D01*X021714Y113411D01*X021752Y113411D01*X021752Y113448D01*
X021825Y113448D01*X021825Y113485D01*X021900Y113485D01*X021900Y113522D01*
X022048Y113522D01*X022048Y113484D01*X022122Y113484D01*X022122Y113410D01*
X022158Y113410D01*X022158Y113115D01*X022122Y113115D01*X022122Y113040D01*
X022085Y113040D01*X022085Y113003D01*X022048Y113003D01*X022048Y112967D01*
X022010Y112967D01*X022010Y112930D01*X021973Y112930D01*X021973Y112892D01*
X021937Y112892D01*X021937Y112855D01*X021898Y112855D01*X021898Y112818D01*
X021825Y112818D01*X021825Y112781D01*X021789Y112781D01*X021789Y112745D01*
X021714Y112745D01*X021714Y112707D01*X021640Y112707D01*X021640Y112670D01*
X021529Y112670D01*X021529Y112633D01*X021419Y112633D01*X021419Y112596D01*
X021271Y112596D01*X021271Y112560D01*X021417Y112560D01*X021417Y112521D01*
X021676Y112521D01*X021676Y112485D01*X022011Y112485D01*X022011Y112521D01*
X022270Y112521D01*X022270Y112559D01*X022380Y112559D01*X022380Y112596D01*
X022492Y112596D01*X022492Y112634D01*X022567Y112634D01*X022567Y112670D01*
X022641Y112670D01*X022641Y112707D01*X022677Y112707D01*X022677Y112745D01*
X022752Y112745D01*X022752Y112781D01*X022788Y112781D01*X022788Y112819D01*
X022863Y112819D01*X022863Y112854D01*X022899Y112854D01*X022899Y112892D01*
X022937Y112892D01*X022937Y112929D01*X022974Y112929D01*X022974Y112967D01*
X023010Y112967D01*X023010Y113004D01*X023047Y113004D01*X023047Y113040D01*
X023085Y113040D01*X023085Y113077D01*X023122Y113077D01*X023122Y113152D01*
X023159Y113152D01*X023159Y113189D01*X023196Y113189D01*X023196Y113226D01*
X023233Y113226D01*X023233Y113299D01*X023270Y113299D01*X023270Y113373D01*
X023307Y113373D01*X023307Y113448D01*X023344Y113448D01*X023344Y113485D01*
X023380Y113485D01*X023380Y113596D01*X023418Y113596D01*X023418Y113670D01*
X023454Y113670D01*X023454Y113744D01*X023492Y113744D01*X023492Y113819D01*
X023529Y113819D01*X023529Y113930D01*X023566Y113930D01*X023566Y114005D01*
X023603Y114005D01*X023603Y114114D01*X023641Y114114D01*X023641Y114224D01*
X023678Y114224D01*X023678Y114299D01*X023715Y114299D01*X023715Y114411D01*
X023752Y114411D01*X023752Y114522D01*X023788Y114522D01*X023788Y114595D01*
X023824Y114595D01*X023824Y114707D01*X023862Y114707D01*X023862Y114818D01*
X023901Y114818D01*X023901Y114966D01*X023937Y114966D01*X023937Y115078D01*
X023973Y115078D01*X023973Y115226D01*X024011Y115226D01*X024011Y115410D01*
X024048Y115410D01*X024048Y115632D01*X024084Y115632D01*X024084Y116448D01*
X024046Y116448D01*X024046Y116596D01*X024010Y116596D01*X024010Y116744D01*
X023973Y116744D01*X023973Y116817D01*X023937Y116817D01*X023937Y116928D01*
X023901Y116928D01*X023901Y116966D01*X023863Y116966D01*X023863Y117040D01*
X023826Y117040D01*X023826Y117077D01*X023788Y117077D01*X023788Y117115D01*
X023752Y117115D01*X023752Y117189D01*X023715Y117189D01*X023715Y117226D01*
X023676Y117226D01*X023676Y117262D01*X023602Y117262D01*X023602Y117299D01*
X023565Y117299D01*X023565Y117336D01*X023529Y117336D01*X023529Y117373D01*
X023458Y117373D01*X023458Y117411D01*X023382Y117411D01*X023382Y117447D01*
X023271Y117447D01*X023271Y117486D01*X023196Y117486D01*X023196Y117300D01*
X023157Y117300D01*X023157Y117225D01*X023121Y117225D01*X023121Y117152D01*
X023084Y117152D01*X023084Y117076D01*X023048Y117076D01*X023048Y117041D01*
X023010Y117041D01*X023010Y117004D01*X022974Y117004D01*X022974Y116966D01*
X022937Y116966D01*X022937Y116928D01*X022900Y116928D01*X022900Y116892D01*
X022825Y116892D01*X022825Y116855D01*X022751Y116855D01*X022751Y116819D01*
X022603Y116819D01*X022603Y116780D01*X022344Y116780D01*X022344Y116818D01*
X022233Y116818D01*X022233Y116854D01*X022158Y116854D01*X022158Y116893D01*
X022122Y116893D01*X022122Y116930D01*X022084Y116930D01*X022084Y116967D01*
X022048Y116967D01*X022048Y117005D01*X022011Y117005D01*X022011Y117078D01*
X021975Y117078D01*X021975Y117374D01*X022011Y117374D01*X022011Y117447D01*
X022049Y117447D01*X022049Y117522D01*X021825Y117522D01*X021825Y117485D01*
X021640Y117485D01*X021640Y117447D01*X021492Y117447D01*X021492Y117411D01*
X021344Y117411D01*X021344Y117374D01*X021233Y117374D01*X021233Y117336D01*
X021085Y117336D01*X021085Y117299D01*X020973Y117299D01*X020973Y117263D01*
X020863Y117263D01*X020863Y117225D01*X020788Y117225D01*X020788Y117188D01*
X020677Y117188D01*X020677Y117152D01*X020604Y117152D01*X020604Y117114D01*
X020492Y117114D01*X020492Y117077D01*X020418Y117077D01*X020418Y117040D01*
X020344Y117040D01*X020344Y117003D01*X020270Y117003D01*X020270Y116966D01*
X020196Y116966D01*X020196Y116929D01*X020085Y116929D01*X020085Y116892D01*
X020011Y116892D01*X020011Y116855D01*X019937Y116855D01*X019937Y116818D01*
X019900Y116818D01*X019900Y116781D01*X019825Y116781D01*X019825Y116744D01*
X019752Y116744D01*X019752Y116707D01*X019678Y116707D01*X019678Y116670D01*
X019603Y116670D01*X019603Y116633D01*X019530Y116633D01*X019530Y116596D01*
X019492Y116596D01*X019492Y116559D01*X019418Y116559D01*X019418Y116522D01*
X019344Y116522D01*X019344Y116485D01*X019270Y116485D01*X019270Y116448D01*
X019233Y116448D01*X019233Y116411D01*X019159Y116411D01*X019159Y116374D01*
X019085Y116374D01*X019085Y116337D01*X019048Y116337D01*X019048Y116300D01*
X018974Y116300D01*X018974Y116262D01*X018937Y116262D01*X018937Y116226D01*
X018863Y116226D01*X018863Y116189D01*X018789Y116189D01*X018789Y116151D01*
X018751Y116151D01*X018751Y116115D01*X018678Y116115D01*X018678Y116078D01*
X018641Y116078D01*X018641Y116040D01*X018603Y116040D01*X018603Y116004D01*
X018529Y116004D01*X018529Y115967D01*X018492Y115967D01*X018492Y115929D01*
X018456Y115929D01*X018456Y115893D01*X018418Y115893D01*X018418Y115855D01*
X018381Y115855D01*X018381Y115818D01*X018344Y115818D01*X018344Y115781D01*
X018307Y115781D01*X018307Y115745D01*X018270Y115745D01*X018270Y115707D01*
X018233Y115707D01*X018233Y115670D01*X018196Y115670D01*X018196Y115596D01*
X018159Y115596D01*X018159Y115559D01*X018122Y115559D01*X018122Y115485D01*
X018085Y115485D01*X018085Y115448D01*X018048Y115448D01*X018048Y115374D01*
X018011Y115374D01*X018011Y115300D01*X017974Y115300D01*X017974Y115188D01*
X017937Y115188D01*X017937Y115041D01*X017900Y115041D01*X017900Y114596D01*G37*G36*
X039898Y114351D02*X039898Y114499D01*X039935Y114499D01*X039935Y114684D01*
X039972Y114684D01*X039972Y114869D01*X040009Y114869D01*X040009Y115055D01*
X040046Y115055D01*X040046Y115203D01*X040083Y115203D01*X040083Y115277D01*
X040120Y115277D01*X040120Y115314D01*X040157Y115314D01*X040157Y115351D01*
X040231Y115351D01*X040231Y115388D01*X040379Y115388D01*X040379Y115425D01*
X042786Y115425D01*X042786Y115388D01*X042860Y115388D01*X042860Y115351D01*
X042934Y115351D01*X042934Y115277D01*X042971Y115277D01*X042971Y115017D01*
X042934Y115017D01*X042934Y114758D01*X042897Y114758D01*X042897Y114721D01*
X042157Y114721D01*X042157Y114832D01*X042194Y114832D01*X042194Y115055D01*
X042157Y115055D01*X042157Y115092D01*X040935Y115092D01*X040935Y115055D01*
X040861Y115055D01*X040861Y115017D01*X040824Y115017D01*X040824Y114980D01*
X040787Y114980D01*X040787Y114943D01*X040749Y114943D01*X040749Y114832D01*
X040712Y114832D01*X040712Y114721D01*X042897Y114721D01*X042897Y114647D01*
X042897Y114573D01*X042860Y114573D01*X042860Y114499D01*X042823Y114499D01*
X042823Y114462D01*X042786Y114462D01*X042786Y114425D01*X042712Y114425D01*
X042712Y114388D01*X042564Y114388D01*X042564Y114351D01*X039898Y114351D01*G37*G36*
X039824Y113944D02*X039824Y114092D01*X039861Y114092D01*X039861Y114314D01*
X039898Y114314D01*X039898Y114351D01*X040638Y114351D01*X040638Y114240D01*
X040638Y114166D01*X040601Y114166D01*X040601Y114092D01*X040638Y114092D01*
X040638Y114055D01*X040712Y114055D01*X040712Y114018D01*X040824Y114018D01*
X040824Y113981D01*X043934Y113981D01*X043934Y113944D01*X043860Y113944D01*
X043860Y113906D01*X043823Y113906D01*X043823Y113869D01*X043749Y113869D01*
X043749Y113832D01*X043712Y113832D01*X043712Y113795D01*X043638Y113795D01*
X043638Y113758D01*X043601Y113758D01*X043601Y113721D01*X043527Y113721D01*
X043527Y113684D01*X043490Y113684D01*X043490Y113647D01*X040453Y113647D01*
X040453Y113684D01*X040194Y113684D01*X040194Y113721D01*X040083Y113721D01*
X040083Y113758D01*X039972Y113758D01*X039972Y113795D01*X039935Y113795D01*
X039935Y113832D01*X039898Y113832D01*X039898Y113869D01*X039861Y113869D01*
X039861Y113944D01*X039824Y113944D01*G37*X000000Y000000D02*M02*
